<svg width="480" height="430" viewBox="0 0 480 430" fill="none" xmlns="http://www.w3.org/2000/svg">
<g clip-path="url(#clip0_2446_5300)">
<path d="M239.65 429.99C372.005 429.99 479.3 373.251 479.3 303.26C479.3 233.269 372.005 176.53 239.65 176.53C107.295 176.53 0 233.269 0 303.26C0 373.251 107.295 429.99 239.65 429.99Z" fill="#F5F5F5"/>
<path d="M106.43 358.38C146.526 358.38 179.03 339.612 179.03 316.46C179.03 293.308 146.526 274.54 106.43 274.54C66.3342 274.54 33.8301 293.308 33.8301 316.46C33.8301 339.612 66.3342 358.38 106.43 358.38Z" fill="#E0E0E0"/>
<path d="M376.7 369.96C416.343 369.96 448.48 351.358 448.48 328.41C448.48 305.463 416.343 286.86 376.7 286.86C337.057 286.86 304.92 305.463 304.92 328.41C304.92 351.358 337.057 369.96 376.7 369.96Z" fill="#E0E0E0"/>
<path d="M410.29 276.1C410.29 276.1 406.98 259.62 410.9 244.73C414.82 229.84 423.17 218.65 433.03 214.58C442.89 210.51 454.03 217.19 445.29 227.09C436.55 236.99 419.41 249.74 418.29 276.56L410.29 276.1Z" fill="#09ADF4"/>
<path opacity="0.15" d="M410.29 276.1C410.29 276.1 406.98 259.62 410.9 244.73C414.82 229.84 423.17 218.65 433.03 214.58C442.89 210.51 454.03 217.19 445.29 227.09C436.55 236.99 419.41 249.74 418.29 276.56L410.29 276.1Z" fill="black"/>
<path d="M411.92 271.01H411.81C411.735 271.005 411.662 270.985 411.595 270.951C411.528 270.918 411.468 270.872 411.419 270.815C411.369 270.758 411.332 270.692 411.308 270.621C411.284 270.55 411.275 270.475 411.28 270.4C413.48 240.61 430.28 223.05 438.82 217.92C438.886 217.882 438.958 217.857 439.034 217.847C439.109 217.837 439.185 217.842 439.259 217.861C439.332 217.881 439.401 217.914 439.461 217.961C439.522 218.007 439.572 218.064 439.61 218.13C439.648 218.195 439.673 218.268 439.683 218.343C439.693 218.418 439.688 218.495 439.669 218.568C439.649 218.642 439.616 218.71 439.57 218.771C439.523 218.831 439.466 218.882 439.4 218.92C431.01 223.92 414.58 241.18 412.4 270.51C412.386 270.634 412.332 270.751 412.245 270.841C412.158 270.932 412.044 270.991 411.92 271.01Z" fill="white"/>
<path d="M419.31 292.77C419.057 290.047 418.337 287.388 417.18 284.91C415.99 282.25 413.8 279.91 413.11 277.04C412.725 274.534 413.347 271.978 414.84 269.93C416.23 267.98 418.25 266.41 419 264.14C419.75 261.87 419 259.28 419.12 256.83C419.239 254.12 420.406 251.563 422.374 249.698C424.343 247.832 426.958 246.804 429.67 246.83C432.19 246.83 434.6 247.83 437.03 248.47C439.469 249.273 442.101 249.273 444.54 248.47C447.17 247.428 449.878 246.599 452.64 245.99C457.36 245.09 463.64 245.54 466.2 250.24C466.898 251.377 467.204 252.712 467.07 254.04V254.21C466.35 257.86 462.18 259.39 459.72 261.59C459.05 262.19 457.91 263.08 457.8 264.06C457.69 265.04 458.72 266.14 459.28 266.92C460.71 268.92 462.57 270.74 463.18 273.19C464.06 276.71 461.75 280.69 459.06 282.78C456.398 284.667 453.302 285.85 450.06 286.22C448.46 286.46 446.7 286.65 445.58 287.82C445.125 288.358 444.787 288.986 444.589 289.663C444.391 290.34 444.337 291.051 444.43 291.75C444.52 293.16 444.92 294.53 445.05 295.93C445.202 298.162 444.751 300.394 443.745 302.392C442.738 304.391 441.214 306.082 439.33 307.29C436.175 309.24 432.398 309.922 428.76 309.2C425.76 308.65 422.76 305.77 421.67 302.96C420.421 299.687 419.627 296.258 419.31 292.77Z" fill="#09ADF4"/>
<path d="M422.01 300.66C421.94 300.665 421.868 300.656 421.801 300.633C421.734 300.61 421.673 300.573 421.62 300.526C421.568 300.478 421.526 300.42 421.496 300.355C421.467 300.291 421.451 300.221 421.45 300.15C419.72 266.54 450.81 251.55 458.6 249.64C458.738 249.609 458.882 249.632 459.003 249.705C459.124 249.777 459.213 249.894 459.25 250.03C459.284 250.168 459.262 250.313 459.189 250.435C459.116 250.556 458.998 250.644 458.86 250.68C451.24 252.55 420.86 267.21 422.51 300.1C422.516 300.24 422.467 300.376 422.374 300.481C422.28 300.585 422.15 300.649 422.01 300.66Z" fill="white"/>
<path d="M453.11 273.34C453.003 273.354 452.894 273.333 452.8 273.28C448.956 271.645 444.798 270.88 440.623 271.037C436.449 271.194 432.361 272.271 428.65 274.19C428.584 274.221 428.513 274.24 428.44 274.244C428.368 274.248 428.295 274.237 428.226 274.213C428.158 274.189 428.094 274.151 428.04 274.103C427.986 274.054 427.942 273.995 427.91 273.93C427.879 273.864 427.86 273.793 427.856 273.72C427.852 273.648 427.863 273.575 427.887 273.506C427.911 273.437 427.948 273.374 427.997 273.32C428.046 273.266 428.104 273.221 428.17 273.19C432.031 271.195 436.286 270.08 440.629 269.924C444.972 269.769 449.296 270.576 453.29 272.29C453.415 272.356 453.509 272.468 453.552 272.603C453.595 272.738 453.584 272.884 453.52 273.01C453.486 273.096 453.431 273.171 453.359 273.229C453.287 273.287 453.201 273.325 453.11 273.34V273.34Z" fill="white"/>
<path d="M66.4601 262.48C67.6701 254.74 67.1901 241.42 61.2101 227.43C54.8101 212.43 45.2101 201.73 35.7401 203.43C26.9301 204.98 27.3101 216.71 38.4301 230.87C46.2301 240.8 55.1501 252.03 57.6401 265.29L61.3801 283.69L66.4601 262.48Z" fill="#09ADF4"/>
<g opacity="0.15">
<path d="M66.4601 262.48C67.6701 254.74 67.1901 241.42 61.2101 227.43C54.8101 212.43 45.2101 201.73 35.7401 203.43C26.9301 204.98 27.3101 216.71 38.4301 230.87C46.2301 240.8 55.1501 252.03 57.6401 265.29L61.3801 283.69L66.4601 262.48Z" fill="black"/>
</g>
<path d="M64.2999 268.09C64.19 268.061 64.0913 268 64.0164 267.914C63.9416 267.829 63.894 267.723 63.8799 267.61C61.2899 244.71 50.4699 219.61 38.7299 209.14C38.6278 209.034 38.5708 208.892 38.5708 208.745C38.5708 208.598 38.6278 208.456 38.7299 208.35C38.7803 208.297 38.8408 208.255 38.9078 208.227C38.9749 208.198 39.047 208.183 39.1199 208.183C39.1927 208.183 39.2649 208.198 39.3319 208.227C39.3989 208.255 39.4595 208.297 39.5099 208.35C51.4399 218.94 62.4099 244.35 65.0299 267.52C65.0396 267.593 65.0346 267.667 65.0151 267.738C64.9955 267.809 64.9619 267.876 64.9162 267.934C64.8705 267.992 64.8136 268.04 64.749 268.075C64.6843 268.11 64.6132 268.132 64.5399 268.14L64.2999 268.09Z" fill="white"/>
<path d="M56.71 303.68C56.09 303.89 55.43 304 54.71 304.23C51.5763 305.277 48.3249 305.932 45.03 306.18C38.57 306.56 31.77 305.18 26.6 301.11C25.53 300.28 24.45 299.04 24.8 297.74C25.06 296.74 26.03 296.15 26.92 295.65L39.81 288.48L24.04 289.71C23.0109 289.865 21.9605 289.797 20.96 289.51C19.6494 288.878 18.5918 287.821 17.96 286.51C16.8266 284.598 15.9618 282.538 15.39 280.39C15.08 279.21 14.92 277.77 15.79 276.91C16.2425 276.525 16.781 276.254 17.36 276.12C22.8074 274.428 28.4246 273.342 34.11 272.88C28.67 270.77 22.78 270.5 17.03 270.05C16.6173 270.048 16.2092 269.963 15.83 269.8C14.92 269.34 14.68 268.17 14.59 267.16C14 260.51 15.71 253.72 16.38 247.16C16.6 245.02 16.84 245.1 18.81 245.37C27.71 246.61 35.97 248.99 44.62 251.21C45.6156 251.356 46.5377 251.819 47.25 252.53C47.5571 253.029 47.7613 253.584 47.8506 254.162C47.9399 254.741 47.9125 255.332 47.77 255.9C47.3258 259.156 46.3531 262.318 44.89 265.26C47.3703 263.13 49.4088 260.534 50.89 257.62C51.1631 256.871 51.6857 256.239 52.37 255.83C52.8226 255.722 53.294 255.721 53.7469 255.827C54.1999 255.933 54.6221 256.143 54.98 256.44C66.51 263.72 66.63 278.01 64.33 289.97C64.22 290.56 64.1 291.15 63.98 291.74C63.6015 294.165 62.7668 296.496 61.52 298.61C60.6331 300.123 59.5615 301.521 58.33 302.77C57.866 303.192 57.312 303.503 56.71 303.68Z" fill="#09ADF4"/>
<path d="M55.9999 305.28C55.902 305.243 55.8163 305.18 55.7527 305.096C55.6891 305.013 55.65 304.914 55.6399 304.81C54.0499 286.5 33.1399 258.02 23.9399 252.33C23.8779 252.292 23.8241 252.242 23.7815 252.184C23.7389 252.125 23.7083 252.058 23.6916 251.988C23.6748 251.917 23.6723 251.844 23.684 251.772C23.6957 251.7 23.7215 251.632 23.7599 251.57C23.84 251.446 23.965 251.358 24.1086 251.325C24.2522 251.291 24.4032 251.315 24.5299 251.39C33.8799 257.17 55.1299 286.11 56.7499 304.71C56.7567 304.783 56.7489 304.857 56.7268 304.927C56.7047 304.997 56.6689 305.062 56.6213 305.118C56.5738 305.173 56.5156 305.219 56.4501 305.252C56.3846 305.285 56.3131 305.305 56.2399 305.31C56.1586 305.32 56.0762 305.31 55.9999 305.28V305.28Z" fill="white"/>
<path d="M283.36 79.9001C281.47 78.7501 278.92 78.0601 277.07 77.2001C275.68 76.5501 273.84 76.0201 273.31 74.4101C273.116 73.717 273.022 72.9998 273.03 72.2801C273.038 71.5658 272.923 70.8554 272.69 70.1801C272.422 69.697 272.204 69.1877 272.04 68.6601C271.993 67.982 272.085 67.3015 272.31 66.6601C272.448 66.0317 272.392 65.3762 272.15 64.7801C271.92 64.0977 271.878 63.3659 272.03 62.6618C272.181 61.9578 272.52 61.3077 273.01 60.7801C273.292 60.5235 273.546 60.2387 273.77 59.9301C274.18 59.2501 274.01 58.3701 274.22 57.6001C275.13 54.1701 281.13 56.9201 282.99 58.0101C283.52 58.3201 286.17 59.7801 287.35 60.4901C287.665 58.5487 288.275 56.6669 289.16 54.9101C290.76 51.4801 294.7 50.8501 294.44 53.0801C293.97 55.5239 293.783 58.0135 293.88 60.5001C293.972 62.5213 294.25 64.5298 294.71 66.5001C295.4 69.8782 296.428 73.1782 297.78 76.3501C300.24 82.1401 312.36 99.0801 312.36 99.0801C318.36 95.6501 336.87 84.6901 344.23 80.2301C352.29 75.3401 361.72 77.0001 361.72 77.0001L346.65 100.17C346.65 100.17 323.55 112.53 316.21 116.52C310.21 119.79 305.41 121.06 301.13 112.82C294.48 100.06 286.65 82.5001 283.36 79.9001Z" fill="#FFA8A7"/>
<path d="M285.65 61.22C287.5 62.08 287.87 63.42 287.47 66.22C287.23 67.86 287.33 70.96 288.97 72.41C288.117 72.2081 287.346 71.7511 286.76 71.1C286.03 70.1 285.81 70 285.28 70.44C284.885 70.7225 284.43 70.9107 283.95 70.99C284.21 71.374 284.338 71.8318 284.317 72.2949C284.295 72.7581 284.124 73.2018 283.83 73.56C282.83 74.88 278.93 74.43 275.98 72.4C275.98 72.4 280.9 74.64 282.3 73.16C283.7 71.68 281.23 69.29 279.3 68.48C279.3 68.48 284.1 70.29 285.06 68.76C286.02 67.23 284.13 65.76 281.31 64.63C281.31 64.63 285.31 65.89 286.19 64.63C287.18 62.98 286.07 61.85 285.65 61.22Z" fill="#F28F8F"/>
<path d="M364.12 68.5501H371.12C374.213 68.5488 377.275 67.938 380.132 66.7525C382.989 65.5671 385.584 63.8302 387.769 61.6413C389.954 59.4524 391.687 56.8542 392.867 53.9954C394.048 51.1366 394.654 48.0731 394.65 44.9801V44.9801C394.658 37.8086 391.819 30.9271 386.756 25.8476C381.693 20.7681 374.821 17.906 367.65 17.8901V17.8901C364.257 17.8531 360.893 18.515 357.767 19.8346C354.641 21.1541 351.82 23.1031 349.48 25.5601L349.01 62.4901C349.01 62.4901 358.07 68.5501 364.12 68.5501Z" fill="#263238"/>
<path d="M380.23 21.52L379.13 14.22C378.645 14.2685 378.175 14.4154 377.749 14.6518C377.323 14.8882 376.95 15.2091 376.652 15.5948C376.355 15.9805 376.139 16.4229 376.018 16.8949C375.897 17.367 375.874 17.8587 375.95 18.34C376.117 19.3188 376.656 20.1955 377.453 20.7877C378.25 21.38 379.244 21.6422 380.23 21.52V21.52Z" fill="#263238"/>
<path d="M394.38 29.51C390.45 33.03 387.1 30.28 383.6 26.33C380.1 22.38 377.75 18.74 381.65 15.23C383.544 13.5472 386.028 12.6856 388.557 12.8347C391.086 12.9838 393.452 14.1314 395.135 16.025C396.818 17.9187 397.679 20.4032 397.53 22.9322C397.381 25.4611 396.234 27.8272 394.34 29.51H394.38Z" fill="#263238"/>
<path d="M425.65 306.68C424.73 308.59 425.21 310.97 425.14 316.15C425.2 319.559 425.06 322.968 424.72 326.36C424.56 327.57 424.17 328.67 423.91 329.85C423.741 330.789 423.262 331.645 422.55 332.28C422.244 332.568 421.874 332.777 421.47 332.89C421.066 333.003 420.64 333.017 420.23 332.93C419.911 332.83 419.616 332.667 419.362 332.45C419.108 332.234 418.9 331.969 418.75 331.67C418.196 330.529 417.754 329.337 417.43 328.11C416.43 336.77 407.07 342.77 412.79 344.91C414.801 345.638 416.938 345.954 419.073 345.839C421.209 345.723 423.299 345.18 425.22 344.24C426.812 343.457 428.187 342.293 429.22 340.85C431.42 337 431.22 333.34 431.22 330.03C431.29 322.71 432.49 318.93 433.08 315.27C433.83 310.84 427.07 306.01 425.65 306.68Z" fill="#263238"/>
<path d="M362.9 305.83C363.063 305.873 363.209 305.967 363.315 306.098C363.421 306.229 363.483 306.391 363.49 306.56C363.65 307.56 363.84 309.36 364.17 311.02C364.61 313.23 365.08 316.42 364.72 318.2C364.36 319.98 361.96 321.7 357.46 322.97C353.925 324.08 350.618 325.817 347.7 328.1C344.99 330.57 339.2 332.63 335.28 332.74C330.69 332.88 325.9 331.65 324.8 328.34C324.33 326.94 326.61 325.42 332.49 322.6C332.49 322.6 335.49 321.03 337.15 319.97C345.64 314.62 348.53 311.59 351.01 306.13L362.9 305.83Z" fill="#263238"/>
<path d="M347.81 310.62C350.52 307.69 351.03 304.87 350.67 299.43C350.31 293.99 346.02 246.63 344.92 234.78C343.07 214.86 345.08 158.27 346.73 144.45L398.38 148.55C402.23 158.19 405.05 170.07 404.45 188.7C403.98 202.91 404.3 241.46 404.3 241.46C404.3 241.46 410.76 247.12 415.38 258.31C419.45 268.2 424.14 302.31 424.14 302.31C424.549 303.79 425.067 305.237 425.69 306.64C426.85 308.056 427.517 309.811 427.59 311.64C427.589 317.543 426.962 323.429 425.72 329.2C425.423 330.608 424.761 331.912 423.798 332.981C422.836 334.051 421.608 334.847 420.24 335.29C419.583 335.565 418.871 335.684 418.16 335.64C417.792 335.634 417.438 335.5 417.16 335.26C416.66 334.76 417.16 333.56 417.21 332.96C417.365 331.997 417.455 331.025 417.48 330.05C417.54 328.13 417.48 325.79 417.35 323.87C417.103 319.568 416.416 315.302 415.3 311.14L414.3 308.68C414.3 308.68 391.3 262.19 384.8 250.86C379.61 241.96 376.17 207.45 372.5 188.58L367.12 233.68C367.12 233.68 368.99 241.82 369.7 248.05C370.7 256.42 364.75 289.21 362.99 300.87C362.658 303.032 362.631 305.23 362.91 307.4V307.4C362.28 312.45 358.5 314.01 354.59 316.87C352.59 318.29 344.09 323.49 338.92 324.54C334.72 325.39 333.11 323.76 332.53 322.54C338.05 319.147 343.175 315.149 347.81 310.62V310.62Z" fill="#FFA8A7"/>
<path d="M388.5 129.77C388.5 129.77 393.16 135.47 400.41 149.84C405.28 159.48 405.59 194.84 405.59 194.84C405.59 194.84 401.35 204.5 374.59 202.9L372.59 190.9L370.88 202.62L368.88 202.42C345.88 199.94 341.54 194.72 341.54 194.72C341.54 194.72 343.2 153.64 348.21 130.32C356.03 135.85 379.15 137.16 388.5 129.77Z" fill="#455A64"/>
<path d="M372.65 190.93L367.54 171.03C367.54 171.03 357.65 169.97 349.96 164.34C349.96 164.34 351.54 171.61 365.14 173.76L370.98 193.28L370.92 202.68L372.65 190.93Z" fill="#263238"/>
<path d="M392 196.28C401.51 194.01 405.29 190.09 405.29 190.09L405.6 194.78C405.6 194.78 401.36 204.44 374.6 202.84L373.72 197.51C379.84 198.071 386.01 197.656 392 196.28Z" fill="#37474F"/>
<path d="M341.57 194.75C341.57 194.75 341.65 192.85 341.82 189.61C346.422 191.984 351.303 193.772 356.35 194.93C361.407 196.082 366.552 196.815 371.73 197.12L370.92 202.65L368.92 202.45C345.88 199.97 341.57 194.75 341.57 194.75Z" fill="#37474F"/>
<path d="M342.95 95.3401C348.11 87.3401 358.39 79.7501 361.72 77.1001L379.3 77.2401C381.72 77.3601 385.3 77.6601 386.6 77.8701C387.756 78.0633 388.876 78.4344 389.92 78.9701C393.97 81.1301 394.38 85.1401 394.52 89.9001C394.67 95.1101 394.7 97.4001 393.26 106.02L390.65 117.02L390.25 118.7C390.18 118.99 390.12 119.28 390.05 119.58C389.046 123.79 389.593 128.221 391.59 132.06C396.03 140.57 400.49 147.18 401.97 154.33C399.751 153.375 397.743 151.992 396.06 150.26C393.2 147.51 391.47 146.26 389.18 142.98C383.65 153.67 353.95 162.78 344.65 146.22C344.65 146.22 347.5 131.94 347.98 127.15C347.25 123 345.09 115.81 345.04 114.23C339.1 108.9 339.2 101.1 342.95 95.3401Z" fill="#09ADF4"/>
<path opacity="0.1" d="M354.38 113.34C354.38 113.34 360.75 118.99 368.58 116.77C370.774 116.222 372.789 115.118 374.432 113.564C376.075 112.01 377.29 110.06 377.96 107.9C377.96 107.9 378.21 116.73 368.36 119.1C358.86 121.39 354.38 113.34 354.38 113.34Z" fill="black"/>
<path d="M345.05 52.61C345.93 65.82 349.05 69.43 352.39 70.39C354.64 71.03 358.68 70.75 362.7 70.09V78.03C362.7 78.03 358.06 82.91 358.41 86.55C358.76 90.19 365.71 90.61 370.92 87.04C373.788 85.058 376.381 82.7041 378.63 80.04C379.066 79.5304 379.304 78.8807 379.3 78.21V59.54C379.3 59.54 381.5 61.88 385.41 59.2C386.253 58.6613 386.975 57.9533 387.53 57.1209C388.085 56.2885 388.461 55.3499 388.634 54.3645C388.807 53.3791 388.773 52.3686 388.535 51.3969C388.297 50.4252 387.859 49.5136 387.25 48.72C385.56 46.72 381.25 46.58 379.17 49.72C378 52 377.84 54.3 376.54 53.35C373.06 50.84 375.25 43.42 371.05 40.6C369.023 39.2586 366.912 38.0494 364.73 36.98C357.24 34.39 352.44 35.65 350.88 30.52C345.65 32.52 344.07 38.03 345.05 52.61Z" fill="#FFA8A7"/>
<path d="M360.31 50.34C360.309 50.6886 360.409 51.0299 360.6 51.3216C360.791 51.6134 361.063 51.8427 361.383 51.9812C361.703 52.1197 362.056 52.1612 362.399 52.1007C362.743 52.0401 363.061 51.8801 363.314 51.6405C363.567 51.4009 363.744 51.0923 363.823 50.7529C363.903 50.4135 363.881 50.0582 363.76 49.7313C363.639 49.4043 363.425 49.12 363.144 48.9135C362.863 48.7071 362.528 48.5877 362.18 48.57C361.698 48.5592 361.231 48.7391 360.881 49.0705C360.531 49.4019 360.326 49.8582 360.31 50.34Z" fill="#263238"/>
<path d="M347.33 49.84C347.313 50.0646 347.342 50.2903 347.413 50.5041C347.484 50.7178 347.597 50.9154 347.744 51.0854C347.892 51.2555 348.072 51.3946 348.274 51.495C348.475 51.5953 348.695 51.6548 348.92 51.67C349.146 51.6871 349.374 51.6561 349.587 51.579C349.801 51.502 349.996 51.3806 350.159 51.2229C350.323 51.0652 350.451 50.8747 350.535 50.6639C350.62 50.4531 350.659 50.2269 350.65 50C350.666 49.7758 350.638 49.5507 350.566 49.3375C350.495 49.1244 350.382 48.9275 350.234 48.7582C350.087 48.589 349.907 48.4507 349.705 48.3515C349.503 48.2522 349.284 48.1939 349.06 48.18C348.612 48.1771 348.181 48.3489 347.858 48.6589C347.535 48.9688 347.345 49.3925 347.33 49.84V49.84Z" fill="#263238"/>
<path d="M355.61 48.1799L355.32 59.3099L349.47 57.4999L355.61 48.1799Z" fill="#F28F8F"/>
<path d="M362.71 70.08C366.96 69.53 375.71 67.01 377.06 63.55C376.51 65.2984 375.438 66.837 373.99 67.9601C371.38 70.2101 362.71 72.73 362.71 72.73V70.08Z" fill="#F28F8F"/>
<path d="M361.7 44.34L365.86 46.16C366.104 45.5847 366.114 44.9369 365.888 44.3543C365.662 43.7717 365.218 43.3001 364.65 43.04C364.372 42.9217 364.072 42.8616 363.77 42.8636C363.468 42.8655 363.17 42.9294 362.893 43.0512C362.617 43.173 362.368 43.3502 362.163 43.5719C361.958 43.7936 361.8 44.055 361.7 44.34Z" fill="#263238"/>
<path d="M364.99 59.02L356.81 61.88C356.973 62.4253 357.245 62.932 357.608 63.3699C357.972 63.8077 358.42 64.1677 358.926 64.4282C359.433 64.6887 359.986 64.8444 360.554 64.8859C361.121 64.9275 361.691 64.854 362.23 64.67C362.789 64.4903 363.306 64.1995 363.75 63.8151C364.194 63.4307 364.556 62.9605 364.813 62.4329C365.071 61.9052 365.22 61.3309 365.25 60.7445C365.28 60.158 365.192 59.5715 364.99 59.02V59.02Z" fill="#B16668"/>
<path d="M363.99 61.18C363.016 61.18 362.082 61.5646 361.391 62.2502C360.7 62.9357 360.308 63.8666 360.3 64.84C360.948 64.9097 361.604 64.852 362.23 64.67C362.975 64.436 363.642 64.0016 364.157 63.4143C364.672 62.827 365.015 62.1094 365.15 61.34C364.774 61.2258 364.382 61.1718 363.99 61.18V61.18Z" fill="#F28F8F"/>
<path d="M353.99 21.97C344.23 23.15 338.65 30.54 338.65 43.07H347.65C349.678 43.0664 351.637 42.3279 353.163 40.9913C354.689 39.6547 355.679 37.8104 355.95 35.8V35.8L356.28 43.07C357.949 43.0686 359.557 42.4412 360.787 41.3119C362.016 40.1825 362.777 38.6332 362.92 36.97L363.03 35.78C363.183 37.7625 364.079 39.6143 365.538 40.9656C366.997 42.3169 368.911 43.0684 370.9 43.07H371.7L372.62 30.07L353.99 21.97Z" fill="#263238"/>
<path d="M357.46 227.9C357.46 194.61 337.27 155.9 312.36 141.52C300.94 134.9 290.24 134.19 282.3 138.95L263.22 150.15L268.65 161.47C267.676 166.147 267.2 170.913 267.23 175.69C267.23 208.99 287.43 247.69 312.33 262.07C314.008 263.042 315.745 263.91 317.53 264.67L322.68 275.55L341.65 264.6C351.31 259.14 357.46 246.26 357.46 227.9Z" fill="#09ADF4"/>
<path d="M319.97 276.946C339.936 268.492 343.986 232.976 329.015 197.621C314.043 162.265 285.721 140.457 265.754 148.912C245.788 157.367 241.739 192.882 256.71 228.238C271.681 263.594 300.004 285.401 319.97 276.946Z" fill="#09ADF4"/>
<path opacity="0.1" d="M356.95 236.52C356.9 236.9 356.86 237.27 356.8 237.64C356.7 238.42 356.58 239.2 356.45 239.95C356.23 241.19 355.98 242.39 355.69 243.55C355.52 244.33 355.31 245.09 355.08 245.83C354.97 246.2 354.85 246.56 354.74 246.92C354.63 247.28 354.5 247.65 354.38 248C354.13 248.71 353.86 249.39 353.59 250.07L353.17 251.07C352.86 251.77 352.55 252.44 352.17 253.07L351.85 253.68C351.33 254.68 350.77 255.57 350.18 256.45L349.88 256.89L349.65 257.2C348.241 259.187 346.557 260.965 344.65 262.48L344.22 262.82C343.96 263.02 343.69 263.22 343.42 263.4L342.42 264.05C342.13 264.23 341.82 264.42 341.52 264.58L323.06 275.34C330.77 270.54 336.06 260.85 337.62 247.34C337.927 244.588 338.078 241.82 338.07 239.05C338.07 224.38 334.15 208.65 327.63 194.41L346.99 183.21C353.52 197.45 357.46 213.21 357.46 227.89C357.461 230.64 357.304 233.388 356.99 236.12C356.99 236.26 356.97 236.39 356.95 236.52Z" fill="black"/>
<path opacity="0.1" d="M357 236.12C356.85 237.43 356.67 238.71 356.45 239.95C356.23 241.19 355.98 242.39 355.69 243.55C355.5 244.33 355.29 245.09 355.08 245.83C354.97 246.2 354.85 246.56 354.74 246.92C354.63 247.28 354.5 247.65 354.38 248C354.13 248.71 353.86 249.39 353.59 250.07L353.17 251.07C352.86 251.77 352.55 252.44 352.17 253.07L351.85 253.68C351.33 254.68 350.77 255.57 350.18 256.45C350.01 256.71 349.84 256.96 349.65 257.2C348.241 259.187 346.557 260.965 344.65 262.48L344.22 262.82C343.96 263.02 343.69 263.22 343.42 263.4L342.42 264.05C342.13 264.23 341.82 264.42 341.52 264.58L323.06 275.34C330.77 270.54 336.06 260.85 337.62 247.34L357 236.12Z" fill="black"/>
<path opacity="0.4" d="M346.99 183.22L327.65 194.42C319.37 176.31 306.87 160.59 292.89 152.51C281.58 145.96 271.24 145.51 263.31 150.12L282.31 138.96C290.25 134.19 300.95 134.9 312.37 141.52C326.27 149.57 338.71 165.2 346.99 183.22Z" fill="white"/>
<path d="M323.96 230.26C323.96 239.55 321.54 247.07 317.47 251.93C311.8 258.73 303 260.39 293.14 254.65C283.28 248.91 274.42 237.01 268.75 223.65C264.68 214.06 262.26 203.76 262.26 194.46L323.96 230.26Z" fill="#37474F"/>
<path d="M317.47 251.93C311.8 258.73 303 260.39 293.14 254.65C283.28 248.91 274.42 237.01 268.75 223.65C275.07 219.09 283.69 219.03 293.14 224.48C302.59 229.93 311.15 239.97 317.47 251.93Z" fill="#F28F8F"/>
<path d="M305.55 197.61C305.55 202.37 308.05 207.68 311.14 209.47C314.23 211.26 316.73 208.84 316.73 204.08C316.73 199.32 314.23 194.01 311.14 192.22C308.05 190.43 305.55 192.85 305.55 197.61Z" fill="#37474F"/>
<path d="M270.18 177.14C270.18 181.9 272.68 187.21 275.77 188.99C278.86 190.77 281.36 188.37 281.36 183.61C281.36 178.85 278.85 173.54 275.77 171.75C272.69 169.96 270.18 172.34 270.18 177.14Z" fill="#37474F"/>
<path d="M329.46 157.1C327.625 157.048 325.792 157.222 324 157.62C320.28 158.3 316.71 158.77 313 157.41C310.88 156.63 308.39 154.91 308 152.47C307.61 150.03 310.27 149.24 311.92 148.35C314.188 147.108 316.552 146.052 318.99 145.19C323.08 143.743 327.503 143.517 331.72 144.54C333.89 145.05 336.8 145.75 338.94 144.74C340.39 144.05 341.81 143.22 343.23 142.49L354.4 136.72L369.79 128.77L376.87 98.2599C376.87 98.2599 378.52 85.7299 385.49 77.6799C390.78 78.1499 395.94 79.9799 397.13 83.2499C398.32 86.5199 397.49 91.0199 396.02 97.8599C394.55 104.7 386.92 126.86 383.95 134.78C382.59 138.4 381.95 139.92 377.13 142.01C370.023 145.11 362.897 148.177 355.75 151.21C352.04 152.78 348.34 154.35 344.62 155.89C342.28 156.89 339.92 157.98 337.35 158.11C334.78 158.24 332.13 157.25 329.46 157.1Z" fill="#FFA8A7"/>
<path d="M133.82 88.9801C133.82 88.9801 153.6 101.22 155.36 102.2C157.12 103.18 160.76 106.67 164.48 102.08C167.48 98.4001 187.83 67.0801 187.83 67.0801L177.03 61.8801L158.03 85.1701L129.43 64.8101L133.82 88.9801Z" fill="#FFA8A7"/>
<path d="M134.25 66.6601C140.65 71.7101 151.65 79.8701 151.65 79.8701C150.714 86.1183 147.781 91.8959 143.29 96.3401L132.13 89.4501L118.28 61.3801C118.28 61.3801 125.54 59.8201 134.25 66.6601Z" fill="#37474F"/>
<path d="M143.13 138.45C143.13 104.86 163.55 65.84 188.74 51.29C200.3 44.62 211.11 43.91 219.15 48.71L238.44 60.01L232.92 71.43C233.907 76.1486 234.387 80.9593 234.35 85.78C234.35 119.37 213.93 158.39 188.74 172.93C187.046 173.911 185.292 174.786 183.49 175.55L178.28 186.55L159.15 175.55C149.35 169.97 143.13 156.98 143.13 138.45Z" fill="#09ADF4"/>
<path d="M244.987 138.868C260.16 103.208 256.105 67.3405 235.93 58.7558C215.755 50.1712 187.099 72.1199 171.926 107.78C156.752 143.44 160.807 179.307 180.982 187.892C201.157 196.476 229.813 174.527 244.987 138.868Z" fill="#09ADF4"/>
<path opacity="0.1" d="M143.65 147.15L143.8 148.28C143.91 149.07 144.03 149.85 144.16 150.6C144.38 151.86 144.63 153.07 144.93 154.24C145.1 155.02 145.31 155.79 145.55 156.54C145.66 156.91 145.78 157.28 145.89 157.64C146 158 146.14 158.37 146.26 158.73C146.51 159.44 146.78 160.13 147.05 160.82C147.19 161.14 147.33 161.47 147.48 161.82C147.79 162.52 148.11 163.2 148.48 163.82L148.8 164.43C149.33 165.43 149.9 166.34 150.49 167.22C150.59 167.38 150.69 167.52 150.8 167.67L151.02 167.98C152.429 169.982 154.112 171.776 156.02 173.31L156.45 173.65C156.72 173.86 156.99 174.05 157.26 174.24C157.53 174.43 157.91 174.68 158.26 174.89C158.61 175.1 158.87 175.26 159.17 175.43L177.92 186.34C170.12 181.5 164.74 171.73 163.2 158.1C162.889 155.324 162.735 152.533 162.74 149.74C162.74 134.93 166.74 119.07 173.3 104.74L153.72 93.3401C147.11 107.71 143.13 123.59 143.13 138.42C143.129 141.193 143.286 143.965 143.6 146.72V146.72C143.65 146.88 143.65 147.01 143.65 147.15Z" fill="black"/>
<path opacity="0.1" d="M143.59 146.75C143.75 148.07 143.93 149.36 144.15 150.6C144.37 151.84 144.62 153.07 144.92 154.24C145.11 155.02 145.32 155.79 145.54 156.54C145.65 156.91 145.77 157.28 145.88 157.64C145.99 158 146.13 158.37 146.25 158.73C146.5 159.44 146.77 160.13 147.04 160.82C147.18 161.14 147.32 161.47 147.47 161.82C147.78 162.52 148.1 163.2 148.47 163.82L148.79 164.43C149.32 165.43 149.89 166.34 150.48 167.22C150.65 167.49 150.83 167.74 151.01 167.98C152.419 169.982 154.102 171.776 156.01 173.31L156.44 173.65C156.71 173.86 156.98 174.05 157.25 174.24C157.52 174.43 157.9 174.68 158.25 174.89C158.6 175.1 158.86 175.26 159.16 175.43L177.92 186.34C170.12 181.5 164.74 171.73 163.2 158.1L143.59 146.75Z" fill="black"/>
<path opacity="0.4" d="M153.72 93.3402L173.3 104.65C181.68 86.3702 194.3 70.5102 208.45 62.3502C219.89 55.7402 230.36 55.3502 238.37 59.9502L219.15 48.7102C211.15 43.9102 200.3 44.6202 188.74 51.3002C174.65 59.4202 162.09 75.1902 153.72 93.3402Z" fill="white"/>
<path d="M195.65 107.89C195.65 112.69 193.12 118.05 190 119.89C186.88 121.73 184.35 119.26 184.35 114.45C184.35 109.64 186.88 104.3 190 102.45C193.12 100.6 195.65 103.09 195.65 107.89Z" fill="#37474F"/>
<path d="M231.4 87.24C231.4 92.04 228.87 97.4 225.75 99.24C222.63 101.08 220.1 98.6001 220.1 93.8001C220.1 89.0001 222.63 83.64 225.75 81.8C228.87 79.96 231.4 82.43 231.4 87.24Z" fill="#37474F"/>
<path d="M197.76 164.12C195.425 164.128 193.111 163.676 190.95 162.79C184.53 160.18 179.6 153.79 177.07 144.67C176.952 144.296 176.911 143.902 176.949 143.511C176.986 143.12 177.102 142.741 177.289 142.396C177.476 142.051 177.73 141.747 178.037 141.502C178.344 141.257 178.697 141.076 179.075 140.971C179.453 140.865 179.848 140.836 180.237 140.886C180.627 140.936 181.002 141.063 181.341 141.261C181.68 141.459 181.976 141.722 182.211 142.037C182.446 142.351 182.616 142.709 182.71 143.09C184.71 150.38 188.46 155.45 193.17 157.37C197.17 159.01 201.97 158.37 206.99 155.45C218.99 148.51 229.91 130.36 234.15 110.28C234.31 109.519 234.766 108.853 235.418 108.428C236.07 108.003 236.864 107.855 237.625 108.015C238.386 108.176 239.052 108.632 239.477 109.284C239.902 109.935 240.05 110.729 239.89 111.49C235.25 133.44 223.49 152.69 209.89 160.49C206.235 162.743 202.051 163.994 197.76 164.12V164.12Z" fill="#37474F"/>
<path d="M173.52 147.03C172.229 147.07 170.947 146.803 169.78 146.25C169.274 145.953 168.903 145.472 168.744 144.907C168.585 144.343 168.65 143.739 168.927 143.221C169.204 142.704 169.67 142.314 170.228 142.133C170.786 141.952 171.392 141.994 171.92 142.25C173.678 142.708 175.542 142.527 177.18 141.74C178.566 141.147 179.796 140.242 180.774 139.096C181.753 137.949 182.453 136.592 182.82 135.13C182.988 134.552 183.379 134.064 183.907 133.774C184.435 133.485 185.057 133.417 185.635 133.585C186.213 133.753 186.701 134.145 186.99 134.673C187.28 135.2 187.348 135.822 187.18 136.4C186.395 139.432 184.63 142.119 182.159 144.043C179.689 145.967 176.651 147.021 173.52 147.04V147.03Z" fill="#37474F"/>
<path d="M232.17 113.24C230.875 113.282 229.588 113.011 228.42 112.45C227.914 112.153 227.543 111.672 227.384 111.108C227.225 110.543 227.291 109.939 227.567 109.422C227.844 108.904 228.31 108.514 228.868 108.333C229.426 108.152 230.032 108.194 230.56 108.45C232.318 108.908 234.182 108.727 235.82 107.94C237.208 107.35 238.439 106.446 239.418 105.299C240.397 104.152 241.096 102.793 241.46 101.33C241.628 100.752 242.02 100.264 242.547 99.9747C243.075 99.6849 243.697 99.6168 244.275 99.7852C244.853 99.9536 245.341 100.345 245.63 100.873C245.92 101.401 245.988 102.022 245.82 102.6C245.033 105.629 243.269 108.315 240.801 110.24C238.333 112.165 235.3 113.223 232.17 113.25V113.24Z" fill="#37474F"/>
<path d="M79.2001 331.57C78.8401 332.98 78.0901 336.99 70.6301 336.99C63.1701 336.99 58.9001 333.99 57.4301 330.15C55.9601 326.31 56.8001 323.55 56.9401 320.25C57.0801 316.95 54.6201 314.84 54.0801 313.05C53.2801 310.42 55.4701 306.8 55.4701 306.8L79.2001 331.57Z" fill="#263238"/>
<path d="M150.92 307.21C151.116 307.8 151.186 308.424 151.126 309.042C151.066 309.661 150.876 310.259 150.57 310.8C150.03 311.53 145.03 315.17 138.85 314.41C134.317 313.963 129.956 312.441 126.13 309.97C122.52 307.84 120.03 307.53 116.36 307.54C112.69 307.55 110.17 306.86 109.87 305.94C109.33 304.32 109.29 303.28 110.07 303.3L150.92 307.21Z" fill="#263238"/>
<path d="M58.0802 301.05C57.9502 304.89 69.6502 308.22 69.4002 303.34L73.4002 289.17L60.2802 287.78L58.0802 301.05Z" fill="#FFA8A7"/>
<path d="M112.65 292.04C116.34 294.68 119.74 295.04 124.07 292.84L126.25 269.64H110.34L112.65 292.04Z" fill="#FFA8A7"/>
<path d="M78.5 138.05C75.5 166.05 70.02 222.57 70.02 222.57C70.02 222.57 65.22 229.89 63.43 243.39C61.23 260.07 59.04 294.87 59.04 294.87C60.9771 296.031 63.1456 296.751 65.3921 296.981C67.6385 297.211 69.9081 296.944 72.04 296.2C72.04 296.2 90.75 245.11 94.21 228.7C97.21 214.37 102.58 184.95 102.58 184.95L109.27 224.95C107.527 231.299 106.798 237.883 107.11 244.46C107.43 252.17 111.05 281.35 111.05 281.35C112.13 284.54 122.14 284.35 125.36 282.26C125.36 282.26 130.48 233.26 131.16 225.11C132.05 214.45 133.7 138.01 133.7 138.01L78.5 138.05Z" fill="#37474F"/>
<path d="M102.56 184.95L106.29 167.73C106.29 167.73 114.64 165.83 120.6 161.05C120.6 161.05 118.42 166.54 109.27 170.74L105.46 186.87L108.74 222.25L102.56 184.95Z" fill="#263238"/>
<path d="M69.4003 303.34L69.8303 301.86C70.3203 302.35 70.2403 302.77 70.2503 304.09C70.2503 305.14 70.2503 306.15 70.3903 307.54C70.5682 309.356 70.9028 311.152 71.3903 312.91C72.3903 317 73.4403 318.64 76.3103 323.69C76.9903 324.88 78.6403 326.87 79.1303 328.17C79.6203 329.47 79.7603 331.82 78.2303 332.72C73.8703 335.3 67.1403 334.6 62.8703 332.59C61.2728 331.865 59.9173 330.697 58.9653 329.224C58.0132 327.75 57.5047 326.034 57.5003 324.28C57.5003 323.28 57.7203 322.21 57.7603 321.17C57.735 318.785 57.1311 316.441 56.0003 314.34C55.3397 313.126 54.8101 311.846 54.4203 310.52C53.8503 308.1 54.9803 305.67 55.9303 303.52C56.7403 301.65 57.6903 299.15 58.3303 299.44C58.3303 299.68 58.0803 301.08 58.0803 301.08C58.7403 302.08 60.8203 303.32 63.3103 303.8C64.9103 304.09 69.2303 304.57 69.4003 303.34Z" fill="#455A64"/>
<path d="M124.54 288C125.11 288 125.69 288.45 126.7 289.92C128.085 291.955 129.88 293.679 131.97 294.98C135.73 297.62 141.66 300.29 147.76 302.57C151.08 303.81 151.71 306.21 150.61 308.36C148.89 310.08 143.03 314.1 133.4 311.17C127.4 309.35 125.33 306.28 121.06 305.74C118.06 305.36 112.8 306.18 109.72 303.74C108.72 301.41 109.53 299.07 109.84 295.83C110.15 292.59 111.18 287.42 112.21 287.62L112.39 289.34C113.21 293.08 121.82 293.45 124.26 291L124.54 288Z" fill="#455A64"/>
<path d="M99.9503 60.3401C91.7703 60.3401 85.8403 60.7901 80.5503 61.9301C76.4103 62.8101 75.1003 69.7601 74.8303 74.3901C73.9403 89.3901 80.6503 117.34 80.6503 117.34L77.5203 143.34C84.5203 150.84 115.9 154.75 133.82 143.76C133.82 143.76 134.3 92.6101 133.82 83.9901C132.98 68.8201 126.47 61.5501 120.88 61.1201C120.88 61.0901 108.13 60.3401 99.9503 60.3401Z" fill="#09ADF4"/>
<path d="M92.48 14.25C92.48 14.25 88.19 14.84 86.62 18.07C85.25 20.88 85.74 27.67 87.62 35.07C89.5 42.47 91.16 46.92 92.23 48.97C92.9447 50.2295 94.115 51.1671 95.5 51.59L95.29 42.81L94.97 36.7C94.97 36.7 98.89 31.34 99.32 26.95C99.88 21.3 98.69 18.95 98.69 18.95L92.48 14.25Z" fill="#37474F"/>
<path d="M99.3999 22.7402C99.4039 25.9811 100.369 29.148 102.174 31.8401C103.978 34.5322 106.541 36.6285 109.537 37.8638C112.533 39.099 115.829 39.4176 119.006 38.7792C122.184 38.1409 125.1 36.5743 127.387 34.2777C129.674 31.9811 131.228 29.0578 131.853 25.8776C132.477 22.6975 132.145 19.4035 130.897 16.4125C129.649 13.4215 127.541 10.8679 124.842 9.07497C122.142 7.28202 118.971 6.33027 115.73 6.34016C111.391 6.35341 107.234 8.08774 104.173 11.1625C101.111 14.2372 99.3946 18.4011 99.3999 22.7402V22.7402Z" fill="#37474F"/>
<path d="M95.1503 35.72C93.6703 36.99 92.4803 33.72 91.2303 32.4C89.9803 31.08 85.9503 29.4 83.9503 33.6C81.9503 37.8 85.8003 43.81 88.8203 45.22C93.2503 47.27 95.2403 42.8 95.2403 42.8L95.7103 61.26C103.28 72.73 120.88 70.4 113.54 61.98V55.98C113.54 55.98 118.54 56.71 120.92 56.33C124.92 55.7 127.05 52.66 128.26 48.33C130.2 41.33 130.15 30.66 127.46 17.05C122.95 13.57 108.14 13.05 98.6803 19.05C99.3303 31.05 96.6503 34.44 95.1503 35.72Z" fill="#FFA8A7"/>
<path d="M130.5 6.25009C130.449 6.13035 130.368 6.02591 130.265 5.94701C130.161 5.86812 130.039 5.81748 129.91 5.80009C129.705 5.8156 129.511 5.9002 129.36 6.04009C128.232 6.94074 127.031 7.74681 125.77 8.45009C126.105 6.83918 126.125 5.17873 125.83 3.56009C125.66 2.56009 125.38 0.270089 124.15 0.0200891C123.42 -0.119911 122.78 0.490089 122.23 1.02009C117.31 5.63009 110.88 3.49009 104.95 3.68009C99.9503 3.84009 94.0103 5.86009 91.7703 10.6801C90.7703 12.8901 90.5703 15.2101 92.5903 16.7401C94.3899 17.9448 96.4431 18.7182 98.5903 19.0001C108.47 20.7201 121.77 24.1001 129.08 14.8901C130.179 13.5987 130.874 12.0131 131.08 10.3301C131.263 8.96684 131.055 7.57982 130.48 6.33009C130.495 6.30604 130.502 6.27816 130.5 6.25009V6.25009Z" fill="#263238"/>
<path d="M113.5 55.97C113.5 55.97 104.5 54.18 101.35 52.52C99.5024 51.5634 97.9864 50.0718 97 48.24C97.4719 50.0907 98.3158 51.8259 99.48 53.34C101.79 56.27 113.48 58.4 113.48 58.4L113.5 55.97Z" fill="#F28F8F"/>
<path d="M111.17 33.5502C111.158 33.9054 111.042 34.2492 110.837 34.5389C110.631 34.8286 110.344 35.0512 110.012 35.179C109.681 35.3069 109.319 35.3343 108.972 35.2578C108.625 35.1813 108.308 35.0044 108.061 34.749C107.814 34.4936 107.647 34.1712 107.582 33.8218C107.517 33.4724 107.556 33.1116 107.695 32.7844C107.833 32.4571 108.065 32.1779 108.361 31.9815C108.657 31.7852 109.005 31.6804 109.36 31.6802C109.602 31.6828 109.841 31.7333 110.064 31.829C110.286 31.9246 110.487 32.0634 110.656 32.2373C110.824 32.4113 110.956 32.6168 111.044 32.8422C111.133 33.0676 111.176 33.3082 111.17 33.5502V33.5502Z" fill="#263238"/>
<path d="M109.24 26.7502L105.39 28.8902C105.114 28.3624 105.052 27.7485 105.218 27.1764C105.384 26.6044 105.765 26.1185 106.28 25.8202C106.534 25.6823 106.814 25.5969 107.102 25.5691C107.39 25.5413 107.681 25.5717 107.957 25.6584C108.233 25.7451 108.489 25.8865 108.709 26.074C108.93 26.2616 109.11 26.4915 109.24 26.7502V26.7502Z" fill="#263238"/>
<path d="M110.21 43.25L119.41 46.66C119.214 47.2787 118.896 47.8513 118.473 48.3436C118.05 48.8358 117.532 49.2374 116.95 49.5242C116.368 49.811 115.734 49.9771 115.086 50.0125C114.438 50.0478 113.79 49.9518 113.18 49.73C111.943 49.2434 110.943 48.2967 110.389 47.0885C109.836 45.8803 109.771 44.5045 110.21 43.25V43.25Z" fill="#B16668"/>
<path d="M127.22 28.1901L123.65 25.5001C123.815 25.2621 124.026 25.06 124.272 24.9062C124.517 24.7523 124.791 24.6498 125.077 24.605C125.363 24.5601 125.655 24.5737 125.936 24.6451C126.217 24.7164 126.48 24.844 126.71 25.0201C127.185 25.3823 127.503 25.9132 127.598 26.5032C127.693 27.0932 127.558 27.6971 127.22 28.1901V28.1901Z" fill="#263238"/>
<path d="M126.15 32.9901C126.136 33.3424 126.019 33.6829 125.814 33.9693C125.608 34.2558 125.323 34.4756 124.994 34.6014C124.665 34.7273 124.306 34.7537 123.961 34.6774C123.617 34.601 123.303 34.4253 123.058 34.172C122.813 33.9186 122.647 33.5989 122.582 33.2524C122.517 32.9059 122.555 32.548 122.692 32.223C122.828 31.8979 123.057 31.6201 123.35 31.4241C123.643 31.228 123.987 31.1223 124.34 31.1201C124.582 31.1227 124.821 31.1733 125.043 31.2689C125.266 31.3646 125.467 31.5034 125.635 31.6773C125.804 31.8512 125.936 32.0568 126.024 32.2821C126.112 32.5075 126.155 32.7481 126.15 32.9901V32.9901Z" fill="#263238"/>
<path d="M116.97 31.3101L117.59 42.1401L123.25 40.1901L116.97 31.3101Z" fill="#F28F8F"/>
<path d="M113.18 49.73C114.025 50.0416 114.941 50.1041 115.82 49.91C115.796 49.2396 115.611 48.5849 115.279 48.0017C114.948 47.4185 114.48 46.9241 113.917 46.5607C113.353 46.1973 112.709 45.9755 112.041 45.9145C111.373 45.8534 110.7 45.9548 110.08 46.21C110.27 47.0055 110.651 47.7424 111.192 48.3561C111.732 48.9698 112.415 49.4415 113.18 49.73V49.73Z" fill="#F28F8F"/>
<path d="M89.1703 134.08C84.7503 132.59 83.0103 131.72 80.9003 125.03C75.2803 107.24 70.2003 92.5702 69.1203 83.6502C67.0403 66.4002 73.9703 64.8302 79.2003 62.9502L86.4003 80.4402L97.0003 118.57C105.52 122.4 119.47 125.23 129.45 128.33C131.643 128.836 133.892 129.055 136.14 128.98C139.62 128.64 141.76 128.23 143.7 128.57C143.51 130 143.43 131.35 143.33 132.62C146.734 132.611 150.131 132.3 153.48 131.69C160.74 130.34 163.34 132.75 157.38 140.04C154.01 144.17 147.38 145.76 137.74 144.74C132.744 144.097 127.806 143.064 122.97 141.65C110.35 138.26 96.1203 136.41 89.1703 134.08Z" fill="#FFA8A7"/>
<path d="M80.55 61.8801C69.92 63.0401 65.46 72.4101 67.65 83.3401C69.22 91.1001 72.29 101.81 74.77 109.63C74.77 109.63 87.71 109.5 93.92 103.56C91.58 95.8801 91.2 94.2701 89.13 86.9901C88.37 72.4301 85.35 65.3401 80.55 61.8801Z" fill="#37474F"/>
<path d="M180.45 57.08C181.63 56.08 182.96 55.08 184.45 54.02C184.45 54.02 188.76 54.42 194 58.58C197.32 61.21 207.32 61.03 205.89 56.43C203.89 49.96 196.89 47.6 193.75 46.92C188.58 45.8 179.3 50.34 180.45 57.08Z" fill="#FFA8A7"/>
</g>
<defs>
<clipPath id="clip0_2446_5300">
<rect width="479.3" height="429.98" fill="white"/>
</clipPath>
</defs>
</svg>
