<svg width="404" height="392" viewBox="0 0 404 392" fill="none" xmlns="http://www.w3.org/2000/svg">
<g clip-path="url(#clip0_51_2)">
<path d="M157.64 9.50014L62.4502 133.17L318.45 69.5301L175.86 4.93014C172.754 3.52023 169.261 3.20451 165.952 4.03445C162.644 4.8644 159.713 6.79105 157.64 9.50014V9.50014Z" fill="#EBEBEB"/>
<path d="M61.1001 134.05L157.22 9.19003C159.364 6.38239 162.399 4.38822 165.827 3.53577C169.255 2.68333 172.871 3.0234 176.08 4.50003L320.08 69.73L61.1001 134.05ZM169.6 4.05003C167.364 4.05154 165.159 4.57051 163.157 5.56631C161.155 6.56212 159.41 8.00774 158.06 9.79003V9.79003L63.7901 132.3L316.85 69.39L175.65 5.39003C173.749 4.53283 171.686 4.09296 169.6 4.10003V4.05003Z" fill="#E0E0E0"/>
<path d="M62.4434 133.175L319.345 69.3126L353.956 208.545C354.641 211.302 354.203 214.218 352.739 216.651C351.274 219.085 348.903 220.837 346.146 221.522L110.032 280.217C107.276 280.903 104.36 280.465 101.926 279C99.4922 277.535 97.7399 275.164 97.0547 272.407L62.4434 133.175Z" fill="#F0F0F0"/>
<path d="M303.53 76.9402L214.53 167.87L80.0103 137.59L64.6203 66.2402C63.7686 62.5598 64.3973 58.6921 66.3708 55.4709C68.3443 52.2497 71.5046 49.933 75.1703 49.0202L269.77 0.650241C271.605 0.192573 273.512 0.101221 275.382 0.381415C277.252 0.66161 279.048 1.30785 280.668 2.28314C282.288 3.25843 283.7 4.54363 284.822 6.06517C285.945 7.5867 286.756 9.31469 287.21 11.1502L303.53 76.9402Z" fill="white"/>
<path d="M202.31 160.72L96.6201 271.16C96.9933 272.662 97.6588 274.076 98.5785 275.32C99.4982 276.565 100.654 277.616 101.98 278.414C103.306 279.211 104.777 279.74 106.307 279.969C107.838 280.199 109.398 280.124 110.9 279.75L345.2 221.5C348.231 220.746 350.839 218.819 352.45 216.143C354.06 213.468 354.543 210.261 353.79 207.23L353.57 206.35L215.37 157.6C213.124 156.806 210.696 156.678 208.38 157.232C206.063 157.785 203.955 158.997 202.31 160.72V160.72Z" fill="#E0E0E0"/>
<path d="M168.544 59.5533L92.4141 78.4922L94.3478 86.2653L170.477 67.3264L168.544 59.5533Z" fill="#E0E0E0"/>
<path d="M266.227 56.1797L97.3149 98.2002L99.4997 106.983L268.411 64.962L266.227 56.1797Z" fill="#E0E0E0"/>
<path d="M271.569 77.6358L102.658 119.656L104.843 128.439L273.754 86.4181L271.569 77.6358Z" fill="#E0E0E0"/>
<path d="M275.12 106.07L269.83 111.36L128.03 148.43L109.5 144.1L108.8 142.09L277.17 100.21L277.89 103.12L275.12 106.07Z" fill="#E0E0E0"/>
<path d="M238.85 143.019L174.96 158.899L155.44 154.439L250.91 130.689L238.85 143.019Z" fill="#E0E0E0"/>
<path d="M198.45 164.74C198.45 164.74 198.38 164.85 198.21 165.04L197.45 165.87L194.51 169.02L183.62 180.55C174.4 190.26 161.62 203.68 147.47 218.39C133.32 233.1 120.32 246.3 110.84 255.76C106.1 260.49 102.24 264.31 99.5603 266.92L96.4704 269.92L95.6503 270.69C95.5648 270.786 95.4674 270.87 95.3604 270.94C95.4342 270.836 95.5179 270.739 95.6104 270.65L96.3904 269.84L99.3904 266.77L110.56 255.5C119.97 245.97 132.9 232.74 147.08 218.02C161.26 203.3 174.08 190.02 183.33 180.29L194.33 168.88L197.33 165.8L198.13 165.01C198.35 164.82 198.45 164.74 198.45 164.74Z" fill="#FAFAFA"/>
<path d="M353.57 206.33C353.52 206.47 324.05 196.24 287.75 183.48C251.45 170.72 222.06 160.26 222.11 160.12C222.16 159.98 251.63 170.2 287.93 182.96C324.23 195.72 353.62 206.18 353.57 206.33Z" fill="#FAFAFA"/>
<path d="M307.76 72.5596C307.705 72.6487 307.641 72.7324 307.57 72.8096L307.01 73.4996L304.64 76.1296L295.81 85.7196C288.33 93.7896 277.91 104.85 266.23 116.92C254.55 128.99 243.77 139.76 235.95 147.5L226.64 156.62L224.08 159.07L223.41 159.7C223.25 159.84 223.17 159.91 223.16 159.9C223.224 159.814 223.294 159.734 223.37 159.66L224 158.99L226.49 156.47L235.67 147.23C243.43 139.42 254.1 128.6 265.78 116.54C277.46 104.48 287.92 93.4996 295.48 85.4996L304.43 76.0296L306.88 73.4696L307.53 72.8096C307.596 72.7171 307.673 72.6331 307.76 72.5596Z" fill="#FAFAFA"/>
<path d="M198.45 164.74C198.332 164.733 198.214 164.713 198.1 164.68L197.1 164.44L193.1 163.44C189.68 162.58 184.71 161.37 178.56 159.93C166.27 157.02 149.22 153.27 130.38 149.19C111.54 145.11 94.5002 141.3 82.2302 138.29C76.0902 136.79 71.1302 135.53 67.7202 134.61L63.7902 133.54L62.7902 133.25C62.6721 133.225 62.5578 133.185 62.4502 133.13L62.8002 133.2L63.8002 133.43L67.8002 134.43C71.2302 135.29 76.2002 136.49 82.3502 137.94C94.6402 140.85 111.68 144.6 130.53 148.68C149.38 152.76 166.41 156.57 178.68 159.58C184.82 161.08 189.78 162.33 193.19 163.26L197.11 164.33L198.11 164.62L198.45 164.74Z" fill="#FAFAFA"/>
<path d="M303.53 76.9399C303.53 76.9399 303.43 76.6099 303.26 75.9399L302.53 73.1099C301.89 70.5999 300.96 66.9299 299.76 62.1999L289.69 22.0799C289.157 19.9599 288.614 17.7899 288.06 15.5699C287.79 14.4699 287.51 13.3399 287.22 12.2099C287.08 11.6399 286.94 11.0699 286.76 10.5199C286.604 9.95834 286.403 9.40999 286.16 8.87987C285.169 6.63643 283.61 4.69012 281.637 3.23287C279.665 1.77563 277.346 0.857785 274.91 0.569869C273.646 0.39499 272.364 0.39499 271.1 0.569869C269.84 0.789869 268.56 1.13987 267.27 1.44987L259.42 3.44987L243.01 7.49987L170.1 25.6999L97.1003 43.8199L80.7103 47.8799L76.7103 48.8799C75.412 49.1496 74.1403 49.5345 72.9103 50.0299C70.5379 51.0582 68.4911 52.7143 66.9903 54.8199C66.264 55.8431 65.6725 56.9556 65.2303 58.1299C64.8179 59.2899 64.546 60.4952 64.4203 61.7199C64.1303 64.1699 64.8103 66.5299 65.2903 68.8599C66.2903 73.5265 67.2469 77.9965 68.1603 82.2699C71.8103 99.3599 74.7603 113.18 76.8003 122.75C77.8003 127.53 78.5903 131.23 79.1303 133.75C79.3803 135 79.5803 135.96 79.7203 136.62C79.8603 137.28 79.9003 137.62 79.9003 137.62C79.9003 137.62 79.8103 137.29 79.6603 136.62C79.5103 135.95 79.3003 135.01 79.0203 133.77C78.4603 131.24 77.6503 127.54 76.6003 122.77C74.5103 113.21 71.5003 99.3899 67.7803 82.3299C66.8603 78.0599 65.8803 73.5899 64.8703 68.9199C64.3903 66.6199 63.6903 64.1799 63.9903 61.6499C64.1053 60.3834 64.3808 59.1368 64.8103 57.9399C65.2671 56.7282 65.8753 55.5791 66.6203 54.5199C67.3779 53.4418 68.2835 52.4757 69.3103 51.6499C70.3385 50.7926 71.4875 50.0917 72.7203 49.5699C73.9715 49.0592 75.267 48.6642 76.5903 48.3899L80.5903 47.3899L97.0103 43.3299L170.01 25.1699L243.01 7.04987L259.4 2.98987L267.25 1.04987C268.54 0.729869 269.8 0.389869 271.12 0.159869C273.048 -0.128046 275.014 -0.0287117 276.902 0.45206C278.791 0.932831 280.565 1.78539 282.12 2.95987C284.099 4.45793 285.662 6.43734 286.66 8.70987C286.911 9.25599 287.118 9.82109 287.28 10.3999C287.46 10.9699 287.6 11.5399 287.74 12.1099C288.02 13.2399 288.29 14.3699 288.57 15.4799C289.12 17.6999 289.65 19.8699 290.18 21.9899L300.08 62.1799C301.23 66.9199 302.13 70.5999 302.74 73.1099C303.04 74.3599 303.27 75.3099 303.42 75.9599C303.57 76.6099 303.53 76.9399 303.53 76.9399Z" fill="#E0E0E0"/>
<path d="M404.01 390.5C404.01 390.65 313.57 390.77 202.01 390.77C90.4498 390.77 0.00976562 390.66 0.00976562 390.5C0.00976562 390.34 90.4398 390.22 202.01 390.22C313.58 390.22 404.01 390.36 404.01 390.5Z" fill="#263238"/>
<path d="M191.71 24.1602L181.83 31.6902L182.31 46.0702L173.25 38.8802L168.26 43.1602L149.25 19.7002L191.71 24.1602Z" fill="#0AAFF7"/>
<path d="M178.11 34.75C178.11 35.19 182.31 46.07 182.31 46.07L173.26 38.88L178.11 34.75Z" fill="#0AAFF7"/>
<g opacity="0.3">
<path d="M178.11 34.75C178.11 35.19 182.31 46.07 182.31 46.07L173.26 38.88L178.11 34.75Z" fill="black"/>
</g>
<path d="M149.25 19.7002L178.11 34.7502L182.31 46.0702L181.83 31.6902L149.25 19.7002Z" fill="#0AAFF7"/>
<path opacity="0.1" d="M149.25 19.7002L178.11 34.7502L182.31 46.0702L181.83 31.6902L149.25 19.7002Z" fill="black"/>
<path d="M229.26 213.72C227.482 213.661 225.736 213.235 224.13 212.47C225.908 212.529 227.654 212.954 229.26 213.72Z" fill="#263238"/>
<path d="M237.44 215.72C237.44 215.87 236.69 215.82 235.85 215.62C235.01 215.42 234.35 215.12 234.38 214.97C234.41 214.82 235.13 214.87 235.98 215.08C236.83 215.29 237.48 215.57 237.44 215.72Z" fill="#263238"/>
<path d="M203.68 44.1905C202.793 44.2034 201.911 44.0648 201.07 43.7805C200.189 43.6724 199.335 43.4047 198.55 42.9905C199.442 42.8734 200.348 42.9623 201.2 43.2505C202.091 43.3596 202.941 43.6821 203.68 44.1905V44.1905Z" fill="#263238"/>
<path d="M213.36 48.3405C211.682 47.79 210.095 46.9948 208.65 45.9805C209.543 46.0653 210.403 46.36 211.16 46.8405C212.47 47.5005 213.44 48.2105 213.36 48.3405Z" fill="#263238"/>
<path d="M221.75 54.7C221.64 54.81 220.75 54.06 219.63 53.12C218.51 52.18 217.63 51.38 217.76 51.25C218.613 51.5513 219.383 52.0478 220.01 52.7C221.1 53.66 221.86 54.6 221.75 54.7Z" fill="#263238"/>
<path d="M228.15 63.05C228.01 63.12 227.35 62.15 226.55 60.95C225.99 60.2623 225.55 59.4846 225.25 58.65C225.36 58.56 226.2 59.42 227.01 60.65C227.574 61.3486 227.965 62.1711 228.15 63.05V63.05Z" fill="#263238"/>
<path d="M231.78 72.9198C231.351 72.1443 231.053 71.3029 230.9 70.4298C230.566 69.6056 230.38 68.7288 230.35 67.8398C230.89 68.5597 231.257 69.3948 231.42 70.2798C231.756 71.1166 231.88 72.0236 231.78 72.9198Z" fill="#263238"/>
<path d="M232.32 83.4204C232.142 82.552 232.104 81.6606 232.21 80.7804C232.135 79.8964 232.216 79.0061 232.45 78.1504C232.755 78.9948 232.861 79.8983 232.76 80.7904C232.823 81.6895 232.672 82.5907 232.32 83.4204Z" fill="#263238"/>
<path d="M229.59 93.5606C229.697 92.6826 229.947 91.8281 230.33 91.0306C230.534 90.1731 230.871 89.3531 231.33 88.6006C231.379 89.5015 231.196 90.4 230.8 91.2106C230.596 92.0816 230.181 92.8889 229.59 93.5606Z" fill="#263238"/>
<path d="M223.48 102.1C223.38 101.98 224.16 101.1 225.11 100.02C226.06 98.94 226.82 98.02 226.95 98.13C226.666 98.9865 226.175 99.7595 225.52 100.38C224.55 101.5 223.58 102.21 223.48 102.1Z" fill="#263238"/>
<path d="M214.66 107.78C215.336 107.208 216.099 106.749 216.92 106.42C217.659 105.93 218.473 105.565 219.33 105.34C218.749 106.032 218.008 106.571 217.17 106.91C216.418 107.402 215.556 107.701 214.66 107.78Z" fill="#263238"/>
<path d="M204.4 109.99C205.237 109.682 206.119 109.517 207.01 109.5C207.875 109.301 208.767 109.244 209.65 109.33C208.865 109.775 207.982 110.019 207.08 110.04C206.197 110.251 205.274 110.234 204.4 109.99Z" fill="#263238"/>
<path d="M194.1 108.04C195.81 108.396 197.484 108.908 199.1 109.57C198.204 109.682 197.294 109.558 196.46 109.21C195.584 109.034 194.77 108.63 194.1 108.04Z" fill="#263238"/>
<path d="M186.8 100.801C186.95 100.751 187.41 101.801 188.23 102.981C189.05 104.161 189.84 104.981 189.73 105.131C189.62 105.281 188.64 104.531 187.78 103.301C187.175 102.605 186.829 101.722 186.8 100.801Z" fill="#263238"/>
<path d="M191.24 92.6102C191.24 92.7702 190.15 93.1202 189.01 93.9302C187.87 94.7402 187.26 95.7502 187.12 95.6702C186.98 95.5902 187.42 94.3902 188.69 93.4902C189.397 92.8829 190.309 92.5681 191.24 92.6102V92.6102Z" fill="#263238"/>
<path d="M200.28 96.3602C200.14 96.4402 199.5 95.4602 198.46 94.5002C197.42 93.5402 196.36 93.0602 196.46 92.9102C197.389 92.9834 198.255 93.4091 198.88 94.1002C199.598 94.6651 200.094 95.4655 200.28 96.3602V96.3602Z" fill="#263238"/>
<path d="M200.62 106.57C200.694 105.699 200.859 104.837 201.11 104C201.185 103.125 201.349 102.261 201.6 101.42C201.869 102.293 201.869 103.227 201.6 104.1C201.531 105.004 201.19 105.865 200.62 106.57V106.57Z" fill="#263238"/>
<path d="M193.77 114.42C193.68 114.29 194.59 113.54 195.68 112.61C196.77 111.68 197.68 110.88 197.75 110.98C197.82 111.08 197.17 112.06 196.04 112.98C194.91 113.9 193.85 114.55 193.77 114.42Z" fill="#263238"/>
<path d="M184.42 119.28C185.082 118.681 185.857 118.222 186.7 117.93C187.469 117.477 188.324 117.187 189.21 117.08C187.784 118.139 186.152 118.888 184.42 119.28V119.28Z" fill="#263238"/>
<path d="M175.01 124.06C174.93 123.93 175.88 123.22 177.14 122.46C177.875 121.947 178.716 121.605 179.6 121.46C179.68 121.61 178.66 122.22 177.41 122.94C176.696 123.475 175.879 123.856 175.01 124.06V124.06Z" fill="#263238"/>
<path d="M167.01 130.94C166.9 130.84 167.59 129.86 168.64 128.83C169.219 128.144 169.948 127.6 170.77 127.24C170.87 127.36 170.06 128.24 169.03 129.24C168 130.24 167.17 131.04 167.01 130.94Z" fill="#263238"/>
<path d="M161.01 139.561C161.178 138.678 161.548 137.846 162.09 137.131C162.86 135.881 163.65 134.981 163.77 135.071C163.511 135.92 163.101 136.716 162.56 137.421C161.8 138.651 161.15 139.631 161.01 139.561Z" fill="#263238"/>
<path d="M157.17 149.361C157.119 148.465 157.284 147.57 157.65 146.751C157.838 145.871 158.233 145.048 158.8 144.351C158.507 146.089 157.958 147.774 157.17 149.351V149.361Z" fill="#263238"/>
<path d="M155.79 159.8C155.427 158.047 155.552 156.228 156.15 154.54C156.302 155.413 156.302 156.307 156.15 157.18C156.185 158.068 156.063 158.955 155.79 159.8V159.8Z" fill="#263238"/>
<path d="M157.17 170.231C156.721 169.457 156.439 168.599 156.34 167.711C156.046 166.86 155.971 165.948 156.12 165.061C156.507 165.861 156.764 166.719 156.88 167.601C157.157 168.448 157.256 169.343 157.17 170.231Z" fill="#263238"/>
<path d="M161.24 179.93C161.11 180.01 160.4 179.05 159.75 177.73C159.268 176.971 158.976 176.106 158.9 175.21C159.476 175.886 159.93 176.658 160.24 177.49C160.714 178.238 161.052 179.064 161.24 179.93V179.93Z" fill="#263238"/>
<path d="M167.56 188.36C167.46 188.46 166.56 187.7 165.56 186.58C164.916 185.952 164.424 185.186 164.12 184.34C164.25 184.24 165.04 185.12 165.98 186.22C166.92 187.32 167.67 188.25 167.56 188.36Z" fill="#263238"/>
<path d="M175.68 195.06C174.811 194.827 174.009 194.392 173.34 193.79C172.16 192.93 171.34 192.07 171.42 191.95C172.246 192.283 173.007 192.756 173.67 193.35C174.83 194.2 175.76 194.93 175.68 195.06Z" fill="#263238"/>
<path d="M185.18 199.6C184.28 199.594 183.395 199.371 182.6 198.95C181.733 198.707 180.939 198.254 180.29 197.63C181.166 197.759 182.014 198.033 182.8 198.44C183.65 198.698 184.453 199.089 185.18 199.6Z" fill="#263238"/>
<path d="M190.47 200.95C190.47 201.09 190.38 201.21 190.33 201.2C190.28 201.19 190.26 201.06 190.33 200.91C190.4 200.76 190.42 200.65 190.47 200.66C190.52 200.67 190.5 200.8 190.47 200.95Z" fill="#263238"/>
<path d="M182.824 174.762L171.889 171.171L169.655 177.973L180.59 181.565L182.824 174.762Z" fill="#0AAFF7"/>
<g opacity="0.3">
<path d="M182.824 174.762L171.889 171.171L169.655 177.973L180.59 181.565L182.824 174.762Z" fill="black"/>
</g>
<path d="M182.8 174.781C180.755 175.806 178.636 176.675 176.46 177.381L176.27 177.451L176.15 177.291L175.96 177.051C174.443 175.206 173.075 173.243 171.87 171.181C173.519 172.91 175.033 174.762 176.4 176.721L176.58 176.961L176.27 176.871C178.387 176 180.571 175.301 182.8 174.781Z" fill="#0AAFF7"/>
<g opacity="0.1">
<path d="M182.8 174.781C180.755 175.806 178.636 176.675 176.46 177.381L176.27 177.451L176.15 177.291L175.96 177.051C174.443 175.206 173.075 173.243 171.87 171.181C173.519 172.91 175.033 174.762 176.4 176.721L176.58 176.961L176.27 176.871C178.387 176 180.571 175.301 182.8 174.781Z" fill="black"/>
</g>
<path d="M175.01 175.351C174.257 176.028 173.386 176.56 172.44 176.921C171.569 177.437 170.615 177.799 169.62 177.991C170.38 177.317 171.253 176.786 172.2 176.421C173.069 175.907 174.019 175.545 175.01 175.351V175.351Z" fill="#0AAFF7"/>
<g opacity="0.1">
<path d="M175.01 175.351C174.257 176.028 173.386 176.56 172.44 176.921C171.569 177.437 170.615 177.799 169.62 177.991C170.38 177.317 171.253 176.786 172.2 176.421C173.069 175.907 174.019 175.545 175.01 175.351V175.351Z" fill="black"/>
</g>
<path d="M180.76 181.641C180.148 180.886 179.674 180.03 179.36 179.111C178.7 177.621 178.26 176.341 178.46 176.361C179.074 177.115 179.551 177.972 179.87 178.891C180.336 179.744 180.638 180.676 180.76 181.641V181.641Z" fill="#0AAFF7"/>
<g opacity="0.1">
<path d="M180.76 181.641C180.148 180.886 179.674 180.03 179.36 179.111C178.7 177.621 178.26 176.341 178.46 176.361C179.074 177.115 179.551 177.972 179.87 178.891C180.336 179.744 180.638 180.676 180.76 181.641V181.641Z" fill="black"/>
</g>
<path d="M227.406 201.41L199.284 192.175L193.537 209.675L221.659 218.911L227.406 201.41Z" fill="#0AAFF7"/>
<path d="M227.39 201.43C226.99 201.661 226.568 201.851 226.13 202L222.63 203.37C219.63 204.5 215.54 206.04 210.93 207.73L210.74 207.8L210.62 207.64L210.15 207.02C207.09 203.02 204.33 199.29 202.36 196.6L200.01 193.41C199.71 193.029 199.446 192.62 199.22 192.19C199.587 192.522 199.922 192.887 200.22 193.28L202.67 196.37C204.72 198.99 207.52 202.64 210.59 206.69L211.06 207.3L210.75 207.21C215.35 205.53 219.5 204.05 222.5 203.01L226.06 201.8C226.491 201.636 226.936 201.512 227.39 201.43V201.43Z" fill="#0AAFF7"/>
<g opacity="0.2">
<path d="M227.39 201.43C226.99 201.661 226.568 201.851 226.13 202L222.63 203.37C219.63 204.5 215.54 206.04 210.93 207.73L210.74 207.8L210.62 207.64L210.15 207.02C207.09 203.02 204.33 199.29 202.36 196.6L200.01 193.41C199.71 193.029 199.446 192.62 199.22 192.19C199.587 192.522 199.922 192.887 200.22 193.28L202.67 196.37C204.72 198.99 207.52 202.64 210.59 206.69L211.06 207.3L210.75 207.21C215.35 205.53 219.5 204.05 222.5 203.01L226.06 201.8C226.491 201.636 226.936 201.512 227.39 201.43V201.43Z" fill="black"/>
</g>
<path d="M207.39 202.92C205.203 204.286 202.925 205.499 200.57 206.55C198.295 207.757 195.939 208.806 193.52 209.69C195.698 208.312 197.974 207.095 200.33 206.05C202.604 204.835 204.963 203.789 207.39 202.92V202.92Z" fill="#0AAFF7"/>
<g opacity="0.2">
<path d="M207.39 202.92C205.203 204.286 202.925 205.499 200.57 206.55C198.295 207.757 195.939 208.806 193.52 209.69C195.698 208.312 197.974 207.095 200.33 206.05C202.604 204.835 204.963 203.789 207.39 202.92V202.92Z" fill="black"/>
</g>
<path d="M222.15 219.09C220.92 216.944 219.847 214.712 218.94 212.41C217.872 210.176 216.969 207.866 216.24 205.5C217.472 207.649 218.545 209.885 219.45 212.19C220.519 214.42 221.422 216.726 222.15 219.09V219.09Z" fill="#0AAFF7"/>
<g opacity="0.2">
<path d="M222.15 219.09C220.92 216.944 219.847 214.712 218.94 212.41C217.872 210.176 216.969 207.866 216.24 205.5C217.472 207.649 218.545 209.885 219.45 212.19C220.519 214.42 221.422 216.726 222.15 219.09V219.09Z" fill="black"/>
</g>
<path d="M200.81 196.5C200.11 197.013 199.274 197.308 198.407 197.346C197.539 197.384 196.68 197.165 195.938 196.715C195.196 196.265 194.603 195.605 194.236 194.818C193.868 194.032 193.742 193.154 193.874 192.296C194.005 191.438 194.388 190.638 194.974 189.997C195.56 189.357 196.322 188.904 197.165 188.697C198.008 188.49 198.894 188.537 199.71 188.833C200.526 189.129 201.236 189.66 201.75 190.36C202.092 190.825 202.339 191.352 202.476 191.912C202.614 192.473 202.64 193.054 202.553 193.625C202.465 194.195 202.267 194.742 201.968 195.236C201.669 195.729 201.275 196.159 200.81 196.5V196.5Z" fill="#263238"/>
<path d="M201.01 192.15C200.081 192.841 199.094 193.45 198.06 193.97L197.36 194.36L197.23 194.43L197.16 194.31C196.687 193.56 196.285 192.766 195.96 191.94C196.517 192.633 197.003 193.38 197.41 194.17L197.22 194.11L197.92 193.71C198.903 193.101 199.937 192.579 201.01 192.15Z" fill="white"/>
<path d="M209.352 177.83L194.616 172.991L191.605 182.16L206.341 186.999L209.352 177.83Z" fill="#0AAFF7"/>
<g opacity="0.2">
<path d="M209.352 177.83L194.616 172.991L191.605 182.16L206.341 186.999L209.352 177.83Z" fill="black"/>
</g>
<path d="M209.32 177.84C209.115 177.963 208.897 178.064 208.67 178.14L206.83 178.86C205.28 179.45 203.12 180.26 200.7 181.14H200.6L200.54 181.05L200.3 180.73C198.69 178.61 197.3 176.68 196.21 175.27L195.01 173.64C194.855 173.439 194.718 173.225 194.6 173C194.785 173.173 194.953 173.364 195.1 173.57L196.39 175.19C197.46 176.56 198.93 178.47 200.53 180.59L200.78 180.92H200.62C203.03 180.04 205.2 179.26 206.78 178.72L208.64 178.09C208.857 177.981 209.085 177.897 209.32 177.84V177.84Z" fill="#0AAFF7"/>
<g opacity="0.2">
<path d="M209.32 177.84C209.115 177.963 208.897 178.064 208.67 178.14L206.83 178.86C205.28 179.45 203.12 180.26 200.7 181.14H200.6L200.54 181.05L200.3 180.73C198.69 178.61 197.3 176.68 196.21 175.27L195.01 173.64C194.855 173.439 194.718 173.225 194.6 173C194.785 173.173 194.953 173.364 195.1 173.57L196.39 175.19C197.46 176.56 198.93 178.47 200.53 180.59L200.78 180.92H200.62C203.03 180.04 205.2 179.26 206.78 178.72L208.64 178.09C208.857 177.981 209.085 177.897 209.32 177.84V177.84Z" fill="#0AAFF7"/>
</g>
<path d="M198.85 178.62C197.704 179.333 196.511 179.967 195.28 180.52C194.086 181.154 192.849 181.705 191.58 182.17C192.722 181.447 193.915 180.808 195.15 180.26C196.342 179.625 197.579 179.077 198.85 178.62V178.62Z" fill="#0AAFF7"/>
<g opacity="0.2">
<path d="M198.85 178.62C197.704 179.333 196.511 179.967 195.28 180.52C194.086 181.154 192.849 181.705 191.58 182.17C192.722 181.447 193.915 180.808 195.15 180.26C196.342 179.625 197.579 179.077 198.85 178.62V178.62Z" fill="#0AAFF7"/>
</g>
<path d="M206.58 187.09C205.935 185.966 205.373 184.796 204.9 183.59C204.344 182.417 203.87 181.208 203.48 179.97C204.693 182.261 205.729 184.641 206.58 187.09V187.09Z" fill="#0AAFF7"/>
<g opacity="0.2">
<path d="M206.58 187.09C205.935 185.966 205.373 184.796 204.9 183.59C204.344 182.417 203.87 181.208 203.48 179.97C204.693 182.261 205.729 184.641 206.58 187.09V187.09Z" fill="#0AAFF7"/>
</g>
<path d="M91.0101 63.0706C89.9932 67.0729 87.8124 70.6838 84.7434 73.4467C81.6744 76.2097 77.855 78.0005 73.7683 78.5929C69.6815 79.1852 65.5109 78.5525 61.7837 76.7747C58.0565 74.9968 54.9402 72.1537 52.8288 68.6049C50.7174 65.056 49.7057 60.9608 49.9216 56.837C50.1376 52.7132 51.5715 48.746 54.042 45.437C56.5125 42.1281 59.9087 39.626 63.8012 38.2472C67.6936 36.8683 71.9075 36.6747 75.9101 37.6906C81.277 39.0556 85.8823 42.4957 88.7138 47.2549C91.5453 52.014 92.3712 57.7027 91.0101 63.0706V63.0706Z" fill="#0AAFF7"/>
<path d="M78.4802 46.6097C78.8502 46.7597 76.4802 53.7497 73.1802 62.2297C72.6902 63.4597 72.1802 64.6397 71.7702 65.7997L71.5202 66.4297L70.8902 66.1897C64.1202 63.5797 59.1702 61.4297 59.2902 61.1197C59.4102 60.8097 64.5502 62.4297 71.3702 64.8997L70.4902 65.2997C70.9302 64.1397 71.3902 62.9497 71.8602 61.7197C75.1502 53.2297 78.1202 46.4997 78.4802 46.6097Z" fill="white"/>
<path d="M347.66 358.59C351.401 356.832 355.606 356.321 359.66 357.13C361.84 357.49 364.11 358.13 365.6 359.77C367.09 361.41 367.36 364.29 365.66 365.7C364.559 366.436 363.238 366.771 361.92 366.65C358.74 366.65 355.22 366.05 352.68 367.96C351.23 369.05 350.27 370.86 348.54 371.4C347.674 371.597 346.768 371.509 345.957 371.148C345.146 370.788 344.473 370.174 344.04 369.4C343.215 367.808 343.033 365.961 343.53 364.24C343.735 363.043 344.215 361.91 344.931 360.93C345.648 359.949 346.582 359.148 347.66 358.59V358.59Z" fill="#0AAFF7"/>
<g opacity="0.2">
<path d="M347.66 358.59C351.401 356.832 355.606 356.321 359.66 357.13C361.84 357.49 364.11 358.13 365.6 359.77C367.09 361.41 367.36 364.29 365.66 365.7C364.559 366.436 363.238 366.771 361.92 366.65C358.74 366.65 355.22 366.05 352.68 367.96C351.23 369.05 350.27 370.86 348.54 371.4C347.674 371.597 346.768 371.509 345.957 371.148C345.146 370.788 344.473 370.174 344.04 369.4C343.215 367.808 343.033 365.961 343.53 364.24C343.735 363.043 344.215 361.91 344.931 360.93C345.648 359.949 346.582 359.148 347.66 358.59V358.59Z" fill="white"/>
</g>
<path d="M339.29 342.43C341.53 345.62 345.87 344.56 347.88 342.61C349.89 340.66 350.75 337.84 351.52 335.15C353.29 329 355.07 322.55 353.76 316.29C353.436 314.393 352.603 312.619 351.35 311.16C350.712 310.442 349.897 309.904 348.986 309.601C348.075 309.297 347.1 309.238 346.16 309.43C343.97 310.01 342.61 312.16 341.63 314.2C338.733 320.223 337.213 326.816 337.18 333.5C337.18 336.61 337.54 339.87 339.29 342.44" fill="#0AAFF7"/>
<path d="M333.16 347.009C335.58 344.129 336.04 339.929 334.96 336.319C333.734 332.738 331.548 329.562 328.64 327.139C325.328 324.214 321.48 321.959 317.31 320.499C315.692 319.845 313.953 319.549 312.21 319.629C311.34 319.681 310.496 319.944 309.75 320.395C309.004 320.846 308.38 321.472 307.93 322.219C306.74 324.489 307.88 327.219 309.12 329.499C311.3 333.467 313.788 337.259 316.56 340.839C318.79 343.709 321.35 346.549 324.75 347.839C328.15 349.129 331.68 348.989 333.48 346.629" fill="#0AAFF7"/>
<g opacity="0.1">
<path d="M333.16 347.009C335.58 344.129 336.04 339.929 334.96 336.319C333.734 332.738 331.548 329.562 328.64 327.139C325.328 324.214 321.48 321.959 317.31 320.499C315.692 319.845 313.953 319.549 312.21 319.629C311.34 319.681 310.496 319.944 309.75 320.395C309.004 320.846 308.38 321.472 307.93 322.219C306.74 324.489 307.88 327.219 309.12 329.499C311.3 333.467 313.788 337.259 316.56 340.839C318.79 343.709 321.35 346.549 324.75 347.839C328.15 349.129 331.68 348.989 333.48 346.629" fill="black"/>
</g>
<path d="M339.14 390.559C339.256 390.084 339.323 389.598 339.34 389.109C339.45 388.049 339.57 386.729 339.73 385.109C339.926 383.162 340.223 381.226 340.62 379.309C341.137 376.973 341.843 374.682 342.73 372.459C343.598 370.238 344.776 368.15 346.23 366.259C347.41 364.718 348.92 363.461 350.65 362.579C351.822 362.002 353.077 361.611 354.37 361.419C354.856 361.403 355.338 361.336 355.81 361.219C355.325 361.16 354.835 361.16 354.35 361.219C353.004 361.32 351.687 361.659 350.46 362.219C348.643 363.083 347.049 364.352 345.8 365.929C344.285 367.846 343.062 369.975 342.17 372.249C341.272 374.518 340.573 376.86 340.08 379.249C339.704 381.188 339.446 383.149 339.31 385.119C339.18 386.799 339.13 388.119 339.11 389.119C339.071 389.599 339.081 390.082 339.14 390.559V390.559Z" fill="#263238"/>
<path d="M339.41 387.499C339.44 387.277 339.44 387.052 339.41 386.829V384.909C339.41 383.239 339.41 380.819 339.49 377.839C339.64 371.839 340.15 363.629 341.15 354.579C342.15 345.529 343.47 337.379 344.68 331.579C344.96 330.119 345.25 328.799 345.52 327.649C345.79 326.499 346 325.489 346.21 324.649C346.42 323.809 346.54 323.269 346.66 322.779C346.728 322.562 346.768 322.337 346.78 322.109C346.678 322.31 346.601 322.521 346.55 322.739L345.99 324.589C345.74 325.389 345.49 326.379 345.2 327.529C344.91 328.679 344.58 329.989 344.26 331.459C342.629 339.069 341.403 346.76 340.59 354.499C339.59 363.569 339.15 371.829 339.11 377.809C339.11 380.809 339.11 383.219 339.21 384.889C339.257 385.669 339.297 386.309 339.33 386.809C339.334 387.041 339.361 387.273 339.41 387.499Z" fill="#263238"/>
<path d="M339.45 371.579C339.504 370.914 339.504 370.245 339.45 369.579C339.337 367.757 339.13 365.941 338.83 364.139C337.835 358.184 336.13 352.369 333.75 346.819C331.452 341.21 328.151 336.066 324.01 331.639C323.294 330.88 322.529 330.169 321.72 329.509C321.37 329.209 321.06 328.919 320.72 328.679L319.84 328.069C319.301 327.664 318.733 327.3 318.14 326.979C320.089 328.515 321.942 330.168 323.69 331.929C327.693 336.393 330.906 341.506 333.19 347.049C334.502 350.073 335.615 353.18 336.52 356.349C337.39 359.259 337.97 361.939 338.41 364.199C338.85 366.459 339.06 368.309 339.21 369.589C339.242 370.258 339.322 370.923 339.45 371.579V371.579Z" fill="#263238"/>
<path d="M187.36 239.75H229.22L245.81 193.43H243.48L227.04 237.49L187.36 237.72V239.75Z" fill="#455A64"/>
<path d="M168.85 245.6L170.41 390.69H174.66L172.93 244.53L168.85 245.6Z" fill="#263238"/>
<path d="M258.48 244.19C257.91 246.96 262.32 391.02 262.32 391.02H266.32L263.07 244.19H258.48Z" fill="#263238"/>
<path d="M307.43 239.75H129.39V247.09H144.09L134.53 390.22L138.71 390.45L148.28 247.09H292.44L299.43 390.51H303.62L296.64 247.09H307.43V239.75Z" fill="#263238"/>
<path d="M207.01 385.23V374.23L186.4 374.02L186.17 390.12L187.45 390.21C193.13 390.59 216.37 391.71 220.18 390.6C224.42 389.36 207.01 385.23 207.01 385.23Z" fill="#0AAFF7"/>
<path d="M193.63 390.03C193.347 388.288 192.428 386.713 191.05 385.61C189.699 384.515 187.987 383.962 186.25 384.06L186.19 389.82L193.63 390.03Z" fill="#F5F5F5"/>
<path d="M215.49 387.55C215.49 387.55 221.61 389.39 220.83 390.39C220.05 391.39 196.53 391.14 186.16 390.12V389.66L213.6 390.19C213.6 390.19 214.29 387.59 215.49 387.55Z" fill="#F5F5F5"/>
<path d="M185.88 389.64H186.23L187.23 389.72L190.97 389.92C194.13 390.07 198.5 390.21 203.33 390.27C208.16 390.33 212.54 390.27 215.7 390.2L219.45 390.09L220.45 390.04H220.8C220.684 390.024 220.567 390.024 220.45 390.04H219.45H215.7C212.54 390.04 208.16 390.04 203.34 390.04C198.52 390.04 194.14 389.86 190.98 389.76L187.23 389.64H186.23H185.88Z" fill="#263238"/>
<path d="M213.63 390.5C213.8 389.88 214.042 389.283 214.35 388.72C214.723 388.197 215.156 387.72 215.64 387.3C215.022 387.567 214.499 388.016 214.142 388.588C213.784 389.16 213.609 389.826 213.64 390.5H213.63Z" fill="#263238"/>
<path d="M207.58 387.36C207.64 387.36 207.94 387.04 208.24 386.57C208.54 386.1 208.75 385.69 208.69 385.65C208.63 385.61 208.34 385.97 208.03 386.44C207.815 386.71 207.662 387.024 207.58 387.36V387.36Z" fill="#263238"/>
<path d="M205.92 386.5C205.97 386.55 206.3 386.34 206.66 386.02C207.02 385.7 207.27 385.41 207.22 385.36C207.17 385.31 206.85 385.52 206.49 385.83C206.13 386.14 205.88 386.41 205.92 386.5Z" fill="#263238"/>
<path d="M204.89 384.5C205.23 384.632 205.597 384.684 205.96 384.65C206.323 384.697 206.692 384.663 207.04 384.55C206.7 384.418 206.334 384.366 205.97 384.4C205.607 384.354 205.238 384.388 204.89 384.5V384.5Z" fill="#263238"/>
<path d="M204.54 383.13C204.91 383.331 205.318 383.453 205.738 383.49C206.158 383.526 206.581 383.475 206.98 383.34C206.166 383.276 205.353 383.206 204.54 383.13V383.13Z" fill="#263238"/>
<path d="M208.3 385.569C208.74 385.646 209.19 385.646 209.63 385.569C210.109 385.519 210.581 385.422 211.04 385.279C211.322 385.201 211.594 385.09 211.85 384.949C211.929 384.908 211.999 384.851 212.056 384.783C212.112 384.714 212.155 384.635 212.18 384.549C212.202 384.451 212.196 384.348 212.163 384.252C212.129 384.157 212.069 384.073 211.99 384.009C211.488 383.761 210.916 383.693 210.37 383.817C209.823 383.941 209.336 384.249 208.99 384.689C208.78 384.948 208.626 385.248 208.54 385.569C208.54 385.799 208.54 385.929 208.54 385.929C208.673 385.522 208.88 385.142 209.15 384.809C209.45 384.46 209.847 384.206 210.29 384.079C210.549 383.996 210.822 383.965 211.093 383.987C211.364 384.01 211.628 384.085 211.87 384.209C212.08 384.369 211.99 384.609 211.76 384.749C211.521 384.877 211.27 384.981 211.01 385.059C210.563 385.208 210.105 385.322 209.64 385.399C208.81 385.499 208.3 385.499 208.3 385.569Z" fill="#263238"/>
<path d="M208.64 385.64C208.807 385.365 208.868 385.037 208.81 384.72C208.773 384.364 208.653 384.022 208.46 383.72C208.35 383.521 208.192 383.354 207.999 383.233C207.807 383.112 207.587 383.043 207.36 383.03C207.225 383.057 207.106 383.136 207.029 383.25C206.952 383.365 206.924 383.505 206.95 383.64C206.977 383.85 207.049 384.051 207.16 384.23C207.337 384.522 207.545 384.793 207.78 385.04C207.98 385.281 208.238 385.467 208.53 385.58C208.53 385.58 208.27 385.34 207.91 384.92C207.702 384.674 207.52 384.406 207.37 384.12C207.19 383.84 207.07 383.33 207.37 383.28C207.67 383.23 208.04 383.58 208.24 383.85C208.418 384.109 208.54 384.402 208.6 384.71C208.65 385.018 208.663 385.33 208.64 385.64V385.64Z" fill="#263238"/>
<path d="M186.36 384.01C186.36 384.01 186.95 383.96 187.88 384.08C189.091 384.234 190.236 384.719 191.19 385.48C192.118 386.279 192.81 387.316 193.19 388.48C193.49 389.36 193.52 389.96 193.56 389.95C193.6 389.94 193.56 389.8 193.56 389.54C193.526 389.161 193.456 388.786 193.35 388.42C192.991 387.207 192.273 386.13 191.292 385.331C190.311 384.532 189.111 384.047 187.85 383.94C187.472 383.898 187.089 383.898 186.71 383.94C186.59 383.941 186.471 383.965 186.36 384.01V384.01Z" fill="#263238"/>
<path d="M188.59 375.5C188.35 378.313 188.283 381.139 188.39 383.96C188.549 382.556 188.622 381.143 188.61 379.73C188.682 378.321 188.676 376.909 188.59 375.5V375.5Z" fill="#263238"/>
<path d="M196.25 388.05C197.231 388.293 198.24 388.404 199.25 388.38C200.255 388.445 201.264 388.374 202.25 388.17C202.25 388.1 200.9 388.17 199.25 388.17C197.6 388.17 196.26 387.98 196.25 388.05Z" fill="#263238"/>
<path d="M192.21 388C192.21 388.05 192.32 388.29 192.45 388.6C192.58 388.91 192.66 389.18 192.73 389.18C192.8 389.18 192.84 388.85 192.68 388.5C192.52 388.15 192.26 387.95 192.21 388Z" fill="#263238"/>
<path d="M190.71 386.09C190.71 386.14 190.79 386.35 191 386.57C191.21 386.79 191.42 386.93 191.47 386.88C191.52 386.83 191.39 386.62 191.18 386.4C190.97 386.18 190.76 386.04 190.71 386.09Z" fill="#263238"/>
<path d="M188.54 385.2C188.54 385.27 188.83 385.27 189.13 385.38C189.43 385.49 189.65 385.66 189.7 385.61C189.75 385.56 189.59 385.28 189.21 385.15C188.83 385.02 188.52 385.14 188.54 385.2Z" fill="#263238"/>
<path d="M187.01 384.78C187.01 384.84 187.1 384.95 187.27 385.02C187.44 385.09 187.6 385.09 187.62 385.02C187.64 384.95 187.53 384.85 187.36 384.78C187.19 384.71 187.01 384.71 187.01 384.78Z" fill="#263238"/>
<path d="M247.53 374.13L243.01 364.08L224.14 372.37L230.55 387.13L231.75 386.69C237.09 384.69 258.75 376.16 261.75 373.58C265.14 370.7 247.53 374.13 247.53 374.13Z" fill="#0AAFF7"/>
<path d="M237.36 383.98C236.387 382.496 234.898 381.426 233.18 380.98C231.5 380.543 229.719 380.747 228.18 381.55L230.49 386.82L237.36 383.98Z" fill="#F5F5F5"/>
<path d="M256.26 372.73C256.26 372.73 262.59 371.88 262.26 373.12C261.93 374.36 240.42 383.8 230.55 387.12L230.4 386.69L255.62 375.88C255.62 375.88 255.18 373.26 256.26 372.73Z" fill="#F5F5F5"/>
<path d="M230.12 386.82L230.46 386.71L231.46 386.36L234.96 385C237.9 383.83 241.96 382.17 246.37 380.23C250.78 378.29 254.76 376.46 257.61 375.08L260.98 373.44L261.89 372.97C262 372.926 262.104 372.869 262.2 372.8L261.87 372.93L260.94 373.35L257.54 374.93C254.67 376.25 250.69 378.07 246.27 380C241.85 381.93 237.81 383.63 234.89 384.84L231.43 386.27L230.49 386.66L230.12 386.82Z" fill="#263238"/>
<path d="M255.78 376.189C255.675 375.555 255.648 374.91 255.7 374.269C255.832 373.64 256.03 373.027 256.29 372.439C255.799 372.912 255.5 373.55 255.45 374.229C255.317 374.901 255.434 375.598 255.78 376.189V376.189Z" fill="#263238"/>
<path d="M249.01 375.8C249.08 375.8 249.2 375.37 249.29 374.8C249.38 374.23 249.39 373.8 249.29 373.8C249.19 373.8 249.1 374.23 249.01 374.8C248.928 375.128 248.928 375.472 249.01 375.8V375.8Z" fill="#263238"/>
<path d="M247.09 375.67C247.15 375.67 247.36 375.36 247.56 374.93C247.76 374.5 247.86 374.12 247.8 374.09C247.74 374.06 247.53 374.39 247.33 374.83C247.13 375.27 247.01 375.64 247.09 375.67Z" fill="#263238"/>
<path d="M245.34 374.31C245.691 374.276 246.032 374.17 246.34 374C246.89 373.77 247.34 373.53 247.28 373.47C247.22 373.41 246.79 373.54 246.28 373.77C245.77 374 245.31 374.24 245.34 374.31Z" fill="#263238"/>
<path d="M244.46 373.2C244.881 373.268 245.313 373.209 245.7 373.03C246.111 372.929 246.48 372.706 246.76 372.39C246.365 372.491 245.98 372.628 245.61 372.8C245.215 372.896 244.83 373.03 244.46 373.2V373.2Z" fill="#263238"/>
<path d="M248.89 373.879C249.321 373.768 249.73 373.585 250.1 373.339C250.512 373.091 250.9 372.807 251.26 372.489C251.486 372.302 251.69 372.091 251.87 371.859C251.975 371.711 252.022 371.53 252 371.349C251.982 371.251 251.936 371.161 251.866 371.09C251.797 371.019 251.708 370.97 251.61 370.949C251.248 370.934 250.888 371 250.554 371.142C250.221 371.283 249.923 371.497 249.683 371.768C249.443 372.039 249.266 372.36 249.165 372.708C249.064 373.056 249.042 373.422 249.1 373.779C249.112 373.902 249.149 374.022 249.21 374.129C249.174 373.7 249.208 373.268 249.31 372.849C249.442 372.409 249.699 372.016 250.05 371.719C250.458 371.354 250.993 371.164 251.54 371.189C251.8 371.239 251.82 371.499 251.66 371.729C251.496 371.943 251.312 372.14 251.11 372.319C250.76 372.634 250.39 372.925 250 373.189C249.33 373.639 248.87 373.839 248.89 373.879Z" fill="#263238"/>
<path d="M249.23 373.8C249.261 373.482 249.18 373.163 249 372.9C248.82 372.598 248.574 372.342 248.28 372.15C248.098 372.016 247.886 371.93 247.662 371.9C247.438 371.871 247.211 371.898 247 371.98C246.888 372.058 246.811 372.178 246.787 372.313C246.763 372.448 246.793 372.587 246.87 372.7C246.979 372.882 247.13 373.036 247.31 373.15C247.589 373.348 247.892 373.513 248.21 373.64C248.494 373.775 248.807 373.837 249.12 373.82C249.12 373.82 248.78 373.71 248.28 373.47C247.985 373.335 247.707 373.167 247.45 372.97C247.17 372.79 246.86 372.38 247.14 372.19C247.308 372.14 247.485 372.129 247.658 372.157C247.831 372.185 247.996 372.25 248.14 372.35C248.415 372.509 248.65 372.728 248.83 372.99C248.986 373.248 249.12 373.519 249.23 373.8V373.8Z" fill="#263238"/>
<path d="M228.25 381.5C228.25 381.5 228.76 381.21 229.66 380.94C230.826 380.574 232.071 380.546 233.251 380.86C234.432 381.173 235.499 381.814 236.33 382.71C236.97 383.4 237.24 383.93 237.28 383.9C237.242 383.766 237.185 383.638 237.11 383.52C236.928 383.191 236.71 382.882 236.46 382.6C235.637 381.634 234.543 380.937 233.32 380.6C232.096 380.285 230.805 380.337 229.61 380.75C229.26 380.878 228.925 381.042 228.61 381.24C228.35 381.38 228.24 381.5 228.25 381.5Z" fill="#263238"/>
<path d="M226.76 372.77C227.185 374.134 227.696 375.47 228.29 376.77C228.809 378.084 229.4 379.37 230.06 380.62C229.626 379.273 229.111 377.955 228.52 376.67C228.006 375.338 227.419 374.036 226.76 372.77V372.77Z" fill="#263238"/>
<path d="M238.92 381.1C239.916 380.909 240.884 380.593 241.8 380.16C242.748 379.807 243.643 379.326 244.46 378.73C244.46 378.67 243.23 379.28 241.7 379.93C240.17 380.58 238.9 381.03 238.92 381.1Z" fill="#263238"/>
<path d="M235.22 382.71C235.22 382.78 235.44 382.93 235.69 383.16C235.94 383.39 236.12 383.61 236.18 383.57C236.24 383.53 236.18 383.23 235.86 382.97C235.54 382.71 235.24 382.65 235.22 382.71Z" fill="#263238"/>
<path d="M233.07 381.59C233.07 381.66 233.25 381.8 233.53 381.91C233.81 382.02 234.06 382.06 234.09 382C234.12 381.94 233.91 381.79 233.63 381.68C233.35 381.57 233.09 381.5 233.07 381.59Z" fill="#263238"/>
<path d="M230.73 381.67C230.73 381.73 231.02 381.62 231.34 381.6C231.66 381.58 231.92 381.6 231.95 381.6C231.98 381.6 231.71 381.34 231.32 381.38C230.93 381.42 230.68 381.62 230.73 381.67Z" fill="#263238"/>
<path d="M229.14 381.92C229.14 381.99 229.3 382.04 229.48 382.03C229.66 382.02 229.81 381.96 229.81 381.89C229.81 381.82 229.65 381.77 229.47 381.78C229.29 381.79 229.14 381.85 229.14 381.92Z" fill="#263238"/>
<path d="M60.5202 300.619L45.6402 189.429C45.5474 188.737 45.6104 188.033 45.8243 187.369C46.0383 186.704 46.398 186.096 46.8772 185.588C47.3563 185.08 47.9428 184.685 48.5938 184.433C49.2448 184.181 49.944 184.077 50.6402 184.129L86.5102 187.129C88.1103 187.264 89.6106 187.962 90.7442 189.099C91.8777 190.236 92.5709 191.739 92.7002 193.339L101.44 298.609L60.5202 300.619Z" fill="#0AAFF7"/>
<g opacity="0.2">
<path d="M60.5202 300.619L45.6402 189.429C45.5474 188.737 45.6104 188.033 45.8243 187.369C46.0383 186.704 46.398 186.096 46.8772 185.588C47.3563 185.08 47.9428 184.685 48.5938 184.433C49.2448 184.181 49.944 184.077 50.6402 184.129L86.5102 187.129C88.1103 187.264 89.6106 187.962 90.7442 189.099C91.8777 190.236 92.5709 191.739 92.7002 193.339L101.44 298.609L60.5202 300.619Z" fill="black"/>
</g>
<path d="M95.1203 137.21C94.8203 132.97 93.7103 128.84 93.1203 124.64C92.5303 120.44 92.4103 116.02 94.0703 112.11C95.0863 109.93 96.5227 107.972 98.2971 106.349C100.072 104.726 102.149 103.469 104.41 102.65C108.952 101.038 113.802 100.484 118.59 101.03C119.456 101.056 120.308 101.25 121.1 101.6C121.491 101.781 121.829 102.06 122.079 102.411C122.33 102.762 122.485 103.171 122.53 103.6C122.54 103.813 122.506 104.025 122.43 104.224C122.354 104.423 122.237 104.604 122.088 104.756C121.939 104.908 121.76 105.028 121.562 105.108C121.365 105.187 121.153 105.226 120.94 105.22C122.767 105.406 124.567 105.792 126.31 106.37C127.018 106.57 127.634 107.013 128.05 107.62C128.219 108 128.286 108.418 128.244 108.832C128.202 109.246 128.052 109.641 127.81 109.98C127.313 110.65 126.7 111.226 126 111.68C126.214 111.638 126.435 111.638 126.648 111.681C126.862 111.724 127.066 111.809 127.247 111.931C127.428 112.052 127.583 112.208 127.704 112.39C127.825 112.572 127.908 112.776 127.95 112.99C128.014 113.427 127.986 113.873 127.867 114.298C127.748 114.723 127.542 115.119 127.26 115.46C126.75 116.18 126.09 116.77 125.56 117.46C123.4 120.33 123.82 124.32 124.34 127.88" fill="#263238"/>
<path d="M95.5103 162.05L115.72 161.69C115.99 159.35 116.38 150.25 116.38 150.25C116.38 150.25 124.83 149.47 125.45 141.11C126.07 132.75 125.81 113.45 125.81 113.45C121.181 111.113 116.012 110.054 110.836 110.383C105.661 110.712 100.667 112.416 96.3703 115.32L95.0703 116.2L95.5103 162.05Z" fill="#B78876"/>
<path d="M123.01 127.949C122.84 127.779 122.725 127.561 122.678 127.325C122.632 127.088 122.656 126.843 122.749 126.621C122.841 126.398 122.998 126.208 123.198 126.074C123.399 125.941 123.634 125.869 123.875 125.869C124.116 125.869 124.352 125.941 124.552 126.074C124.753 126.208 124.909 126.398 125.002 126.621C125.094 126.843 125.119 127.088 125.072 127.325C125.026 127.561 124.91 127.779 124.74 127.949C124.628 128.065 124.493 128.156 124.344 128.219C124.196 128.281 124.036 128.313 123.875 128.313C123.714 128.313 123.555 128.281 123.406 128.219C123.258 128.156 123.123 128.065 123.01 127.949Z" fill="#263238"/>
<path d="M125.14 125.92C125 126.06 124.22 125.38 123.07 125.3C121.92 125.22 121.07 125.77 120.92 125.61C120.77 125.45 121.01 125.29 121.39 125.03C121.907 124.711 122.511 124.564 123.116 124.608C123.721 124.653 124.296 124.888 124.76 125.28C125.1 125.59 125.21 125.86 125.14 125.92Z" fill="#263238"/>
<path d="M111.8 126.11C111.998 126.249 112.151 126.443 112.239 126.668C112.327 126.894 112.345 127.14 112.293 127.376C112.24 127.613 112.118 127.828 111.943 127.994C111.768 128.161 111.547 128.272 111.308 128.313C111.07 128.354 110.825 128.323 110.604 128.224C110.383 128.125 110.196 127.963 110.068 127.758C109.939 127.553 109.875 127.315 109.882 127.073C109.89 126.831 109.969 126.597 110.11 126.4C110.202 126.27 110.318 126.159 110.453 126.074C110.588 125.989 110.738 125.931 110.895 125.904C111.052 125.877 111.213 125.882 111.368 125.917C111.523 125.952 111.67 126.018 111.8 126.11V126.11Z" fill="#263238"/>
<path d="M112.56 126.17C112.42 126.3 111.64 125.62 110.49 125.54C109.34 125.46 108.49 126.01 108.35 125.86C108.21 125.71 108.43 125.53 108.82 125.28C109.333 124.956 109.937 124.806 110.542 124.851C111.147 124.896 111.721 125.134 112.18 125.53C112.52 125.83 112.63 126.11 112.56 126.17Z" fill="#263238"/>
<path d="M116.6 135.96C117.206 135.76 117.842 135.665 118.48 135.68C118.79 135.68 119.03 135.61 119.06 135.45C119.086 135.148 119.031 134.844 118.9 134.57C118.65 133.79 118.39 133 118.13 132.17C117.08 128.76 116.36 125.95 116.54 125.9C116.72 125.85 117.7 128.57 118.76 131.98C119.01 132.81 119.24 133.61 119.48 134.39C119.645 134.793 119.673 135.239 119.56 135.66C119.51 135.773 119.434 135.872 119.339 135.95C119.243 136.029 119.131 136.083 119.01 136.11C118.841 136.128 118.67 136.128 118.5 136.11C117.863 136.168 117.221 136.117 116.6 135.96V135.96Z" fill="#263238"/>
<path d="M112.77 137C111.62 136.21 115.97 139 118.32 139C117.89 139.577 117.276 139.99 116.58 140.172C115.884 140.353 115.147 140.293 114.49 140C112.01 138.95 112.77 137 112.77 137Z" fill="white"/>
<path d="M116.41 150.129C112.541 149.968 108.809 148.655 105.69 146.359C105.69 146.359 107.9 152.539 116.29 152.299L116.41 150.129Z" fill="#A36957"/>
<path d="M94.8003 122.5L95.2303 133.35C95.2303 133.35 99.0403 132.19 99.2903 132.08C99.5403 131.97 99.2203 118.79 99.2203 118.79C99.2203 118.79 98.6903 113.79 101.93 112.64C105.34 111.41 106.82 113.88 111.65 114.64C127.58 117.33 126.49 112.44 126.49 112.44C126.49 112.44 128.49 110.29 124.4 107.93C120.31 105.57 110.08 104.77 104.48 106.7C93.4803 110.49 92.8203 114.26 92.8203 117.59C92.8203 122.34 94.8003 122.5 94.8003 122.5Z" fill="#263238"/>
<path d="M96.67 123.62C96.49 123.55 90.47 122.77 91.04 129.88C91.61 136.99 98.6 134.07 98.6 133.88C98.6 133.69 96.67 123.62 96.67 123.62Z" fill="#B78876"/>
<path d="M96.22 131.5C96.22 131.5 96.1 131.6 95.9 131.71C95.6133 131.859 95.28 131.891 94.97 131.8C94.485 131.551 94.077 131.174 93.7898 130.711C93.5026 130.248 93.3471 129.715 93.34 129.17C93.2709 128.559 93.3392 127.94 93.54 127.36C93.5934 127.136 93.6992 126.929 93.8488 126.755C93.9984 126.581 94.1874 126.446 94.4 126.36C94.5396 126.311 94.6915 126.313 94.83 126.364C94.9685 126.415 95.0851 126.512 95.16 126.64C95.27 126.83 95.23 126.98 95.27 126.99C95.31 127 95.41 126.85 95.33 126.57C95.2809 126.394 95.171 126.242 95.02 126.14C94.8092 126.015 94.5602 125.973 94.32 126.02C94.0324 126.099 93.77 126.251 93.5581 126.461C93.3462 126.671 93.1919 126.933 93.11 127.22C92.858 127.854 92.7653 128.541 92.84 129.22C93 130.65 93.84 131.93 94.84 132.15C95.0358 132.189 95.238 132.185 95.4317 132.136C95.6255 132.088 95.806 131.997 95.96 131.87C96.22 131.72 96.24 131.55 96.22 131.5Z" fill="#A36957"/>
<path d="M176.09 219.5C176.09 219.5 186.09 219.02 188.09 219.93C191.55 221.44 201.85 237.59 201.33 237.59C199.77 237.59 196.56 237.59 196.56 237.59L180.56 231.52L176.79 232.47L176.09 219.5Z" fill="#B78876"/>
<path d="M219.09 265.87C219.09 265.87 249.01 369.5 249.08 368.99C249.15 368.48 222.26 381.92 222.26 381.92L204.12 306.98L219.09 265.87Z" fill="#263238"/>
<path d="M221.66 382.55L250.01 368.72L248.78 364.93L220.22 378.78L221.66 382.55Z" fill="#455A64"/>
<path d="M217.95 344.429C217.8 344.429 217.49 343.819 217.24 342.989C216.99 342.159 216.91 341.429 217.06 341.389C217.21 341.349 217.52 341.989 217.77 342.829C218.02 343.669 218.09 344.379 217.95 344.429Z" fill="#455A64"/>
<path d="M219.8 350.499C219.65 350.499 219.32 349.9 219.07 349.07C218.82 348.24 218.72 347.519 218.86 347.469C219 347.419 219.33 348.069 219.59 348.899C219.85 349.729 219.94 350.429 219.8 350.499Z" fill="#455A64"/>
<path d="M221.73 356.5C221.58 356.55 221.25 355.91 220.98 355.08C220.71 354.25 220.61 353.54 220.75 353.49C220.89 353.44 221.23 354.08 221.5 354.91C221.77 355.74 221.87 356.5 221.73 356.5Z" fill="#455A64"/>
<path d="M223.75 362.5C223.6 362.55 223.26 361.92 222.98 361.09C222.7 360.26 222.58 359.55 222.73 359.5C222.88 359.45 223.22 360.08 223.5 360.91C223.78 361.74 223.89 362.5 223.75 362.5Z" fill="#455A64"/>
<path d="M225.85 368.499C225.71 368.499 225.35 367.919 225.06 367.099C224.77 366.279 224.64 365.569 224.79 365.519C224.94 365.469 225.28 366.089 225.58 366.919C225.88 367.749 226.01 368.419 225.85 368.499Z" fill="#455A64"/>
<path d="M228.01 374.41C227.86 374.41 227.5 373.84 227.2 373.02C226.9 372.2 226.76 371.49 226.9 371.44C227.04 371.39 227.41 372.01 227.71 372.83C228.01 373.65 228.18 374.36 228.01 374.41Z" fill="#455A64"/>
<path d="M226.44 376.9C226.194 376.568 225.992 376.205 225.84 375.82C225.49 375.1 225.01 374.05 224.46 372.74C223.35 370.12 221.98 366.43 220.6 362.32C219.22 358.21 218.06 354.45 217.24 351.73C216.86 350.45 216.54 349.37 216.24 348.5C216.096 348.11 216.001 347.704 215.96 347.29C216.156 347.654 216.317 348.036 216.44 348.43C216.72 349.18 217.1 350.26 217.56 351.61L221.07 362.14C222.44 366.25 223.75 369.95 224.77 372.6L225.99 375.73C226.182 376.103 226.332 376.495 226.44 376.9Z" fill="#455A64"/>
<path d="M79.5002 258.67C79.7502 253.18 76.6302 288.8 104.01 289.74C131.39 290.68 187.33 290.27 187.33 290.27L180.78 380.6H213.63L220.49 284.5C220.49 284.5 223.99 256.66 204.94 253.11C193.02 250.88 118.89 250.17 118.89 250.17L79.5002 258.67Z" fill="#263238"/>
<path d="M180.03 380.79H214.62V375.41L180.03 375.46V380.79Z" fill="#455A64"/>
<path d="M125.92 285.5C126.037 285.485 126.154 285.485 126.27 285.5L127.27 285.44L131.27 285.26L146.12 284.69L196.21 282.97H196.53V283.29C196.08 286.97 195.7 290.86 195.38 294.81C194.94 300.46 194.52 305.97 194.11 311.29C193.7 316.61 193.11 321.73 192.6 326.61C191.6 336.35 190.66 345.13 189.88 352.52C189.1 359.91 188.45 365.83 188 369.98C187.77 371.98 187.59 373.62 187.46 374.73C187.4 375.25 187.35 375.66 187.31 375.96C187.298 376.101 187.274 376.242 187.24 376.38C187.225 376.24 187.225 376.099 187.24 375.96C187.24 375.65 187.3 375.24 187.34 374.72C187.44 373.6 187.59 372 187.78 369.96C188.18 365.81 188.78 359.84 189.49 352.48C190.2 345.12 191.11 336.31 192.09 326.55C192.57 321.67 193.09 316.55 193.56 311.24C194.03 305.93 194.39 300.41 194.82 294.77C195.14 290.77 195.52 286.92 195.98 283.22L196.26 283.53L146.16 285.06L131.31 285.47L127.31 285.55H126.31C126.179 285.553 126.047 285.536 125.92 285.5Z" fill="#455A64"/>
<path d="M129.08 281.59C129.08 281.74 128.38 281.88 127.5 281.9C126.62 281.92 125.92 281.82 125.92 281.67C125.92 281.52 126.62 281.37 127.49 281.35C128.36 281.33 129.08 281.44 129.08 281.59Z" fill="#455A64"/>
<path d="M135.41 281.44C135.41 281.59 134.71 281.73 133.83 281.75C132.95 281.77 132.25 281.67 132.24 281.52C132.23 281.37 132.95 281.23 133.82 281.2C134.69 281.17 135.41 281.29 135.41 281.44Z" fill="#455A64"/>
<path d="M141.74 281.29C141.74 281.45 141.04 281.58 140.16 281.61C139.28 281.64 138.58 281.52 138.57 281.37C138.56 281.22 139.28 281.08 140.15 281.06C141.02 281.04 141.74 281.14 141.74 281.29Z" fill="#455A64"/>
<path d="M148.07 281.14C148.07 281.3 147.37 281.44 146.49 281.46C145.61 281.48 144.91 281.37 144.9 281.22C144.89 281.07 145.61 280.93 146.48 280.91C147.35 280.89 148.07 280.99 148.07 281.14Z" fill="#455A64"/>
<path d="M154.4 281C154.4 281.15 153.7 281.29 152.82 281.31C151.94 281.33 151.24 281.22 151.23 281.07C151.22 280.92 151.94 280.78 152.81 280.76C153.68 280.74 154.4 280.84 154.4 281Z" fill="#455A64"/>
<path d="M160.73 280.85C160.73 281 160.03 281.14 159.15 281.16C158.27 281.18 157.57 281.07 157.56 280.92C157.55 280.77 158.27 280.63 159.14 280.61C160.01 280.59 160.72 280.7 160.73 280.85Z" fill="#455A64"/>
<path d="M167.06 280.699C167.06 280.849 166.36 280.989 165.48 281.009C164.6 281.029 163.9 280.919 163.89 280.769C163.88 280.619 164.59 280.479 165.47 280.459C166.35 280.439 167.01 280.549 167.06 280.699Z" fill="#455A64"/>
<path d="M173.39 280.55C173.39 280.7 172.69 280.84 171.81 280.86C170.93 280.88 170.23 280.78 170.22 280.62C170.21 280.46 170.92 280.33 171.8 280.31C172.68 280.29 173.38 280.4 173.39 280.55Z" fill="#455A64"/>
<path d="M179.72 280.4C179.72 280.55 179.02 280.69 178.14 280.71C177.26 280.73 176.56 280.63 176.55 280.48C176.54 280.33 177.25 280.18 178.13 280.16C179.01 280.14 179.71 280.25 179.72 280.4Z" fill="#455A64"/>
<path d="M186.01 280.25C186.01 280.4 185.3 280.54 184.43 280.56C183.56 280.58 182.85 280.48 182.84 280.33C182.83 280.18 183.54 280.03 184.42 280.01C185.3 279.99 186.01 280.1 186.01 280.25Z" fill="#455A64"/>
<path d="M192.38 280.1C192.38 280.25 191.67 280.39 190.8 280.41C189.93 280.43 189.22 280.33 189.21 280.18C189.2 280.03 189.91 279.89 190.79 279.87C191.67 279.85 192.37 279.95 192.38 280.1Z" fill="#455A64"/>
<path d="M198.71 279.95C198.71 280.11 198 280.25 197.13 280.27C196.26 280.29 195.54 280.18 195.54 280.03C195.54 279.88 196.24 279.74 197.12 279.72C198 279.7 198.7 279.8 198.71 279.95Z" fill="#455A64"/>
<path d="M198.7 285.69C198.54 285.69 198.49 284.96 198.58 284.09C198.67 283.22 198.85 282.53 199 282.54C199.15 282.55 199.21 283.27 199.12 284.14C199.03 285.01 198.85 285.71 198.7 285.69Z" fill="#455A64"/>
<path d="M198.08 291.99C197.93 291.99 197.87 291.26 197.96 290.39C198.05 289.52 198.24 288.83 198.39 288.84C198.54 288.85 198.59 289.57 198.51 290.44C198.43 291.31 198.23 292.01 198.08 291.99Z" fill="#455A64"/>
<path d="M197.46 298.29C197.31 298.29 197.25 297.56 197.34 296.69C197.43 295.82 197.62 295.13 197.77 295.14C197.92 295.15 197.97 295.88 197.89 296.75C197.81 297.62 197.61 298.31 197.46 298.29Z" fill="#455A64"/>
<path d="M196.84 304.59C196.69 304.59 196.64 303.86 196.72 302.99C196.8 302.12 197 301.43 197.15 301.44C197.3 301.45 197.35 302.18 197.27 303.05C197.19 303.92 197.01 304.61 196.84 304.59Z" fill="#455A64"/>
<path d="M196.22 310.899C196.07 310.899 196.02 310.159 196.1 309.289C196.18 308.419 196.38 307.729 196.53 307.749C196.68 307.769 196.74 308.479 196.65 309.349C196.56 310.219 196.37 310.909 196.22 310.899Z" fill="#455A64"/>
<path d="M195.6 317.2C195.45 317.2 195.4 316.46 195.49 315.59C195.58 314.72 195.76 314.03 195.91 314.05C196.06 314.07 196.12 314.78 196.03 315.65C195.94 316.52 195.76 317.21 195.6 317.2Z" fill="#455A64"/>
<path d="M195.01 323.5C194.85 323.5 194.8 322.77 194.89 321.9C194.98 321.03 195.16 320.33 195.32 320.35C195.48 320.37 195.52 321.08 195.43 321.95C195.34 322.82 195.14 323.5 195.01 323.5Z" fill="#455A64"/>
<path d="M194.37 329.8C194.22 329.8 194.16 329.07 194.25 328.2C194.34 327.33 194.53 326.63 194.68 326.65C194.83 326.67 194.88 327.38 194.8 328.25C194.72 329.12 194.52 329.81 194.37 329.8Z" fill="#455A64"/>
<path d="M193.75 336.1C193.6 336.1 193.55 335.37 193.63 334.5C193.71 333.63 193.91 332.94 194.06 332.95C194.21 332.96 194.26 333.68 194.18 334.55C194.1 335.42 193.9 336.12 193.75 336.1Z" fill="#455A64"/>
<path d="M193.13 342.4C192.98 342.4 192.93 341.67 193.01 340.8C193.09 339.93 193.29 339.24 193.44 339.25C193.59 339.26 193.64 339.98 193.56 340.85C193.48 341.72 193.28 342.42 193.13 342.4Z" fill="#455A64"/>
<path d="M192.51 348.7C192.36 348.7 192.31 347.97 192.39 347.1C192.47 346.23 192.67 345.54 192.82 345.55C192.97 345.56 193.03 346.28 192.94 347.15C192.85 348.02 192.66 348.72 192.51 348.7Z" fill="#455A64"/>
<path d="M191.9 355C191.74 355 191.69 354.27 191.78 353.4C191.87 352.53 192.05 351.84 192.2 351.85C192.35 351.86 192.41 352.59 192.32 353.46C192.23 354.33 192.01 355.02 191.9 355Z" fill="#455A64"/>
<path d="M191.28 361.3C191.13 361.3 191.07 360.57 191.16 359.7C191.25 358.83 191.43 358.14 191.59 358.15C191.75 358.16 191.79 358.89 191.7 359.76C191.61 360.63 191.43 361.32 191.28 361.3Z" fill="#455A64"/>
<path d="M190.66 367.609C190.51 367.609 190.45 366.869 190.54 365.999C190.63 365.129 190.82 364.439 190.97 364.459C191.12 364.479 191.17 365.189 191.09 366.059C191.01 366.929 190.81 367.619 190.66 367.609Z" fill="#455A64"/>
<path d="M190.01 373.91C189.86 373.91 189.81 373.18 189.89 372.31C189.97 371.44 190.17 370.74 190.32 370.76C190.47 370.78 190.52 371.49 190.44 372.36C190.36 373.23 190.19 373.92 190.01 373.91Z" fill="#455A64"/>
<path d="M189.71 377.25C189.56 377.25 189.44 377.18 189.45 377.12C189.46 377.06 189.58 377.04 189.73 377.06C189.88 377.08 190 377.13 190 377.18C190 377.23 189.86 377.26 189.71 377.25Z" fill="#455A64"/>
<path d="M191.81 286.06C191.236 286.962 190.508 287.757 189.66 288.41C188.931 289.193 188.076 289.848 187.13 290.35C188.433 288.662 190.016 287.211 191.81 286.06V286.06Z" fill="#263238"/>
<path d="M194.08 287.28C192.993 288.065 191.806 288.701 190.55 289.17C189.366 289.8 188.1 290.264 186.79 290.55C187.877 289.765 189.064 289.13 190.32 288.66C191.505 288.032 192.77 287.568 194.08 287.28Z" fill="#263238"/>
<path d="M127.28 215.6C127.28 215.6 123.93 179.71 117.98 164L119.16 163.11L117.39 156.92L95.1301 154.22L95.4701 159.05C92.1852 160.529 89.5014 163.083 87.8601 166.29C79.8601 183.23 83.8601 203.01 79.5701 239.66C79.5701 239.66 74.5701 256.85 79.7301 262.23L128.3 250.91L126.01 239.83C147.21 239.43 182.07 235.53 182.07 235.53L181.07 215.47C181.07 215.47 128.98 215.78 127.28 215.6" fill="#455A64"/>
<path d="M117.35 156.89C118.056 158.148 118.597 159.493 118.96 160.89C119.178 161.436 119.325 162.007 119.4 162.59C119.415 162.892 119.315 163.188 119.12 163.42C118.96 163.609 118.753 163.754 118.52 163.84C117.68 164.1 117.2 163.92 117.2 163.84C117.2 163.76 117.72 163.75 118.35 163.45C118.519 163.374 118.661 163.25 118.759 163.093C118.857 162.937 118.906 162.754 118.9 162.57C118.787 162.042 118.633 161.524 118.44 161.02C117.906 159.694 117.54 158.306 117.35 156.89V156.89Z" fill="#E0E0E0"/>
<path d="M122.66 183.61C122.66 183.77 113.66 183.89 102.66 183.89C91.6602 183.89 82.6602 183.77 82.6602 183.61C82.6602 183.45 91.6602 183.34 102.66 183.34C113.66 183.34 122.66 183.5 122.66 183.61Z" fill="#263238"/>
<path d="M120.57 173.499C120.57 173.649 112.63 173.779 102.85 173.779C93.0704 173.779 85.1304 173.649 85.1304 173.499C85.1304 173.349 93.0604 173.229 102.85 173.229C112.64 173.229 120.57 173.349 120.57 173.499Z" fill="#263238"/>
<path d="M117.65 164.61C117.65 164.76 111.09 164.88 102.99 164.88C94.8903 164.88 88.3403 164.76 88.3403 164.61C88.3403 164.46 94.9003 164.33 102.99 164.33C111.08 164.33 117.65 164.5 117.65 164.61Z" fill="#263238"/>
<path d="M117.36 158.33C113.624 158.612 109.876 158.706 106.13 158.61C102.385 158.706 98.6366 158.612 94.9004 158.33C94.9004 158.18 99.9004 158.06 106.13 158.06C112.36 158.06 117.36 158.18 117.36 158.33Z" fill="#263238"/>
<path d="M124.07 193.34C124.07 193.49 114.6 193.61 102.92 193.61C91.24 193.61 81.77 193.49 81.77 193.34C81.77 193.19 91.24 193.06 102.92 193.06C114.6 193.06 124.07 193.18 124.07 193.34Z" fill="#263238"/>
<path d="M125.79 203.11C125.79 203.26 115.94 203.38 103.79 203.38C91.64 203.38 81.79 203.26 81.79 203.11C81.79 202.96 91.64 202.83 103.79 202.83C115.94 202.83 125.79 202.96 125.79 203.11Z" fill="#263238"/>
<path d="M126.87 212.11C126.87 212.27 116.77 212.39 104.32 212.39C91.87 212.39 81.77 212.27 81.77 212.11C81.77 211.95 91.87 211.84 104.32 211.84C116.77 211.84 126.87 211.96 126.87 212.11Z" fill="#263238"/>
<path d="M176.09 221.96C176.09 222.11 154.79 222.23 128.52 222.23C102.25 222.23 80.9404 222.11 80.9404 221.96C80.9404 221.81 102.24 221.68 128.52 221.68C154.8 221.68 176.09 221.81 176.09 221.96Z" fill="#263238"/>
<path d="M176.46 229.84C176.46 230 155 230.12 128.53 230.12C102.06 230.12 80.5903 230 80.5903 229.84C80.5903 229.68 102.05 229.57 128.53 229.57C155.01 229.57 176.46 229.69 176.46 229.84Z" fill="#263238"/>
<path d="M125.25 239.56C125.25 239.72 115 239.84 102.35 239.84C89.7004 239.84 79.4404 239.72 79.4404 239.56C79.4404 239.4 89.6904 239.29 102.35 239.29C115.01 239.29 125.25 239.41 125.25 239.56Z" fill="#263238"/>
<path d="M127.58 248.58C127.58 248.73 116.43 248.86 102.68 248.86C88.9303 248.86 77.7803 248.73 77.7803 248.58C77.7803 248.43 88.9303 248.31 102.68 248.31C116.43 248.31 127.58 248.43 127.58 248.58Z" fill="#263238"/>
<path d="M85.1804 250.97C85.0204 250.97 84.9004 233.48 84.9004 211.91C84.9004 190.34 85.0204 172.85 85.1804 172.85C85.3404 172.85 85.4504 190.34 85.4504 211.91C85.4504 233.48 85.3304 250.97 85.1804 250.97Z" fill="#263238"/>
<path d="M97.1904 250.01C97.0404 250.01 96.9204 228.63 96.9204 202.26C96.9204 175.89 97.0104 154.5 97.1904 154.5C97.3704 154.5 97.4704 175.87 97.4704 202.25C97.4704 228.63 97.3504 250.01 97.1904 250.01Z" fill="#263238"/>
<path d="M110.46 248.58C110.31 248.58 110.19 227.97 110.19 202.58C110.19 177.19 110.31 156.58 110.46 156.58C110.61 156.58 110.74 177.19 110.74 202.58C110.74 227.97 110.62 248.58 110.46 248.58Z" fill="#263238"/>
<path d="M121.61 250.94C121.46 250.94 121.34 234.76 121.34 214.81C121.34 194.86 121.46 178.67 121.61 178.67C121.76 178.67 121.89 194.85 121.89 214.81C121.89 234.77 121.76 250.94 121.61 250.94Z" fill="#263238"/>
<path d="M133.42 215.55C133.55 216.718 133.587 217.895 133.53 219.07C133.53 221.24 133.53 224.23 133.41 227.53C133.29 230.83 133.23 233.83 133.13 235.99C133.121 237.165 133.027 238.338 132.85 239.5C132.719 238.335 132.683 237.161 132.74 235.99C132.74 233.82 132.74 230.83 132.86 227.52C132.98 224.21 133.04 221.22 133.14 219.05C133.137 217.877 133.231 216.707 133.42 215.55V215.55Z" fill="#263238"/>
<path d="M146.01 215.97C146.134 217.065 146.171 218.169 146.12 219.27C146.12 221.27 146.12 224.1 146.02 227.19C145.92 230.28 145.84 233.09 145.75 235.12C145.754 236.219 145.66 237.317 145.47 238.4C145.346 237.311 145.309 236.214 145.36 235.12C145.36 233.12 145.36 230.28 145.47 227.18C145.58 224.08 145.64 221.28 145.74 219.25C145.731 218.15 145.821 217.053 146.01 215.97V215.97Z" fill="#263238"/>
<path d="M158.53 215.75C158.667 216.807 158.707 217.875 158.65 218.94C158.65 220.94 158.65 223.63 158.55 226.63C158.45 229.63 158.38 232.35 158.28 234.31C158.29 235.379 158.2 236.447 158.01 237.5C157.885 236.445 157.845 235.382 157.89 234.32C157.89 232.32 157.89 229.63 158 226.63C158.11 223.63 158.17 220.9 158.26 218.94C158.263 217.871 158.353 216.804 158.53 215.75V215.75Z" fill="#263238"/>
<path d="M171.1 215.399C171.238 216.423 171.278 217.458 171.22 218.489C171.22 220.399 171.22 223.039 171.12 225.949C171.02 228.859 170.96 231.499 170.86 233.399C170.862 234.435 170.775 235.469 170.6 236.489C170.461 235.466 170.418 234.431 170.47 233.399C170.47 231.489 170.47 228.849 170.57 225.939C170.67 223.029 170.74 220.379 170.83 218.479C170.826 217.447 170.917 216.416 171.1 215.399V215.399Z" fill="#263238"/>
<path d="M122.92 220.069C123.825 217.847 125.472 216.006 127.58 214.859C126.847 215.766 126.055 216.625 125.21 217.429C124.503 218.356 123.738 219.238 122.92 220.069Z" fill="#263238"/>
<path d="M125.79 220.309C125.581 219.305 125.657 218.262 126.011 217.298C126.364 216.335 126.981 215.49 127.79 214.859C127.91 214.969 127.07 215.989 126.53 217.489C125.99 218.989 126.01 220.309 125.79 220.309Z" fill="#263238"/>
<path d="M177.01 235.42C176.45 232.247 176.069 229.045 175.87 225.83C175.49 222.627 175.29 219.405 175.27 216.18C175.843 219.354 176.227 222.56 176.42 225.78C176.8 228.979 176.997 232.198 177.01 235.42V235.42Z" fill="#263238"/>
<path d="M177.64 219.96C177.64 220.03 177.36 220.23 177.32 220.73C177.312 220.862 177.329 220.995 177.372 221.12C177.415 221.245 177.483 221.361 177.57 221.46C177.683 221.561 177.824 221.625 177.973 221.645C178.123 221.664 178.276 221.638 178.41 221.57C178.552 221.516 178.674 221.422 178.763 221.299C178.852 221.177 178.903 221.031 178.91 220.88C178.897 220.748 178.857 220.619 178.794 220.503C178.73 220.386 178.644 220.283 178.54 220.2C178.15 219.89 177.78 219.99 177.76 219.91C177.74 219.83 178.13 219.55 178.76 219.91C178.945 220.009 179.102 220.152 179.217 220.326C179.332 220.501 179.402 220.701 179.42 220.91C179.435 221.169 179.367 221.427 179.227 221.645C179.087 221.864 178.882 222.034 178.64 222.13C178.403 222.242 178.137 222.277 177.879 222.23C177.621 222.184 177.384 222.058 177.2 221.87C177.07 221.712 176.979 221.525 176.935 221.325C176.892 221.125 176.897 220.917 176.95 220.72C177.13 219.99 177.65 219.89 177.64 219.96Z" fill="#263238"/>
<path d="M127.22 215.5H127.47L128.2 215.56C128.85 215.63 129.81 215.69 131.07 215.73C133.59 215.83 137.29 215.88 142 215.84C151.41 215.78 164.86 215.43 181 214.84H181.23V215.07C181.55 221.3 181.89 228.07 182.23 235.25V235.48H182.02C179.46 235.96 176.87 236.16 174.22 236.43L166.14 237.13C160.65 237.58 155 238 149.25 238.41L128.11 239.83C121.98 239.44 116.03 237.24 111.87 233.2C109.825 231.251 108.22 228.889 107.16 226.27C106.166 223.798 105.374 221.25 104.79 218.65C102.32 208.65 100.79 199.54 99.5404 191.98C98.9404 188.2 98.4304 184.79 98.0004 181.81C97.5448 179.274 97.2476 176.713 97.1104 174.14C97.0288 172.506 97.3734 170.88 98.1104 169.42C98.363 168.921 98.7015 168.471 99.1104 168.09C98.76 168.521 98.4488 168.983 98.1804 169.47C97.4982 170.927 97.1955 172.534 97.3004 174.14C97.4811 176.701 97.815 179.249 98.3004 181.77C98.7704 184.77 99.3004 188.15 99.9204 191.93C101.18 199.47 102.78 208.52 105.27 218.53C105.861 221.105 106.653 223.629 107.64 226.08C108.682 228.633 110.257 230.935 112.26 232.83C116.26 236.76 122.15 238.91 128.17 239.3L149.3 237.86L166.18 236.59L174.26 235.9C176.89 235.63 179.53 235.43 181.98 234.97L181.78 235.24C181.44 228.09 181.12 221.29 180.78 215.05L181.03 215.28C164.9 215.87 151.45 216.15 142.03 216.13C137.32 216.13 133.62 216.04 131.1 215.89C129.84 215.82 128.87 215.74 128.22 215.64L127.49 215.55C127.399 215.546 127.308 215.529 127.22 215.5Z" fill="#263238"/>
<path d="M127.22 215.5C127 214.994 126.826 214.468 126.7 213.93C126.41 212.93 126.01 211.43 125.53 209.59C124.53 205.92 123.38 200.81 122.1 195.17C120.82 189.53 119.65 184.42 118.77 180.73L117.77 176.36C117.614 175.832 117.51 175.289 117.46 174.74C117.675 175.249 117.849 175.774 117.98 176.31C118.29 177.31 118.69 178.8 119.18 180.64C120.18 184.3 121.4 189.4 122.68 195.05C123.96 200.7 125.01 205.71 125.91 209.5C126.31 211.28 126.65 212.75 126.91 213.88C127.054 214.412 127.158 214.953 127.22 215.5Z" fill="#263238"/>
<path d="M117.42 157.31C117.429 157.679 117.392 158.049 117.31 158.41C117.21 159.12 117.05 160.13 116.83 161.41C116.734 162.108 116.594 162.799 116.41 163.48C116.349 163.705 116.236 163.913 116.079 164.087C115.923 164.261 115.728 164.395 115.51 164.48C115.071 164.595 114.609 164.595 114.17 164.48C112.52 164.14 110.72 163.7 108.84 163.19C105.09 162.19 101.75 161.08 99.3202 160.33L96.4502 159.43C96.1019 159.342 95.766 159.211 95.4502 159.04C95.82 159.05 96.1866 159.111 96.5402 159.22C97.2402 159.38 98.2402 159.62 99.4702 159.96C101.93 160.61 105.29 161.63 109.03 162.66C110.9 163.17 112.68 163.66 114.32 163.99C114.672 164.104 115.047 164.128 115.41 164.06C115.559 164.005 115.693 163.916 115.801 163.799C115.909 163.683 115.987 163.542 116.03 163.39C116.25 162.75 116.34 162.01 116.49 161.39C116.75 160.15 116.98 159.15 117.14 158.45C117.178 158.058 117.272 157.674 117.42 157.31V157.31Z" fill="#263238"/>
<path d="M99.9204 295.75L106.9 390.62L109.83 389.94L108.74 297.75L99.9204 295.75Z" fill="#263238"/>
<path d="M70.2901 299.05L49.0601 390.51H52.9001L83.2901 299.05H70.2901Z" fill="#263238"/>
<path d="M126.45 299.05L155.41 390.51H158.51L135.5 299.05H126.45Z" fill="#263238"/>
<path d="M130.32 305.189L65.4204 347.599V349.919L132.13 305.189H130.32Z" fill="#263238"/>
<path d="M75.25 305.19L145.58 352.51V348.89L77.32 303.12L75.25 305.19Z" fill="#263238"/>
<path d="M60.6005 300.619L144.22 299.109C144.969 299.095 145.707 298.924 146.386 298.607C147.064 298.29 147.669 297.834 148.16 297.268C148.651 296.703 149.018 296.04 149.237 295.324C149.456 294.607 149.522 293.853 149.43 293.109C149.279 291.794 148.643 290.581 147.647 289.709C146.65 288.836 145.365 288.366 144.04 288.39L59.2305 289.75L60.6005 300.619Z" fill="#0AAFF7"/>
<g opacity="0.2">
<path d="M60.6005 300.619L144.22 299.109C144.969 299.095 145.707 298.924 146.386 298.607C147.064 298.29 147.669 297.834 148.16 297.268C148.651 296.703 149.018 296.04 149.237 295.324C149.456 294.607 149.522 293.853 149.43 293.109C149.279 291.794 148.643 290.581 147.647 289.709C146.65 288.836 145.365 288.366 144.04 288.39L59.2305 289.75L60.6005 300.619Z" fill="black"/>
</g>
<path d="M52.0802 235.98L60.5202 300.62L126.45 299.05L126.28 259.79C126.303 258.247 126.002 256.717 125.395 255.298C124.788 253.879 123.89 252.604 122.758 251.556C121.626 250.507 120.287 249.708 118.826 249.211C117.366 248.714 115.817 248.529 114.28 248.67L64.0102 253.21L57.3902 184.7L50.7102 184.13C50.0125 184.079 49.3122 184.184 48.6604 184.438C48.0086 184.692 47.4218 185.089 46.9427 185.598C46.4636 186.108 46.1043 186.718 45.8911 187.385C45.6779 188.051 45.6161 188.756 45.7102 189.45L52.0802 235.98Z" fill="#0AAFF7"/>
</g>
<defs>
<clipPath id="clip0_51_2">
<rect width="403.99" height="391.08" fill="white"/>
</clipPath>
</defs>
</svg>
