<svg width="484" height="422" viewBox="0 0 484 422" fill="none" xmlns="http://www.w3.org/2000/svg">
<path d="M394.85 93.28V66.0701L378.34 63.2701C377.483 60.6577 376.43 58.1138 375.19 55.66L384.88 42.01L365.68 22.7601L352.02 32.4601C349.572 31.2141 347.031 30.1609 344.42 29.3101L341.62 12.8H314.4L311.6 29.3101C308.989 30.1609 306.447 31.2141 304 32.4601L290.34 22.7601L271.1 42.01L280.79 55.66C279.546 58.1119 278.493 60.6561 277.64 63.2701L261.13 66.0701V93.28L277.64 96.08C278.491 98.6946 279.544 101.239 280.79 103.69L271.1 117.34L290.34 136.59L304 126.89C306.447 128.136 308.989 129.189 311.6 130.04L314.4 146.55H341.62L344.42 130.04C347.031 129.189 349.572 128.136 352.02 126.89L365.68 136.59L384.92 117.34L375.23 103.69C376.472 101.237 377.525 98.693 378.38 96.08L394.85 93.28ZM327.97 121C319.795 121 311.804 118.576 305.007 114.034C298.21 109.492 292.913 103.037 289.785 95.484C286.657 87.9314 285.839 79.6208 287.435 71.6033C289.03 63.5858 292.968 56.2215 298.749 50.4418C304.53 44.6621 311.895 40.7266 319.913 39.133C327.931 37.5394 336.241 38.3593 343.793 41.489C351.345 44.6187 357.799 49.9176 362.339 56.7156C366.88 63.5136 369.302 71.5053 369.3 79.6801C369.3 90.6336 364.951 101.139 357.208 108.887C349.466 116.635 338.963 120.992 328.01 121H327.97Z" fill="#E3F6FE"/>
<path d="M328.01 115.26C320.97 115.26 314.089 113.173 308.236 109.261C302.383 105.35 297.822 99.7913 295.128 93.2875C292.435 86.7837 291.73 79.6272 293.105 72.7232C294.479 65.8191 297.869 59.4776 302.848 54.5006C307.826 49.5237 314.168 46.1348 321.073 44.7627C327.977 43.3906 335.134 44.0968 341.637 46.7921C348.14 49.4873 353.697 54.0506 357.607 59.9046C361.516 65.7587 363.602 72.6406 363.6 79.6801C363.6 84.3534 362.679 88.9809 360.891 93.2983C359.102 97.6157 356.48 101.538 353.175 104.842C349.87 108.147 345.947 110.767 341.629 112.555C337.311 114.342 332.683 115.261 328.01 115.26Z" fill="#C1EDFF"/>
<path d="M317 80L324.12 87.13L339.02 72.22" stroke="#FEFEFE" stroke-width="5" stroke-miterlimit="10"/>
<path d="M164.09 146.65H103.82C46.4818 146.65 0 193.129 0 250.465C0 307.8 46.4818 354.28 103.82 354.28H164.09C221.428 354.28 267.91 307.8 267.91 250.465C267.91 193.129 221.428 146.65 164.09 146.65Z" fill="#C1EDFF"/>
<path d="M264.14 355.15L251.01 324.64L237.88 294.14L220.51 311.51L203.13 328.88L233.64 342.01L264.14 355.15Z" fill="#C1EDFF"/>
<path d="M183.44 42.9299H162.6V63.7699H183.44V42.9299Z" stroke="#EBF1FF" stroke-miterlimit="10"/>
<path d="M222.14 47.8701H193.42V50.6601H222.14V47.8701Z" fill="#C1EDFF"/>
<path d="M204.93 56.05H193.42V58.84H204.93V56.05Z" fill="#C1EDFF"/>
<path d="M227.05 56.05H207.99V58.84H227.05V56.05Z" fill="#C1EDFF"/>
<path d="M239.03 47.8701H227.05V50.6601H239.03V47.8701Z" fill="#C1EDFF"/>
<path d="M166.24 50.4L172.93 54.52C176.361 48.2592 180.686 42.5323 185.77 37.52" stroke="#6BCEF8" stroke-width="3" stroke-miterlimit="10"/>
<path d="M183.44 77.8301H162.6V98.6701H183.44V77.8301Z" stroke="#EBF1FF" stroke-miterlimit="10"/>
<path d="M222.14 82.77H193.42V85.56H222.14V82.77Z" fill="#C1EDFF"/>
<path d="M204.93 90.95H193.42V93.74H204.93V90.95Z" fill="#C1EDFF"/>
<path d="M227.05 90.95H207.99V93.74H227.05V90.95Z" fill="#C1EDFF"/>
<path d="M239.03 82.77H227.05V85.56H239.03V82.77Z" fill="#C1EDFF"/>
<path d="M166.24 85.2999L172.93 89.4299C176.363 83.1708 180.689 77.4442 185.77 72.4299" stroke="#6BCEF8" stroke-width="3" stroke-miterlimit="10"/>
<path d="M183.44 112.73H162.6V133.57H183.44V112.73Z" stroke="#EBF1FF" stroke-miterlimit="10"/>
<path d="M222.14 117.67H193.42V120.46H222.14V117.67Z" fill="#C1EDFF"/>
<path d="M204.93 125.85H193.42V128.64H204.93V125.85Z" fill="#C1EDFF"/>
<path d="M227.05 125.85H207.99V128.64H227.05V125.85Z" fill="#C1EDFF"/>
<path d="M239.03 117.67H227.05V120.46H239.03V117.67Z" fill="#C1EDFF"/>
<path d="M166.24 120.2L172.93 124.33C176.363 118.071 180.689 112.344 185.77 107.33" stroke="#6BCEF8" stroke-width="3" stroke-miterlimit="10"/>
<path d="M153.09 143.26V16.4199H245.98V149.63H176.22" stroke="#6BCEF8" stroke-width="0.75" stroke-miterlimit="10"/>
<path d="M187.456 31.1459V32.52H181.727V25.121H187.319V26.4951H183.429V28.1018H186.864V29.4336H183.429V31.1459H187.456ZM190.351 26.5163H187.984V25.121H194.431V26.5163H192.064V32.52H190.351V26.5163ZM202.139 25.121V32.52H200.426V29.4864H197.065V32.52H195.353V25.121H197.065V28.0383H200.426V25.121H202.139ZM203.889 25.121H205.602V32.52H203.889V25.121ZM210.899 32.6469C210.145 32.6469 209.461 32.4848 208.848 32.1606C208.242 31.8294 207.763 31.3749 207.41 30.7971C207.065 30.2122 206.893 29.5534 206.893 28.8205C206.893 28.0877 207.065 27.4323 207.41 26.8545C207.763 26.2696 208.242 25.8151 208.848 25.491C209.461 25.1598 210.148 24.9942 210.909 24.9942C211.55 24.9942 212.128 25.1069 212.643 25.3324C213.164 25.5579 213.601 25.8821 213.953 26.3049L212.854 27.3196C212.354 26.7418 211.734 26.4528 210.994 26.4528C210.536 26.4528 210.127 26.555 209.768 26.7594C209.408 26.9567 209.126 27.235 208.922 27.5944C208.725 27.9538 208.626 28.3625 208.626 28.8205C208.626 29.2786 208.725 29.6873 208.922 30.0466C209.126 30.406 209.408 30.6879 209.768 30.8922C210.127 31.0895 210.536 31.1882 210.994 31.1882C211.734 31.1882 212.354 30.8958 212.854 30.3109L213.953 31.3256C213.601 31.7555 213.164 32.0831 212.643 32.3086C212.121 32.5341 211.54 32.6469 210.899 32.6469ZM217.479 32.6469C216.894 32.6469 216.327 32.5693 215.777 32.4143C215.234 32.2522 214.798 32.0444 214.466 31.7907L215.048 30.5011C215.365 30.7337 215.742 30.9204 216.179 31.0614C216.616 31.2023 217.052 31.2728 217.489 31.2728C217.976 31.2728 218.335 31.2023 218.567 31.0614C218.8 30.9134 218.916 30.7196 218.916 30.48C218.916 30.3038 218.846 30.1594 218.705 30.0466C218.571 29.9268 218.395 29.8317 218.176 29.7612C217.965 29.6908 217.676 29.6133 217.31 29.5287C216.746 29.3948 216.284 29.2609 215.925 29.127C215.566 28.9932 215.256 28.7782 214.995 28.4823C214.741 28.1863 214.614 27.7917 214.614 27.2984C214.614 26.8686 214.731 26.481 214.963 26.1357C215.196 25.7834 215.544 25.5051 216.01 25.3007C216.482 25.0964 217.056 24.9942 217.732 24.9942C218.205 24.9942 218.666 25.0506 219.117 25.1633C219.568 25.276 219.963 25.4381 220.301 25.6495L219.772 26.9496C219.089 26.5621 218.405 26.3683 217.722 26.3683C217.243 26.3683 216.887 26.4458 216.654 26.6008C216.429 26.7558 216.316 26.9602 216.316 27.2139C216.316 27.4676 216.446 27.6578 216.707 27.7847C216.975 27.9045 217.38 28.0242 217.923 28.144C218.486 28.2779 218.948 28.4118 219.307 28.5457C219.667 28.6796 219.973 28.891 220.227 29.1799C220.488 29.4688 220.618 29.8599 220.618 30.3532C220.618 30.776 220.498 31.1635 220.259 31.5159C220.026 31.8612 219.674 32.136 219.202 32.3403C218.73 32.5447 218.155 32.6469 217.479 32.6469Z" fill="#6BCEF8"/>
<path d="M219.93 9.1001H179.15C177.41 9.1001 176 10.5104 176 12.2501V16.2401C176 17.9798 177.41 19.3901 179.15 19.3901H219.93C221.67 19.3901 223.08 17.9798 223.08 16.2401V12.2501C223.08 10.5104 221.67 9.1001 219.93 9.1001Z" fill="#6BCEF8"/>
<path d="M199.54 0C197.651 0.00264974 195.84 0.755014 194.505 2.09186C193.17 3.42871 192.42 5.24074 192.42 7.13V14.25H206.66V7.13C206.66 5.24074 205.91 3.42871 204.575 2.09186C203.24 0.755014 201.429 0.00264974 199.54 0V0ZM199.54 9.1C198.992 9.1 198.457 8.93754 198.001 8.63317C197.545 8.3288 197.19 7.89619 196.981 7.39003C196.771 6.88388 196.716 6.32693 196.823 5.7896C196.93 5.25227 197.194 4.75871 197.581 4.37132C197.969 3.98392 198.462 3.72011 199 3.61322C199.537 3.50634 200.094 3.5612 200.6 3.77085C201.106 3.98051 201.539 4.33554 201.843 4.79107C202.147 5.24659 202.31 5.78215 202.31 6.33C202.31 7.06465 202.018 7.76921 201.499 8.28868C200.979 8.80816 200.275 9.1 199.54 9.1Z" fill="#6BCEF8"/>
<path d="M298.688 176.017C302.389 152.911 286.658 131.18 263.552 127.479C240.446 123.778 218.715 139.508 215.014 162.614C211.313 185.72 227.044 207.451 250.15 211.152C273.255 214.853 294.987 199.122 298.688 176.017Z" stroke="#C1EDFF" stroke-width="0.5" stroke-miterlimit="10"/>
<path d="M256.83 211.67C271.88 211.67 284.08 192.7 284.08 169.3C284.08 145.9 271.88 126.93 256.83 126.93C241.78 126.93 229.58 145.9 229.58 169.3C229.58 192.7 241.78 211.67 256.83 211.67Z" stroke="#C1EDFF" stroke-width="0.5" stroke-miterlimit="10"/>
<path d="M291.61 145.1C268.867 151.513 244.793 151.513 222.05 145.1" stroke="#C1EDFF" stroke-width="0.5" stroke-miterlimit="10"/>
<path d="M222.05 193.52C244.72 187.116 268.717 187.091 291.4 193.45" stroke="#C1EDFF" stroke-width="0.5" stroke-miterlimit="10"/>
<path d="M299.2 169.3H214.46" stroke="#C1EDFF" stroke-width="0.5" stroke-miterlimit="10"/>
<path d="M256.83 126.92V211.67" stroke="#C1EDFF" stroke-width="0.5" stroke-miterlimit="10"/>
<path d="M274.85 172.86V165.52L270.4 164.76C270.168 164.056 269.884 163.371 269.55 162.71L272.16 159.03L266.97 153.83L263.29 156.45C262.645 156.118 261.976 155.834 261.29 155.6L260.53 151.14H253.19L252.43 155.6C251.726 155.831 251.041 156.115 250.38 156.45L246.7 153.83L241.5 159.03L244.12 162.71C243.785 163.371 243.501 164.056 243.27 164.76L238.82 165.52V172.86L243.27 173.61C243.501 174.317 243.785 175.005 244.12 175.67L241.5 179.35L246.7 184.54L250.38 181.93C251.043 182.26 251.728 182.544 252.43 182.78L253.19 187.23H260.53L261.29 182.78C261.975 182.542 262.643 182.258 263.29 181.93L266.97 184.54L272.16 179.35L269.55 175.67C269.884 175.005 270.168 174.317 270.4 173.61L274.85 172.86ZM256.85 176.52C255.392 176.52 253.967 176.088 252.755 175.278C251.543 174.468 250.599 173.317 250.041 171.97C249.483 170.624 249.337 169.142 249.621 167.712C249.906 166.282 250.608 164.969 251.638 163.939C252.669 162.908 253.982 162.206 255.412 161.922C256.842 161.637 258.324 161.783 259.67 162.341C261.017 162.899 262.168 163.843 262.978 165.055C263.788 166.267 264.22 167.692 264.22 169.15C264.22 171.105 263.443 172.979 262.061 174.361C260.679 175.743 258.804 176.52 256.85 176.52Z" fill="#6BCEF8"/>
<path d="M396.06 179.64H345.16C296.758 179.64 257.52 218.878 257.52 267.28V267.29C257.52 315.692 296.758 354.93 345.16 354.93H396.06C444.462 354.93 483.7 315.692 483.7 267.29V267.28C483.7 218.878 444.462 179.64 396.06 179.64Z" fill="#C1EDFF"/>
<path d="M270.49 366.91L319.5 337.7L302.76 324.85L286.01 312.01L270.49 366.91Z" fill="#C1EDFF"/>
<path d="M386.74 262.7L403.93 354.51H452.12L432.92 262.7H386.74Z" fill="#455A64"/>
<path d="M352.05 262.7L360.93 354.51H414.39L399.23 262.7H352.05Z" fill="#455A64"/>
<path opacity="0.2" d="M393.78 303.66L397.69 354.51" stroke="white" stroke-miterlimit="10"/>
<path d="M408.64 354.52L402.03 304.58C402.03 304.58 393.03 298.58 386.74 293.77C386.74 293.76 390.24 331.13 408.64 354.52Z" fill="#0C0A0B"/>
<path opacity="0.2" d="M424.32 262.7L442.19 354.51" stroke="white" stroke-miterlimit="10"/>
<path d="M352.64 268.78H434.19" stroke="#0C0A0B" stroke-width="0.75" stroke-miterlimit="10"/>
<path d="M370.37 262.7C370.37 262.7 376 282.7 385.1 288.36L380.39 262.7" stroke="#0C0A0B" stroke-width="0.75" stroke-miterlimit="10"/>
<path d="M408.64 262.7L410.42 272.8" stroke="#0C0A0B" stroke-width="0.75" stroke-miterlimit="10"/>
<path d="M357.6 262.7L359.37 272.8" stroke="#0C0A0B" stroke-width="0.75" stroke-miterlimit="10"/>
<path d="M340.99 107.88C340.99 107.88 330.05 100.33 328.4 92.19C327.4 87.37 335.53 79.63 335.53 79.63C335.53 79.63 331.86 70.87 332.97 69.44C334.08 68.01 351.15 72.72 351.15 72.72C351.15 72.72 352.22 67.96 353.74 67.38C355.26 66.8 371.07 75.45 371.07 75.45C371.07 75.45 371.59 70.65 372.5 70.54C373.41 70.43 374.56 76.16 374.56 76.16C374.56 76.16 380.91 72.55 382.64 73.33C384.37 74.11 378.17 79.39 378.17 79.39C378.17 79.39 384.4 80.1 384.72 81.62C385.04 83.14 381.72 108.71 381.72 108.71L340.99 107.88Z" fill="#0C0A0B"/>
<path d="M308.64 251.42C308.64 251.42 327.28 260.04 347.37 253.8C347.37 253.8 332.24 241.38 308.64 251.42Z" fill="#0C0A0B"/>
<path d="M320.85 318.81H336.12L344 242.42C344 242.42 332.85 228.68 327.85 228C327.85 228 321.41 231.76 320.05 237.14C318.69 242.52 320.85 318.81 320.85 318.81Z" fill="#FFA8A7"/>
<path d="M333.12 145.14C321.05 146.76 314.85 241.35 314.85 241.35L347.19 246.19C347.19 246.19 343.46 143.75 333.12 145.14Z" fill="#6BCEF8"/>
<path d="M347.37 253.8C347.37 253.8 352.54 248.8 347.75 244.11C342.96 239.42 316.75 239.5 316.75 239.5C316.75 239.5 308.75 239.99 311.1 246.06C310.563 246.218 310.066 246.488 309.642 246.852C309.217 247.217 308.875 247.668 308.639 248.175C308.402 248.682 308.277 249.234 308.27 249.793C308.263 250.353 308.376 250.907 308.6 251.42C308.6 251.42 331.53 243.62 347.37 253.8Z" fill="#C1EDFF"/>
<path d="M433.17 262.7H352.3C352.3 262.7 341.49 253.58 342.08 247.97C342.93 239.81 340.93 186.74 333.08 145.14C332.65 142.84 358.33 142.14 358.33 142.14L377.85 143.24C387.14 144.85 403.52 149.64 409.22 157.73C413.22 163.45 425.02 217.73 431.86 246.65C431.86 246.65 437.39 251.97 438.48 255.77C439.57 259.57 433.17 262.7 433.17 262.7Z" fill="#6BCEF8"/>
<path d="M336.24 164.32C336.24 164.32 341.24 205.21 341.76 224.53" stroke="#0C0A0B" stroke-width="0.75" stroke-miterlimit="10"/>
<path d="M353.56 142.35C353.56 142.35 355.3 169.2 371.41 180.67" stroke="#0C0A0B" stroke-width="0.75" stroke-miterlimit="10"/>
<path d="M402.29 228.1C413.53 209.88 406.99 194.43 406.99 194.43L399.47 224.52L402.29 228.1Z" fill="#0C0A0B"/>
<path d="M304.99 214.98C304.99 214.98 290.58 211.07 286.9 211.15C283.22 211.23 279.98 215.45 279.98 215.45C279.98 215.45 269.21 226.45 268.31 228.17C265.68 233.17 270.58 230.89 270.58 230.89C270.418 231.211 270.345 231.57 270.37 231.929C270.395 232.288 270.516 232.634 270.721 232.93C270.925 233.226 271.206 233.461 271.533 233.611C271.861 233.76 272.222 233.819 272.58 233.78C275.15 233.95 276.29 233.95 276.29 233.95C276.29 233.95 275.96 235.25 278.29 236.08C280.62 236.91 295.5 238.16 303.44 229.56L304.99 214.98Z" fill="#FFA8A7"/>
<path d="M393.92 155.72C387.92 154.72 375.04 211.15 375.04 211.15C375.04 211.15 393.42 226.51 396.4 233.15C396.4 233.19 424.64 160.76 393.92 155.72Z" fill="#6BCEF8"/>
<path d="M368.33 211.15C368.33 211.15 375.33 233.96 397.56 236.67C397.56 236.67 389.73 212.72 368.33 211.15Z" fill="#0C0A0B"/>
<path d="M303.42 229.52L304.99 214.94L382.94 212.27C382.94 212.27 395.85 224.43 396.15 229.52C396.15 229.52 391.93 235.66 386.47 236.63C381.01 237.6 303.42 229.52 303.42 229.52Z" fill="#FFA8A7"/>
<path d="M368.33 211.15C368.33 211.15 368.19 203.94 374.87 203.99C381.55 204.04 400.14 222.46 400.14 222.46C400.14 222.46 405.5 228.46 399.55 231.09C399.813 231.583 399.97 232.125 400.01 232.682C400.051 233.238 399.975 233.798 399.787 234.323C399.598 234.849 399.302 235.329 398.917 235.733C398.531 236.138 398.066 236.457 397.55 236.67C397.55 236.67 386.76 215.04 368.33 211.15Z" fill="#C1EDFF"/>
<path d="M376.41 204.26C376.41 204.26 388.52 162.26 390.73 157.35C392.04 154.35 396.15 154.74 397.56 155.7" stroke="#0C0A0B" stroke-width="0.75" stroke-miterlimit="10"/>
<path d="M417.28 241.35C417.28 241.35 427.87 242.18 431.84 246.65" stroke="#0C0A0B" stroke-width="0.75" stroke-miterlimit="10"/>
<path d="M368.24 362.28L372.63 413.06C372.63 413.06 323.57 430.14 285.19 414.31L284.75 365.92L368.24 362.28Z" fill="#9B646A"/>
<path d="M370.16 384.03L370.5 388.37C370.5 388.37 335.13 400.8 327.71 400.74C320.29 400.68 284.99 392.05 284.99 392.05L284.92 385.21L370.16 384.03Z" fill="#0C0A0B"/>
<path d="M340.53 330.11L303.33 332.58L297.14 351.89L303.7 353.59L306.02 337.65L336.71 334.65L344.12 353.06L351.17 352.25L340.53 330.11Z" fill="#A0606E"/>
<path d="M370.16 384.03L367.09 349.16L285.09 350.28L284.91 385.21C284.91 385.21 314.53 397.63 328.15 396.79C341.77 395.95 370.16 384.03 370.16 384.03Z" fill="#A0606E"/>
<path d="M334.36 391.68L335.17 401.24C335.17 401.24 330.05 405.68 325.04 402.14L324.31 392.02L334.36 391.68Z" fill="#FBCA8C"/>
<path d="M285.1 350.28L279.28 352.69L276.19 410.96L285.19 414.31L285.1 350.28Z" fill="#0C0A0B"/>
<path d="M320.85 318.81C320.85 318.81 316.1 326.2 315.51 327.16C314.92 328.12 318.82 338.46 321.02 338.74C323.22 339.02 323.45 331.24 323.45 331.24L334.12 330.53C334.12 330.53 338.47 324.93 336.12 318.82L320.85 318.81Z" fill="#FFA8A7"/>
<path d="M323.49 331.24C324.17 330.054 325.163 329.079 326.36 328.42C327.98 327.76 329.36 330.85 329.36 330.85C329.36 330.85 329.62 327.85 330.46 327.97C331.3 328.09 332.63 329.74 332.63 329.74C332.63 329.74 333.47 327.86 334.32 328.34C335.17 328.82 335.32 337.24 334.05 337.51C332.78 337.78 330.95 336.45 330.95 336.45C330.95 336.45 330.1 337.93 328.95 338.01C327.8 338.09 327.13 336.66 327.13 336.66C327.13 336.66 324.88 338.91 324.13 338.46C323.38 338.01 321.85 333.32 323.49 331.24Z" fill="#FFA1A8"/>
<path d="M325.99 324.63C325.99 324.63 324.22 328.68 322.31 329.5C322.31 329.5 323.91 333.14 322.99 335.66" stroke="#0C0A0B" stroke-width="0.75" stroke-miterlimit="10"/>
<path d="M324.22 327.73C324.22 327.73 327.54 327.95 327.35 329.87" stroke="#0C0A0B" stroke-width="0.75" stroke-miterlimit="10"/>
<path d="M327.14 330.28C327.14 330.28 328.14 327.56 329.28 327.28C330.42 327 330.97 329.95 330.97 329.95" stroke="#0C0A0B" stroke-width="0.75" stroke-miterlimit="10"/>
<path d="M330.79 329.21C330.79 329.21 331.63 327.04 332.79 326.9C333.95 326.76 334.66 328.65 334.79 329.57" stroke="#0C0A0B" stroke-width="0.75" stroke-miterlimit="10"/>
<path d="M383.46 143.88C383.46 143.88 378.37 174.08 368.33 184.75" stroke="#0C0A0B" stroke-width="0.75" stroke-miterlimit="10"/>
<path d="M358.51 142.8C359.316 154.028 363.538 164.741 370.61 173.5C370.61 173.5 376.85 154.69 377.85 143.24L368.21 143.79L358.51 142.8Z" fill="#B3D3E0"/>
<path d="M377.85 143.24L376.15 108.41L358.63 110.32L358.53 142.8C358.53 142.8 359.96 149.34 368.19 149.34C376.42 149.34 377.85 143.24 377.85 143.24Z" fill="#FFA8A7"/>
<path d="M358.53 136.26V129.93C358.53 129.93 366.3 129.77 372.37 121.15C372.39 121.15 370.16 134.86 358.53 136.26Z" fill="#0C0A0B"/>
<path d="M338.11 108.58C338.166 109.996 338.323 111.406 338.58 112.8C338.998 115.113 339.724 117.36 340.74 119.48C343.38 124.96 347.98 129.14 354.44 129.93C361.53 130.79 368.44 126.78 372.35 120.76C379.46 109.87 381.35 89.13 368.65 81.76C367.294 80.9585 365.819 80.3779 364.28 80.04C357.28 78.49 349.79 82.18 344.97 87.79C340.174 93.6238 337.728 101.038 338.11 108.58V108.58Z" fill="#FFA8A7"/>
<path d="M357.74 103.89C357.038 103.396 356.239 103.058 355.395 102.899C354.551 102.74 353.684 102.765 352.85 102.97" stroke="#0C0A0B" stroke-width="0.75" stroke-miterlimit="10" stroke-linecap="round"/>
<path d="M348.09 103.89C347.388 103.396 346.589 103.058 345.745 102.899C344.901 102.74 344.034 102.765 343.2 102.97" stroke="#0C0A0B" stroke-width="0.75" stroke-miterlimit="10" stroke-linecap="round"/>
<path d="M353.3 107.52C353.292 107.817 353.372 108.109 353.531 108.36C353.689 108.611 353.918 108.809 354.189 108.93C354.46 109.05 354.76 109.088 355.053 109.038C355.345 108.988 355.616 108.852 355.831 108.648C356.047 108.444 356.196 108.181 356.262 107.891C356.328 107.602 356.306 107.3 356.2 107.023C356.094 106.746 355.908 106.507 355.666 106.335C355.424 106.164 355.136 106.068 354.84 106.06C354.643 106.055 354.447 106.088 354.263 106.159C354.079 106.229 353.91 106.335 353.767 106.471C353.624 106.607 353.509 106.769 353.429 106.949C353.349 107.129 353.305 107.323 353.3 107.52V107.52Z" fill="#0C0A0B"/>
<path d="M344.18 107.3C344.173 107.497 344.206 107.694 344.276 107.879C344.346 108.063 344.452 108.232 344.588 108.375C344.724 108.519 344.887 108.634 345.067 108.713C345.248 108.793 345.443 108.836 345.64 108.84C345.937 108.848 346.229 108.768 346.48 108.609C346.731 108.451 346.929 108.222 347.05 107.951C347.17 107.68 347.208 107.379 347.158 107.087C347.108 106.795 346.972 106.524 346.768 106.309C346.564 106.093 346.301 105.943 346.011 105.878C345.722 105.812 345.42 105.834 345.143 105.94C344.866 106.046 344.627 106.232 344.455 106.474C344.284 106.716 344.188 107.004 344.18 107.3V107.3Z" fill="#0C0A0B"/>
<path d="M349.13 113.38C348.975 113.742 348.747 114.067 348.46 114.336C348.172 114.605 347.832 114.81 347.46 114.94C347.11 115.11 346.75 115.23 346.46 115.38C346.322 115.434 346.191 115.505 346.07 115.59C346.07 115.59 346.07 115.64 346.07 115.59C346.066 115.63 346.066 115.67 346.07 115.71C346.185 115.956 346.389 116.149 346.64 116.25C346.96 116.418 347.294 116.555 347.64 116.66C348.33 116.88 349.05 117.08 349.79 117.28C349.031 117.4 348.259 117.4 347.5 117.28C347.104 117.214 346.718 117.1 346.35 116.94C346.122 116.854 345.914 116.721 345.742 116.548C345.569 116.376 345.436 116.168 345.35 115.94C345.324 115.794 345.324 115.645 345.35 115.5C345.386 115.324 345.486 115.167 345.63 115.06C345.809 114.92 346.012 114.815 346.23 114.75C346.61 114.62 346.96 114.53 347.32 114.43C348.016 114.272 348.648 113.906 349.13 113.38Z" fill="#0C0A0B"/>
<path d="M355.85 115.05C355.58 117.05 357.75 119.05 360.7 119.43C363.65 119.81 366.25 118.48 366.51 116.43C366.77 114.38 364.61 112.43 361.67 112.05C358.73 111.67 356.11 113.02 355.85 115.05Z" fill="#F2727C"/>
<path d="M338.58 112.8C338.998 115.113 339.724 117.36 340.74 119.48C342.56 118.48 343.59 116.79 343.2 115.26C342.81 113.73 340.85 112.68 338.58 112.8Z" fill="#F2727C"/>
<path d="M347.64 121.91C347.64 121.91 351.43 129.28 356.36 121.11L347.64 121.91Z" fill="white"/>
<path d="M373.28 117.18C374.466 117.844 375.807 118.183 377.166 118.162C378.525 118.141 379.855 117.761 381.02 117.06C382.143 116.284 383.059 115.245 383.688 114.033C384.317 112.822 384.64 111.475 384.63 110.11C384.666 108.892 384.375 107.687 383.785 106.621C383.196 105.555 382.33 104.667 381.28 104.05C380.174 103.546 378.919 103.479 377.766 103.861C376.613 104.243 375.646 105.046 375.06 106.11L373.28 117.18Z" fill="#FFA8A7"/>
<path d="M376.95 113.92C377.796 113.545 378.558 113.005 379.19 112.33C379.796 111.715 380.17 110.909 380.25 110.05C380.27 109.631 380.195 109.212 380.031 108.826C379.866 108.44 379.617 108.096 379.3 107.82C378.597 107.233 377.752 106.84 376.85 106.68C377.838 106.556 378.838 106.798 379.66 107.36C380.098 107.663 380.451 108.073 380.685 108.551C380.92 109.028 381.028 109.558 381 110.09C380.956 110.604 380.809 111.105 380.569 111.561C380.328 112.018 379.999 112.422 379.6 112.75C378.854 113.396 377.931 113.804 376.95 113.92Z" fill="#0C0A0B"/>
<path d="M337.93 82.2201C337.93 82.2201 339.3 91.7001 345.7 95.9101C352.1 100.12 363.39 100.59 365.33 100.01C367.27 99.4301 362.7 93.1001 362.7 93.1001C362.7 93.1001 372.44 98.3301 376.46 95.4201C380.48 92.5101 375.9 68.4101 337.93 82.2201Z" fill="#0C0A0B"/>
<path d="M375.04 86.45C375.04 86.45 369.42 98.8599 370.5 102.28C371.44 105.22 377.83 103.84 377.83 103.84C377.83 103.84 384.59 90.59 375.04 86.45Z" fill="#0C0A0B"/>
<path d="M83.8501 262.7C83.8501 262.7 54.5001 277.7 39.1401 354.51H155.47L167.1 262.7H83.8501Z" fill="#455A64"/>
<path d="M76.3501 268.78H166.33" stroke="#0C0A0B" stroke-width="0.75" stroke-miterlimit="10"/>
<path opacity="0.2" d="M117.93 316.52L112.84 354.51" stroke="white" stroke-miterlimit="10"/>
<path opacity="0.2" d="M88.3401 262.7C88.3401 262.7 57.7901 305.32 52.3701 354.52" stroke="white" stroke-miterlimit="10"/>
<path d="M128.34 304.12C128.34 304.12 117.45 334.12 103.13 354.51H97.3403L106.26 317.32C106.26 317.32 122.1 311.41 128.34 304.12Z" fill="#0C0A0B"/>
<path d="M142.16 262.7C142.16 262.7 138.39 285.7 133.96 293.7C133.96 293.7 149.25 289.64 153.18 262.7" stroke="#0C0A0B" stroke-width="0.75" stroke-miterlimit="10"/>
<path d="M247.33 208.34C247.33 208.34 255.72 223.68 242.66 233.34C242.66 233.34 234.93 220.01 247.33 208.34Z" fill="#0C0A0B"/>
<path d="M279.98 215.45L283.67 214.89C283.67 214.89 286.58 220.04 288.03 220.04C289.48 220.04 289.82 214.89 288.93 213.44C288.04 211.99 283.67 207.74 281.88 208.44C280.09 209.14 260.32 215.01 260.32 215.01L261.85 229.52C264.03 231.52 267.64 231 267.64 231C267.583 230.301 267.674 229.598 267.906 228.936C268.139 228.275 268.508 227.67 268.99 227.16C271 224.95 279.98 215.45 279.98 215.45Z" fill="#FF848E"/>
<path d="M146.67 142.17C146.67 142.17 169.52 142.74 171.92 145.17C174.32 147.6 158.01 209.93 158.01 217.17C158.01 220.8 169.22 241.96 172.17 246.76C175.12 251.56 167.1 262.76 167.1 262.76H68C68 262.76 90.14 165.89 95.84 157.76C101.54 149.63 118.06 144.25 127.35 142.64L146.67 142.17Z" fill="#09ADF4"/>
<path d="M146.65 138.58C146.65 138.58 151.92 139.13 153.18 140.82C154.44 142.51 151.84 159.19 147.44 163.9L138.83 157.7L130.39 165.9C130.39 165.9 120.55 154.72 121.09 147.44C121.59 140.58 127.69 136.26 127.69 136.26L146.65 138.58Z" fill="#C1EDFF"/>
<path d="M42.54 166.52L71.54 273.64C71.54 273.64 127.77 269.21 142.18 247.49L104.45 143.09C104.45 143.09 54.6 165.52 42.54 166.52Z" fill="#263238"/>
<path d="M54.52 172.17L88.75 277.73C88.75 277.73 144.69 270.53 158.01 248.14L115.21 145.77C115.21 145.77 66.51 170.57 54.52 172.17Z" fill="#6BCEF8"/>
<path d="M144.01 72.5899C144.01 72.5899 149.54 66.4299 157.09 66.4299C162.77 66.4299 173.54 80.4999 175.02 91.4899C176.82 104.86 169.32 121.15 142.02 113.92C107 104.63 130.93 78.7499 144.01 72.5899Z" fill="#FBCA8C"/>
<path d="M167.08 108.58C167.016 109.996 166.855 111.406 166.6 112.8C166.182 115.113 165.456 117.36 164.44 119.48C161.8 124.96 157.21 129.14 150.75 129.93C143.66 130.79 136.75 126.78 132.84 120.76C125.72 109.87 123.84 89.13 136.53 81.76C137.888 80.9617 139.362 80.3813 140.9 80.04C147.9 78.49 155.39 82.18 160.22 87.79C165.012 93.6262 167.458 101.038 167.08 108.58V108.58Z" fill="#FF848E"/>
<path d="M147.44 103.89C148.142 103.396 148.941 103.058 149.785 102.899C150.629 102.74 151.496 102.765 152.33 102.97" stroke="#FBCA8C" stroke-width="0.75" stroke-miterlimit="10" stroke-linecap="round"/>
<path d="M157.09 103.89C157.792 103.396 158.591 103.058 159.435 102.899C160.279 102.74 161.146 102.765 161.98 102.97" stroke="#FBCA8C" stroke-width="0.75" stroke-miterlimit="10" stroke-linecap="round"/>
<path d="M129.05 108.41L127.35 143.24C126.96 149.67 130.61 155.12 135.68 155.67C141.53 156.31 146.68 150.22 146.68 142.8L146.58 110.32L129.05 108.41Z" fill="#FF848E"/>
<path d="M146.65 136.26V129.93C146.65 129.93 138.88 129.77 132.82 121.15C132.85 121.15 135.02 134.86 146.65 136.26Z" fill="#0C0A0B"/>
<path d="M133.96 63.9401C127.6 64.2601 103.13 86.1201 103.13 102.8C103.13 116.21 122.61 131.42 118.06 135.8C113.51 140.18 97.3398 154.2 97.3398 164.39C97.3398 174.58 126.15 172.79 126.44 179.99C126.507 182.07 125.991 184.128 124.95 185.93C123.909 187.733 122.385 189.208 120.55 190.19C120.55 190.19 138.86 187.19 137 175.19C135.14 163.19 124.77 166.79 124.55 161.39C124.33 155.99 149.46 146.52 128.55 118.19L130.09 106.19C130.09 106.19 144.22 104.46 149.86 91.4101C155.5 78.3601 143.03 63.5201 133.96 63.9401Z" fill="#FBCA8C"/>
<path d="M151.85 107.52C151.858 107.817 151.778 108.109 151.619 108.36C151.461 108.611 151.232 108.809 150.961 108.93C150.69 109.05 150.39 109.088 150.097 109.038C149.805 108.988 149.534 108.852 149.319 108.648C149.103 108.444 148.953 108.181 148.888 107.891C148.822 107.602 148.844 107.3 148.95 107.023C149.056 106.746 149.242 106.507 149.484 106.335C149.726 106.164 150.014 106.068 150.31 106.06C150.507 106.055 150.703 106.088 150.887 106.159C151.071 106.229 151.24 106.335 151.383 106.471C151.526 106.607 151.641 106.769 151.721 106.949C151.801 107.129 151.845 107.323 151.85 107.52V107.52Z" fill="#0C0A0B"/>
<path d="M161.01 107.3C161.018 107.596 160.938 107.889 160.779 108.139C160.621 108.39 160.392 108.589 160.121 108.709C159.85 108.83 159.55 108.868 159.257 108.818C158.965 108.768 158.694 108.632 158.479 108.428C158.263 108.224 158.114 107.961 158.048 107.671C157.982 107.382 158.004 107.08 158.11 106.803C158.216 106.526 158.402 106.286 158.644 106.115C158.886 105.944 159.174 105.848 159.47 105.84C159.667 105.835 159.863 105.868 160.047 105.939C160.231 106.009 160.4 106.115 160.543 106.251C160.686 106.386 160.801 106.549 160.881 106.729C160.961 106.909 161.005 107.103 161.01 107.3V107.3Z" fill="#0C0A0B"/>
<path d="M156.06 113.38C156.565 113.898 157.218 114.247 157.93 114.38C158.28 114.48 158.64 114.57 159.01 114.7C159.228 114.765 159.431 114.87 159.61 115.01C159.757 115.114 159.858 115.272 159.89 115.45C159.921 115.595 159.921 115.745 159.89 115.89C159.806 116.119 159.673 116.328 159.5 116.5C159.328 116.673 159.119 116.806 158.89 116.89C158.525 117.049 158.142 117.163 157.75 117.23C156.991 117.35 156.219 117.35 155.46 117.23C156.19 117.03 156.91 116.83 157.6 116.61C157.946 116.505 158.28 116.368 158.6 116.2C158.852 116.099 159.055 115.906 159.17 115.66C159.172 115.62 159.172 115.58 159.17 115.54C159.046 115.459 158.916 115.389 158.78 115.33C158.46 115.18 158.09 115.06 157.78 114.89C157.402 114.775 157.053 114.581 156.757 114.321C156.46 114.06 156.223 113.74 156.06 113.38V113.38Z" fill="#0C0A0B"/>
<path d="M149.34 115.05C149.61 117.05 147.44 119.05 144.5 119.43C141.56 119.81 138.95 118.48 138.68 116.43C138.41 114.38 140.58 112.43 143.53 112.05C146.48 111.67 149.08 113.02 149.34 115.05Z" fill="#F2727C"/>
<path d="M166.6 112.8C166.182 115.113 165.456 117.36 164.44 119.48C162.62 118.48 161.59 116.79 161.99 115.26C162.39 113.73 164.33 112.68 166.6 112.8Z" fill="#F2727C"/>
<path d="M157.54 121.91C157.54 121.91 153.75 129.28 148.83 121.11L157.54 121.91Z" fill="white"/>
<path d="M131.9 117.18C130.714 117.844 129.373 118.183 128.014 118.162C126.655 118.141 125.325 117.761 124.16 117.06C123.037 116.284 122.121 115.245 121.492 114.033C120.863 112.822 120.539 111.475 120.55 110.11C120.516 108.892 120.809 107.686 121.4 106.62C121.991 105.554 122.858 104.666 123.91 104.05C125.014 103.547 126.268 103.48 127.419 103.862C128.571 104.244 129.536 105.047 130.12 106.11L131.9 117.18Z" fill="#FF848E"/>
<path d="M128.24 113.92C127.259 113.806 126.335 113.398 125.59 112.75C125.189 112.424 124.859 112.02 124.618 111.563C124.378 111.106 124.232 110.605 124.19 110.09C124.162 109.559 124.269 109.03 124.502 108.553C124.734 108.075 125.085 107.665 125.52 107.36C126.346 106.797 127.349 106.555 128.34 106.68C127.422 106.828 126.562 107.222 125.85 107.82C125.525 108.091 125.266 108.433 125.093 108.82C124.92 109.206 124.837 109.627 124.85 110.05C124.93 110.909 125.304 111.715 125.91 112.33C126.571 113.013 127.363 113.554 128.24 113.92V113.92Z" fill="#0C0A0B"/>
<path d="M78.7502 215.75C78.7502 215.75 96.8702 231.75 88.3402 240.94C88.3402 240.94 70.9502 232.52 78.7502 215.75Z" fill="#0C0A0B"/>
<path d="M123.77 200.04L76.3501 219.75C76.3501 219.75 79.1501 234.14 86.7401 238.52L131.6 212.41L123.77 200.04Z" fill="#FF848E"/>
<path d="M260.32 214.98L209.08 211.74C209.08 211.74 205.23 225.89 210.08 233.19L261.85 229.52L260.32 214.98Z" fill="#FF848E"/>
<path d="M51.2801 198.74C51.2801 198.74 21.1601 230.94 39.1601 244.14C47.4001 250.14 88.3401 240.94 88.3401 240.94C88.3401 240.94 75.5501 222.94 78.7501 215.75L56.8501 219.21L51.2801 198.74Z" fill="#09ADF4"/>
<path d="M123.77 200.04C125.653 197.138 127.853 194.455 130.33 192.04C131.01 191.44 141.8 186.61 142.44 187.47C143.08 188.33 141.99 190.34 141.08 191C141.08 191 141.93 192.74 141.7 193.19C141.496 193.821 141.355 194.471 141.28 195.13C141.28 195.13 142.64 195.25 142.46 196.21C142.28 197.17 142.05 198.21 142.05 198.21C142.05 198.21 143.9 199.21 144.1 199.89C144.71 201.76 140.19 210.16 131.6 212.47L123.77 200.04Z" fill="#FF848E"/>
<path d="M56.8901 219.21L47.8501 220.75" stroke="#0C0A0B" stroke-width="0.75" stroke-miterlimit="10"/>
<path d="M171.92 145.14C178.99 145.52 197.51 208.34 197.51 208.34H247.33C247.33 208.34 242.66 220.75 242.66 233.34C242.66 233.34 193.31 233.34 186.12 233.94C178.93 234.54 161.84 199.09 157.12 183.76C153.48 172.06 160.12 144.52 171.92 145.14Z" fill="#09ADF4"/>
<path d="M161.96 196.62C161.96 196.62 173.42 189.52 172.85 173.36C172.85 173.36 180.05 196.36 169.45 212.43L161.96 196.62Z" fill="#0C0A0B"/>
<path d="M157.54 219.21C157.54 219.21 151.54 205.11 151.88 203.62C152.22 202.13 156.5 204.12 156.11 205.86" stroke="#0C0A0B" stroke-width="0.75" stroke-miterlimit="10"/>
<path d="M197.51 208.34L192.86 215.75" stroke="#0C0A0B" stroke-width="0.75" stroke-miterlimit="10"/>
<path d="M70.3602 217.08C70.3602 217.08 69.0602 233.01 76.3602 243.3" stroke="#0C0A0B" stroke-width="0.75" stroke-miterlimit="10"/>
<path d="M237.22 208.34C237.22 208.34 232.31 222.34 234.76 233.19" stroke="#0C0A0B" stroke-width="0.75" stroke-miterlimit="10"/>
<path d="M393.59 117.3L403.47 146.39H455.54L445.65 117.3H393.59Z" stroke="#6BCEF8" stroke-width="0.75" stroke-miterlimit="10"/>
<path d="M404.18 111.32L414.06 140.42H466.12L456.24 111.32H404.18Z" fill="#C1EDFF"/>
<path d="M449.62 152.8L466.12 140.42H449.62V152.8Z" fill="#C1EDFF"/>
<path d="M458.76 127.14H448.87V129.49H458.76V127.14Z" fill="#FEFEFE"/>
<path d="M458.77 132.95H441.36V135.3H458.77V132.95Z" fill="#FEFEFE"/>
<path d="M87.6973 102.315C99.5732 90.4388 99.5732 71.1843 87.6973 59.3084C75.8215 47.4326 56.5669 47.4326 44.6911 59.3084C32.8153 71.1843 32.8153 90.4388 44.6911 102.315C56.567 114.19 75.8215 114.19 87.6973 102.315Z" stroke="#6BCEF8" stroke-width="0.75" stroke-miterlimit="10"/>
<path d="M55.5702 105.57C72.3651 105.57 85.9802 91.955 85.9802 75.16C85.9802 58.365 72.3651 44.75 55.5702 44.75C38.7752 44.75 25.1602 58.365 25.1602 75.16C25.1602 91.955 38.7752 105.57 55.5702 105.57Z" fill="#C1EDFF"/>
<path d="M66.0601 100.6L87.5601 110.84L78.2001 88.8L66.0601 100.6Z" fill="#C1EDFF"/>
<path d="M55.57 91.0101C52.4327 91.0101 49.366 90.0796 46.7576 88.3365C44.1492 86.5933 42.1164 84.1157 40.9163 81.2171C39.7162 78.3185 39.4027 75.129 40.0154 72.0522C40.6282 68.9754 42.1397 66.1495 44.3588 63.9318C46.5779 61.7141 49.4048 60.2044 52.482 59.5936C55.5592 58.9827 58.7484 59.2982 61.6463 60.5002C64.5441 61.7021 67.0204 63.7365 68.7619 66.346C70.5035 68.9555 71.4319 72.0228 71.43 75.16C71.43 77.2423 71.0197 79.3042 70.2225 81.2279C69.4253 83.1516 68.2569 84.8993 66.7841 86.3712C65.3112 87.8432 63.5627 89.0105 61.6386 89.8064C59.7144 90.6024 57.6523 91.0114 55.57 91.0101V91.0101Z" fill="#F2727C"/>
<path d="M55.5698 75.1599V59.2999C58.4366 59.2904 61.2523 60.0582 63.7175 61.5214C66.1827 62.9847 68.2051 65.0888 69.5698 67.6099L55.5698 75.1599Z" fill="#FEFEFE"/>
<path d="M71.4298 75.1601H55.5698L69.5698 67.6101C70.8095 69.9324 71.4489 72.5277 71.4298 75.1601V75.1601Z" fill="#6BCEF8"/>
</svg>
