<svg width="4189" height="2747" viewBox="0 0 4189 2747" fill="none" xmlns="http://www.w3.org/2000/svg">
<path d="M4189 0H0V2747H4189V0Z" fill="#FAFAFA"/>
<path d="M1524.89 2157.77L1343.91 2028.96L1384.29 1938.48C1355.67 1903.95 1331.77 1865.77 1313.24 1824.93L1214.11 1821.84L1177.2 1602.87L1269.84 1567.4C1273.96 1522.74 1284.02 1478.83 1299.75 1436.83L1231.96 1364.52L1360.73 1183.52L1451.22 1223.91C1485.75 1195.28 1523.95 1171.39 1564.8 1152.86L1567.93 1053.75L1786.95 1016.82L1822.4 1109.46C1867.07 1113.57 1911 1123.63 1953.01 1139.37L2025.25 1071.58L2206.24 1200.36L2165.89 1290.84C2194.51 1325.38 2218.4 1363.57 2236.94 1404.42L2336.04 1407.56L2372.95 1626.6L2280.34 1662.03C2278.5 1681.78 2275.51 1701.41 2271.38 1720.82L2270.2 1726.31L2025.8 1666.15L2026.74 1661.07C2035.42 1613.17 2030.32 1563.8 2012.02 1518.69C1993.73 1473.58 1963 1434.59 1923.41 1406.27C1808.48 1324.49 1648.45 1351.46 1566.68 1466.38C1484.91 1581.3 1511.88 1741.32 1626.79 1823.13C1650.54 1840.09 1677.02 1852.84 1705.08 1860.83L1709.91 1862.21L1663.09 2109.7L1657.5 2108.32C1637 2103.48 1616.81 2097.35 1597.07 2089.97L1524.89 2157.77ZM1357.6 2025.23L1523.94 2143.59L1594.61 2077.25L1597.83 2078.49C1616.32 2085.58 1635.23 2091.54 1654.44 2096.35L1697.29 1870.01C1669.77 1861.61 1643.8 1848.81 1620.38 1832.1C1500.54 1746.78 1472.41 1579.87 1557.68 1460.02C1642.96 1340.17 1809.87 1312.04 1929.73 1397.33C1970.3 1426.35 2001.97 1466.13 2021.17 1512.18C2040.36 1558.22 2046.33 1608.71 2038.38 1657.97L2261.73 1712.99C2265.4 1694.71 2268.03 1676.25 2269.63 1657.68L2269.91 1654.24L2360.56 1619.56L2326.58 1418.26L2229.6 1415.19L2228.23 1412.04C2209.45 1369.91 2184.86 1330.61 2155.18 1295.29L2152.95 1292.66L2192.48 1204.12L2026.16 1085.78L1955.47 1152.12L1952.25 1150.88C1909.16 1134.4 1863.96 1124.04 1817.99 1120.13L1814.55 1119.84L1779.88 1029.19L1578.63 1063.09L1575.55 1160.07L1572.41 1161.45C1530.27 1180.22 1490.97 1204.81 1455.67 1234.5L1453.03 1236.73L1364.5 1197.2L1246.16 1363.53L1312.5 1434.22L1311.26 1437.44C1294.79 1480.53 1284.43 1525.72 1280.51 1571.68L1280.22 1575.12L1189.58 1609.82L1223.49 1811.11L1320.49 1814.19L1321.87 1817.33C1340.64 1859.47 1365.22 1898.77 1394.9 1934.08L1397.13 1936.7L1357.6 2025.23Z" fill="url(#paint0_linear_5_243)"/>
<path d="M1828.03 1015.87L1822.66 917.883L1611.67 887.418L1578.71 979.828C1558.46 982.045 1538.35 985.481 1518.51 990.115L1568.23 1225.74C1605.32 1216.16 1644.07 1214.83 1681.73 1221.85C1719.39 1228.87 1755.06 1244.07 1786.21 1266.37L1900.82 1053.65C1877.63 1039.08 1853.29 1026.44 1828.03 1015.87Z" fill="url(#paint1_linear_5_243)"/>
<path d="M1775.04 1886.64V1875.65C1826.44 1875.82 1876.69 1860.51 1919.27 1831.72C1961.85 1802.93 1994.78 1761.99 2013.77 1714.22L2023.96 1718.34C2004.15 1768.14 1969.82 1810.82 1925.43 1840.84C1881.03 1870.86 1828.63 1886.81 1775.04 1886.64Z" fill="#5577FF"/>
<path d="M1775.04 1961.65V1950.66C1852.17 1950.95 1927.09 1924.91 1987.41 1876.85L1994.28 1885.47C1932 1935.08 1854.66 1961.95 1775.04 1961.65Z" fill="#5577FF"/>
<path d="M2025.06 1979.02L2018.91 1969.91C2087.28 1923.8 2141.2 1859.27 2174.43 1783.79L2184.49 1788.23C2150.42 1865.6 2095.14 1931.75 2025.06 1979.02Z" fill="#5577FF"/>
<path d="M2640.11 792.098L2631.98 799.482L2810.43 996.162L2818.57 988.779L2640.11 792.098Z" fill="#98A6B1"/>
<path d="M2349.04 1517.99L2331.32 1412.91L2233.27 1409.8C2214.28 1367.18 2189.43 1327.42 2159.42 1291.68L2199.37 1202.2L2025.71 1078.58L1954.29 1145.65C1936.36 1138.81 1918.05 1133.02 1899.45 1128.3L1855.29 1365.92C1915.64 1385.45 1966.85 1426.24 1999.37 1480.71C2031.9 1535.17 2043.53 1599.6 2032.11 1662L2265.94 1719.62C2270.27 1699.32 2273.34 1678.77 2275.12 1658.09L2366.71 1623.04L2349.04 1517.99ZM1562.17 1463.19C1581.81 1435.51 1606.66 1411.95 1635.35 1393.83L1516.01 1184.68C1493.54 1198.19 1472.17 1213.45 1452.11 1230.34L1362.62 1190.37L1300.81 1277.2L1239.01 1364.02L1306.07 1435.44C1289.41 1479.05 1278.95 1524.77 1275.02 1571.28L1183.37 1606.38L1201.1 1711.38L1218.79 1816.45L1316.84 1819.56C1335.82 1862.2 1360.68 1901.96 1390.72 1937.68L1350.76 2027.18L1437.58 2088.98L1524.42 2150.79L1595.84 2083.74C1616.35 2091.58 1637.36 2098.04 1658.73 2103.08L1703.58 1866.17C1674.89 1858.04 1647.81 1845.03 1623.53 1827.72C1506 1743.92 1478.51 1580.76 1562.17 1463.19Z" fill="url(#paint2_linear_5_243)"/>
<path d="M2249.2 844.703C2255.98 826.966 2260.24 808.366 2261.87 789.447L2299.11 775.204L2291.9 732.419L2284.71 689.634L2244.79 688.371C2237.06 671.02 2226.94 654.839 2214.72 640.298L2230.98 603.859L2195.64 578.711L2160.4 553.521L2131.31 580.826C2113.57 574.045 2094.96 569.783 2076.04 568.162L2061.77 530.872L2018.93 538.11L1976.15 545.28L1974.87 585.193C1957.53 592.927 1941.35 603.052 1926.8 615.273L1890.37 599.011L1865.22 634.351L1840.07 669.705L1867.38 698.796C1860.59 716.531 1856.33 735.131 1854.71 754.052L1817.41 768.336L1824.62 811.12L1831.83 853.891L1871.74 855.155C1879.47 872.505 1889.59 888.686 1901.81 903.227L1885.55 939.653L1920.9 964.815L1956.24 989.964L1985.33 962.659C2003.07 969.444 2021.67 973.707 2040.59 975.322L2054.86 1012.63L2097.65 1005.42L2140.43 998.205L2141.69 958.291C2159.04 950.569 2175.22 940.448 2189.76 928.225L2226.2 944.487L2251.35 909.133L2276.51 873.793L2249.2 844.703ZM1996.62 858.438C1979.47 846.239 1966.33 829.231 1958.86 809.563C1951.38 789.896 1949.91 768.454 1954.62 747.948C1959.33 727.441 1970.01 708.793 1985.32 694.36C2000.63 679.927 2019.87 670.358 2040.62 666.863C2061.37 663.369 2082.68 666.106 2101.88 674.727C2121.07 683.349 2137.27 697.469 2148.44 715.301C2159.61 733.133 2165.23 753.876 2164.61 774.907C2163.99 795.938 2157.15 816.313 2144.95 833.454C2136.85 844.836 2126.59 854.512 2114.75 861.927C2102.91 869.343 2089.73 874.355 2075.96 876.675C2062.18 878.995 2048.09 878.578 2034.47 875.449C2020.86 872.32 2008 866.539 1996.62 858.438Z" fill="url(#paint3_linear_5_243)"/>
<path d="M2636.03 801.891C2642.95 801.891 2649.59 799.141 2654.48 794.247C2659.37 789.353 2662.12 782.715 2662.12 775.794H2656C2656 779.73 2654.83 783.578 2652.64 786.851C2650.46 790.124 2647.35 792.675 2643.71 794.181C2640.08 795.688 2636.07 796.082 2632.21 795.314C2628.35 794.546 2624.81 792.65 2622.02 789.867C2619.24 787.084 2617.35 783.537 2616.58 779.677C2615.81 775.816 2616.2 771.814 2617.71 768.178C2619.22 764.541 2621.77 761.433 2625.04 759.246C2628.31 757.059 2632.16 755.892 2636.1 755.892H2639.17V440.894H2633.03V750.013C2626.61 750.998 2620.78 754.346 2616.69 759.401C2612.6 764.457 2610.55 770.857 2610.93 777.347C2611.32 783.838 2614.11 789.951 2618.76 794.491C2623.42 799.031 2629.6 801.669 2636.1 801.891H2636.03Z" fill="#385369"/>
<path d="M2628.98 748.681H2643.64V599.89H2628.98V748.681Z" fill="#98A6B1"/>
<path d="M2461.92 996.131L2453.77 988.741L2636.45 787.634L2643.49 795.792L2461.92 996.131Z" fill="#98A6B1"/>
<path d="M2936.97 1188.82C2957.63 1173.31 2977.06 1156.21 2995.07 1137.68L2827.88 964.362C2803.22 991.129 2773.23 1012.45 2739.86 1026.97C2706.48 1041.48 2670.44 1048.87 2634.04 1048.66C2597.64 1048.45 2561.69 1040.64 2528.48 1025.74C2495.28 1010.83 2465.55 989.162 2441.19 962.109L2277 1138.74C2294.23 1156.33 2312.74 1172.62 2332.39 1187.46L2313.3 1283.69L2411.65 1324.69L2510.02 1365.66L2564.86 1284.33C2611.04 1290.95 2657.92 1291.08 2704.14 1284.7L2758.61 1366.19L2857.14 1325.61L2955.61 1285.02L2936.97 1188.82Z" fill="url(#paint4_linear_5_243)"/>
<path d="M2494.62 2263.61H2828.94L2723.57 2587.21L2733.42 2590.41L2843.21 2253.24H2487.09L2378.36 2587.21L2388.21 2590.41L2494.62 2263.61Z" fill="#FFBB55"/>
<path d="M2608.41 2587.21L2503.04 2263.61H2837.34L2943.76 2590.41L2953.62 2587.21L2844.87 2253.24H2488.77L2598.55 2590.41L2608.41 2587.21Z" fill="#FFBB55"/>
<path d="M2872.7 2355.14H2463.51V2365.5H2872.7V2355.14Z" fill="#FFBB55"/>
<path d="M2910.93 2467.66H2421.36V2478.01H2910.93V2467.66Z" fill="#FFBB55"/>
<path d="M1577.49 724.137C1569.36 721.862 1562.18 717.049 1556.98 710.402C1554.26 707.021 1552.31 703.083 1551.27 698.865C1550.24 694.647 1550.14 690.253 1550.99 685.995C1553.29 669.238 1551.72 651.094 1549.92 638.513C1539.27 625.647 1532.93 609.753 1531.81 593.084C1530.69 576.415 1534.84 559.815 1543.68 545.638C1552.52 531.461 1565.59 520.426 1581.05 514.096C1596.51 507.766 1613.58 506.463 1629.82 510.371C1646.06 514.279 1660.66 523.201 1671.55 535.871C1682.44 548.541 1689.07 564.317 1690.49 580.963C1691.91 597.609 1688.06 614.281 1679.48 628.616C1670.9 642.952 1658.03 654.223 1642.68 660.832C1633.57 675.419 1627.04 689.14 1623.29 701.666C1619.5 718.766 1600.3 729.136 1580.41 724.851C1579.42 724.668 1578.45 724.43 1577.49 724.137ZM1631.63 517.617C1616.55 513.251 1600.47 513.856 1585.77 519.343C1571.06 524.829 1558.51 534.906 1549.98 548.08C1541.45 561.254 1537.38 576.826 1538.39 592.49C1539.4 608.154 1545.42 623.078 1555.57 635.051L1556.17 635.766L1556.31 636.686C1558.22 649.734 1559.96 669.073 1557.49 687.025V687.272C1556.82 690.63 1556.9 694.096 1557.72 697.42C1558.55 700.744 1560.09 703.845 1562.26 706.501C1567.18 712.717 1574.14 716.985 1581.91 718.547C1598.39 722.104 1614.12 713.877 1617.07 700.21V700.087V699.963C1621.05 686.613 1628.06 671.999 1637.77 656.547L1638.32 655.681L1639.26 655.283C1653.25 649.489 1665.09 639.493 1673.15 626.677C1681.21 613.861 1685.08 598.859 1684.24 583.743C1683.41 568.628 1677.89 554.146 1668.47 542.3C1659.04 530.454 1646.17 521.829 1631.63 517.617Z" fill="#FFD255"/>
<path d="M1568.63 694.552L1576.22 607.54L1590.85 625.89L1604.37 616.015L1611.45 629.434L1630.93 618.885L1603.05 701.776L1596.88 699.716L1619.49 632.483L1608.77 638.279L1602.13 625.712L1589.64 634.832L1581.29 624.352L1575.11 695.115L1568.63 694.552Z" fill="#FFD255"/>
<path d="M1609.57 723.161L1554.42 711.206L1549.6 733.435L1604.75 745.39L1609.57 723.161Z" fill="#FFD255"/>
<path d="M1623.36 702.383L1550.46 686.581L1542.71 722.368L1615.6 738.169L1623.36 702.383Z" fill="#FFD255"/>
<path d="M966.74 1523.94L962.812 1522.59L995.788 1426.57L1069.49 1406.16L1094.84 1300.9L1151.59 1275.06L1163.43 1193.3L1167.53 1193.9L1155.38 1277.9L1098.41 1303.85L1072.96 1409.51L999.015 1429.99L966.74 1523.94Z" fill="#FFD078"/>
<path d="M1079.73 1400.72C1081.14 1402.4 1082.02 1404.47 1082.26 1406.65C1082.5 1408.83 1082.09 1411.04 1081.07 1412.98C1080.06 1414.93 1078.49 1416.53 1076.56 1417.59C1074.64 1418.64 1072.44 1419.1 1070.26 1418.91C1068.07 1418.72 1065.99 1417.88 1064.28 1416.51C1062.57 1415.13 1061.3 1413.28 1060.64 1411.19C1059.99 1409.09 1059.96 1406.85 1060.58 1404.74C1061.19 1402.64 1062.42 1400.76 1064.1 1399.35C1066.36 1397.46 1069.27 1396.54 1072.2 1396.8C1075.13 1397.06 1077.84 1398.47 1079.73 1400.72Z" fill="white"/>
<path d="M1079.68 1417.95C1077.68 1419.62 1075.23 1420.66 1072.64 1420.94C1070.05 1421.22 1067.44 1420.73 1065.13 1419.52C1062.82 1418.31 1060.92 1416.45 1059.67 1414.16C1058.42 1411.88 1057.87 1409.27 1058.1 1406.68C1058.34 1404.08 1059.33 1401.62 1060.96 1399.59C1062.6 1397.56 1064.79 1396.06 1067.28 1395.28C1069.77 1394.5 1072.43 1394.47 1074.93 1395.2C1077.43 1395.94 1079.65 1397.39 1081.32 1399.39C1083.56 1402.07 1084.64 1405.53 1084.33 1409.01C1084.02 1412.49 1082.35 1415.7 1079.68 1417.95ZM1065.43 1400.97C1064.07 1402.11 1063.07 1403.64 1062.58 1405.35C1062.08 1407.06 1062.1 1408.88 1062.63 1410.58C1063.16 1412.28 1064.19 1413.78 1065.58 1414.9C1066.97 1416.01 1068.65 1416.69 1070.43 1416.85C1072.2 1417.01 1073.98 1416.63 1075.55 1415.78C1077.11 1414.92 1078.38 1413.63 1079.21 1412.05C1080.03 1410.47 1080.37 1408.68 1080.18 1406.91C1079.99 1405.14 1079.28 1403.46 1078.14 1402.1C1076.6 1400.26 1074.4 1399.12 1072.02 1398.9C1069.64 1398.69 1067.27 1399.44 1065.43 1400.97Z" fill="#FFD078"/>
<path d="M1105.44 1295.88C1106.85 1297.57 1107.73 1299.63 1107.97 1301.81C1108.21 1303.99 1107.8 1306.2 1106.78 1308.14C1105.77 1310.09 1104.2 1311.69 1102.27 1312.75C1100.35 1313.8 1098.16 1314.26 1095.97 1314.07C1093.78 1313.88 1091.7 1313.04 1089.99 1311.67C1088.28 1310.29 1087.01 1308.44 1086.35 1306.35C1085.7 1304.25 1085.67 1302.01 1086.29 1299.9C1086.9 1297.8 1088.13 1295.92 1089.81 1294.51C1092.07 1292.62 1094.98 1291.7 1097.91 1291.96C1100.84 1292.22 1103.55 1293.63 1105.44 1295.88Z" fill="white"/>
<path d="M1105.39 1313.07C1103.39 1314.74 1100.94 1315.78 1098.35 1316.06C1095.76 1316.34 1093.15 1315.85 1090.84 1314.64C1088.53 1313.43 1086.63 1311.57 1085.38 1309.28C1084.13 1307 1083.58 1304.39 1083.82 1301.8C1084.05 1299.2 1085.04 1296.74 1086.67 1294.71C1088.31 1292.68 1090.51 1291.18 1092.99 1290.4C1095.48 1289.62 1098.14 1289.59 1100.64 1290.32C1103.14 1291.06 1105.36 1292.51 1107.04 1294.51C1109.27 1297.19 1110.35 1300.65 1110.04 1304.13C1109.73 1307.61 1108.06 1310.82 1105.39 1313.07ZM1091.14 1296.05C1089.78 1297.19 1088.78 1298.72 1088.28 1300.43C1087.78 1302.14 1087.8 1303.96 1088.33 1305.66C1088.86 1307.36 1089.89 1308.86 1091.28 1309.98C1092.67 1311.1 1094.36 1311.78 1096.13 1311.93C1097.91 1312.09 1099.69 1311.72 1101.25 1310.86C1102.81 1310.01 1104.09 1308.71 1104.91 1307.13C1105.74 1305.55 1106.08 1303.76 1105.88 1301.99C1105.69 1300.22 1104.98 1298.54 1103.84 1297.17C1102.29 1295.35 1100.09 1294.21 1097.71 1294.01C1095.34 1293.81 1092.97 1294.55 1091.14 1296.09V1296.05Z" fill="#FFD078"/>
<path d="M1161.3 1269.35C1162.71 1271.03 1163.59 1273.09 1163.83 1275.27C1164.07 1277.46 1163.65 1279.66 1162.64 1281.61C1161.63 1283.55 1160.06 1285.16 1158.13 1286.21C1156.21 1287.27 1154.01 1287.73 1151.83 1287.54C1149.64 1287.34 1147.56 1286.51 1145.85 1285.13C1144.14 1283.76 1142.87 1281.91 1142.21 1279.81C1141.55 1277.72 1141.53 1275.48 1142.15 1273.37C1142.76 1271.26 1143.99 1269.38 1145.67 1267.97C1146.79 1267.04 1148.08 1266.33 1149.47 1265.89C1150.85 1265.45 1152.32 1265.29 1153.77 1265.42C1155.22 1265.55 1156.63 1265.96 1157.93 1266.63C1159.22 1267.31 1160.36 1268.23 1161.3 1269.35Z" fill="white"/>
<path d="M1161.24 1286.56C1159.25 1288.23 1156.8 1289.27 1154.21 1289.55C1151.62 1289.83 1149 1289.34 1146.69 1288.13C1144.39 1286.92 1142.49 1285.06 1141.24 1282.78C1139.99 1280.49 1139.44 1277.89 1139.67 1275.29C1139.9 1272.7 1140.9 1270.23 1142.53 1268.2C1144.16 1266.17 1146.36 1264.67 1148.85 1263.89C1151.33 1263.11 1153.99 1263.08 1156.49 1263.81C1158.99 1264.55 1161.22 1266 1162.89 1268C1164 1269.33 1164.84 1270.86 1165.36 1272.51C1165.88 1274.16 1166.06 1275.9 1165.91 1277.62C1165.76 1279.34 1165.27 1281.02 1164.47 1282.55C1163.67 1284.09 1162.57 1285.45 1161.24 1286.56ZM1147.02 1269.55C1145.65 1270.7 1144.65 1272.22 1144.15 1273.93C1143.65 1275.64 1143.67 1277.46 1144.2 1279.16C1144.74 1280.86 1145.76 1282.37 1147.15 1283.48C1148.54 1284.6 1150.23 1285.28 1152 1285.44C1153.78 1285.6 1155.56 1285.22 1157.12 1284.37C1158.68 1283.51 1159.96 1282.21 1160.78 1280.63C1161.61 1279.05 1161.95 1277.26 1161.75 1275.49C1161.56 1273.72 1160.85 1272.05 1159.71 1270.68C1158.17 1268.85 1155.97 1267.7 1153.59 1267.49C1151.21 1267.28 1148.85 1268.02 1147.02 1269.55Z" fill="#FFD078"/>
<path d="M1006.34 1422.09C1007.75 1423.78 1008.63 1425.84 1008.87 1428.02C1009.1 1430.2 1008.69 1432.41 1007.68 1434.35C1006.66 1436.3 1005.09 1437.9 1003.17 1438.96C1001.24 1440.01 999.049 1440.47 996.862 1440.28C994.676 1440.09 992.595 1439.25 990.884 1437.88C989.173 1436.5 987.907 1434.65 987.248 1432.56C986.589 1430.46 986.566 1428.22 987.182 1426.12C987.797 1424.01 989.024 1422.13 990.706 1420.72C992.961 1418.83 995.874 1417.91 998.805 1418.17C1001.74 1418.43 1004.44 1419.84 1006.34 1422.09Z" fill="white"/>
<path d="M1006.28 1439.32C1004.28 1440.99 1001.83 1442.03 999.244 1442.31C996.655 1442.59 994.04 1442.1 991.731 1440.89C989.422 1439.69 987.522 1437.82 986.273 1435.54C985.023 1433.25 984.479 1430.65 984.709 1428.05C984.94 1425.46 985.934 1422.99 987.567 1420.96C989.2 1418.93 991.399 1417.43 993.884 1416.65C996.37 1415.87 999.03 1415.84 1001.53 1416.57C1004.03 1417.31 1006.26 1418.76 1007.93 1420.76C1009.04 1422.09 1009.88 1423.62 1010.4 1425.27C1010.91 1426.92 1011.1 1428.66 1010.95 1430.38C1010.79 1432.1 1010.3 1433.78 1009.5 1435.31C1008.7 1436.85 1007.61 1438.21 1006.28 1439.32ZM992.052 1422.3C990.684 1423.44 989.686 1424.96 989.183 1426.67C988.681 1428.38 988.696 1430.2 989.228 1431.91C989.76 1433.61 990.785 1435.11 992.172 1436.23C993.559 1437.35 995.246 1438.03 997.021 1438.19C998.796 1438.35 1000.58 1437.98 1002.14 1437.13C1003.71 1436.27 1004.98 1434.97 1005.81 1433.39C1006.64 1431.82 1006.98 1430.03 1006.79 1428.26C1006.6 1426.48 1005.88 1424.81 1004.74 1423.44C1003.21 1421.61 1001.01 1420.47 998.632 1420.25C996.255 1420.04 993.889 1420.78 992.052 1422.3Z" fill="#FFD078"/>
<path d="M3241.47 917.608H3308.26L3287.83 875.208H3221.04L3241.47 917.608Z" fill="#FFD179"/>
<path d="M3210.23 917.608H3226.15L3205.71 875.208H3189.79L3210.23 917.608Z" fill="#FFD179"/>
<path d="M2979.49 867.118H3249.92L3240.94 845.911H2970.53L2979.49 867.118Z" fill="#FFD179"/>
<path d="M2663.21 1687.95C2663.21 1687.95 2656.75 1676.65 2667 1646.37C2676.9 1617.09 2711.17 1619.74 2722.06 1638.5C2732.95 1657.26 2729.28 1668.93 2713.24 1690.11C2697.2 1711.28 2669.94 1697.65 2663.21 1687.95Z" fill="#EEA886"/>
<path d="M2742.82 2208.9C2742.82 2208.9 2744.51 2221.35 2744.73 2223.22C2744.95 2225.08 2763.6 2222.12 2763.6 2222.12L2765.12 2207.31C2765.12 2207.31 2745.16 2207.21 2742.82 2208.9Z" fill="#EEA886"/>
<path d="M2744.53 2221.64C2744.53 2221.64 2738.62 2229.12 2732.91 2232.39C2727.2 2235.66 2718.2 2236.95 2714.82 2240.33C2712.39 2242.77 2705.93 2253.28 2729.68 2253.06C2753.43 2252.84 2764.87 2254.55 2767.41 2250.52C2769.95 2246.5 2763.74 2220.78 2763.74 2220.78C2763.74 2220.78 2757.92 2222.43 2744.53 2221.64Z" fill="#152B3D"/>
<path d="M2613.63 2208.9C2613.63 2208.9 2615.32 2221.35 2615.54 2223.22C2615.76 2225.08 2634.39 2222.12 2634.39 2222.12L2635.9 2207.31C2635.9 2207.31 2615.98 2207.21 2613.63 2208.9Z" fill="#EEA886"/>
<path d="M2615.36 2221.64C2615.36 2221.64 2609.45 2229.12 2603.74 2232.39C2598.03 2235.66 2576.97 2238.34 2573.52 2241.72C2571.09 2244.16 2567.03 2253.98 2600.44 2253.06C2624.18 2252.42 2635.63 2254.55 2638.17 2250.52C2640.71 2246.5 2634.49 2220.78 2634.49 2220.78C2628.15 2221.69 2621.75 2221.98 2615.36 2221.64Z" fill="#152B3D"/>
<path d="M2736.55 1899.28C2736.55 1899.28 2746.16 1929 2744.79 1954.61C2743.42 1980.23 2749.75 2008.26 2752.27 2035.03C2755.1 2064.86 2766.68 2135.49 2767.09 2151.45C2767.51 2167.41 2765.31 2218.37 2765.31 2218.37L2742.14 2218.93C2742.14 2218.93 2722.68 2095.45 2717.64 2082.84C2712.6 2070.24 2687.61 1980.44 2686.76 1970.35C2685.91 1960.27 2736.55 1899.28 2736.55 1899.28Z" fill="#FFC05C"/>
<path d="M2640.49 1896.17C2640.49 1896.17 2626.43 1974.78 2624.74 1990.45C2623.05 2006.12 2621.99 2066.33 2621.1 2076.13C2620.21 2085.92 2615.51 2204.36 2611.02 2218.97H2636.85C2636.85 2218.97 2663.37 2132.87 2663.37 2092.13C2663.37 2051.39 2680.94 2003.57 2692.21 1976.75C2703.49 1949.94 2729.5 1949.28 2736.48 1899.39C2736.55 1899.28 2649.93 1880.32 2640.49 1896.17Z" fill="#FFC05C"/>
<path d="M2672.57 1695.94C2672.57 1695.94 2675.5 1704.43 2672.57 1710.47C2669.65 1716.52 2709.81 1712.91 2709.81 1712.91C2709.81 1712.91 2708 1700.39 2713.24 1690.11C2718.49 1679.82 2672.57 1695.94 2672.57 1695.94Z" fill="#EEA886"/>
<path d="M2738.4 1905.75C2738.4 1905.75 2723.97 1920.58 2639.19 1903.44L2640.56 1896.17L2736.93 1899.8L2738.4 1905.75Z" fill="#FFC05C"/>
<path d="M2666.5 1712.44C2666.5 1712.44 2651.68 1713.96 2647.44 1714.76C2643.2 1715.56 2614.68 1709.66 2608.83 1709.06C2602.98 1708.46 2578.04 1691.36 2577.25 1689.35C2576.45 1687.34 2562.14 1650.89 2561.27 1643.08C2560.41 1635.26 2547.28 1639.27 2548.4 1644.68C2550.52 1654.83 2553.24 1679.45 2554.72 1686.59C2556.33 1694.29 2560.64 1711.74 2563.06 1713.89C2565.47 1716.05 2587.94 1733.12 2609.93 1740.39C2623.42 1744.89 2636.35 1750.91 2648.47 1758.34H2756.85C2756.85 1758.34 2799 1698.09 2799.9 1689.01C2800.81 1679.93 2770.46 1619.59 2764.4 1612.09C2758.34 1604.59 2749.6 1614.56 2749.6 1614.56C2749.6 1614.56 2767.74 1667.77 2770.2 1675.34C2772.66 1682.91 2749.1 1716.15 2742.65 1716.24C2736.19 1716.34 2719.61 1714.22 2712.25 1713.92C2707.07 1713.51 2701.97 1712.32 2697.15 1710.39L2666.5 1712.44Z" fill="#EEA886"/>
<path d="M2619.81 1752.7C2619.81 1752.7 2633.07 1761.51 2634.28 1776.65C2635.89 1792.58 2638.73 1808.35 2642.76 1823.84C2645.17 1832.02 2640.63 1891.34 2640.01 1895.57C2639.39 1899.8 2723.87 1909.87 2736.85 1899.8C2736.85 1899.8 2740.48 1844.43 2741.99 1828.69C2743.5 1812.95 2750.76 1774.82 2753.18 1769.63C2755.6 1764.44 2784.96 1723.3 2786.14 1717.88C2786.14 1717.88 2770.95 1693.68 2760.05 1693.37C2760.05 1693.37 2742.74 1713.65 2737.11 1714.55C2731.48 1715.46 2696.88 1709.13 2696.88 1709.06C2696.88 1708.99 2693.11 1714.2 2673.04 1708.14C2673.04 1708.14 2649.16 1710.89 2645.27 1711.34C2640.56 1711.94 2607.85 1707.22 2607.85 1707.22C2607.85 1707.22 2594.72 1729.39 2597.02 1740.57L2619.81 1752.7Z" fill="#254380"/>
<path d="M2562.01 1647.8C2562.01 1647.8 2559.05 1633.78 2562.62 1629.75C2564.65 1627.46 2569.49 1621.39 2569.98 1620.5C2570.47 1619.6 2575.67 1616.6 2575.67 1615.15C2575.67 1613.71 2570.53 1611.91 2566.05 1616.05C2561.57 1620.18 2558.8 1621.06 2557.01 1620.61C2555.23 1620.15 2552.67 1605.33 2552.44 1601.67C2552.21 1598 2550.81 1588.29 2548.5 1588.95C2546.19 1589.61 2546.32 1593.85 2546.32 1593.85C2546.32 1593.85 2543.57 1586.5 2541.85 1587.94C2540.14 1589.39 2540.3 1592.97 2540.3 1592.97C2540.3 1592.97 2536.95 1588.85 2536.06 1591.85C2535.53 1593.7 2535.53 1595.67 2536.06 1597.53C2536.06 1597.53 2532.61 1595.64 2532.39 1600.28C2532.17 1604.92 2533.39 1618.67 2535.84 1623.63C2538.28 1628.59 2547.47 1641.36 2548.57 1646.37C2549.67 1651.39 2562.01 1647.8 2562.01 1647.8Z" fill="#EEA886"/>
<path d="M2752.55 1623.18C2752.55 1623.18 2742.45 1606.23 2739.03 1604.72C2735.61 1603.2 2730.79 1602.34 2726.52 1599.32C2722.25 1596.3 2716.69 1593.82 2716.99 1592.75C2717.29 1591.68 2722.29 1592.15 2727.64 1594.47C2732.98 1596.79 2735.33 1595.66 2735.88 1594.47C2736.43 1593.27 2733.02 1584.72 2731.41 1582.7C2729.81 1580.68 2718.3 1569.11 2720.2 1567.4C2722.11 1565.68 2729.59 1572.04 2730.79 1573.36C2730.79 1573.36 2724.85 1560.85 2727.17 1560.24C2729.49 1559.64 2733.83 1564.07 2733.83 1564.07C2733.83 1564.07 2733.32 1553.37 2744.82 1570.73C2744.82 1570.73 2742.4 1564.98 2745.93 1566.9C2749.46 1568.83 2752.89 1579.61 2754 1585.06C2755.12 1590.51 2760.14 1607.86 2764.43 1612.04C2768.71 1616.21 2752.55 1623.18 2752.55 1623.18Z" fill="#EEA886"/>
<path d="M2713.24 1690.11C2713.24 1690.11 2707.93 1690.57 2696.64 1686.67C2685.35 1682.77 2684.5 1663.02 2682.05 1665.36C2677.07 1670.14 2672.35 1666.84 2670.47 1663.98C2670.47 1663.98 2675.97 1656.72 2673.43 1653.23C2671.55 1650.85 2669.28 1648.8 2666.72 1647.17C2666.72 1647.17 2674.66 1608.88 2710.82 1626.32C2753.18 1646.83 2713.24 1690.11 2713.24 1690.11Z" fill="#353A3D"/>
<path d="M2672.57 1710.47L2673.85 1704.98C2673.85 1704.98 2696.94 1704.51 2709.56 1706.35L2710.93 1712.97C2710.93 1712.97 2694.73 1720.23 2672.57 1710.47Z" fill="#254380"/>
<path d="M2678.27 1660.56C2680.38 1657.09 2688.12 1654.74 2689.03 1664.6C2689.74 1672.25 2675.18 1680.6 2675.05 1673.49C2674.91 1666.37 2676.87 1662.83 2678.27 1660.56Z" fill="#EEA886"/>
<path d="M2561.44 1644.57C2561.44 1644.57 2553.07 1644.78 2549.08 1648.42C2548.96 1649.83 2549.19 1651.25 2549.76 1652.54C2553.82 1650.66 2558.1 1649.32 2562.51 1648.54C2562.51 1648.54 2562.47 1645.55 2561.44 1644.57Z" fill="#E55353"/>
<path d="M2551.64 1646.69C2551.37 1647.34 2551.29 1648.06 2551.42 1648.76C2551.55 1649.46 2551.89 1650.1 2552.38 1650.6C2552.88 1651.11 2553.52 1651.46 2554.21 1651.6C2554.9 1651.75 2555.63 1651.68 2556.28 1651.42C2556.94 1651.15 2557.51 1650.7 2557.9 1650.11C2558.3 1649.53 2558.52 1648.83 2558.53 1648.13C2558.53 1647.42 2558.33 1646.72 2557.94 1646.13C2557.55 1645.53 2556.99 1645.07 2556.34 1644.79C2555.47 1644.42 2554.48 1644.41 2553.6 1644.77C2552.72 1645.13 2552.02 1645.82 2551.64 1646.69Z" fill="#353A3D"/>
<path d="M1100.64 901.483C1100.64 901.483 1089.65 881.389 1083.47 874.164C1077.29 866.94 1056.55 861.514 1059.36 852.271C1062.18 843.027 1089.88 847.051 1097.52 856.089C1105.15 865.126 1128.45 868.34 1129.24 872.145C1130.04 875.95 1121.15 896.868 1116.17 900.261C1111.18 903.653 1100.64 901.483 1100.64 901.483Z" fill="#6A75BA"/>
<path d="M1054.12 918.487C1054.12 918.487 1036.26 904.354 1027.71 900.192C1019.15 896.03 997.985 899.272 996.9 889.671C995.815 880.07 1022.84 872.763 1033.43 878.024C1044.02 883.284 1066.67 876.98 1068.92 880.166C1071.17 883.353 1071.31 906.057 1068.08 911.166C1064.86 916.275 1054.12 918.487 1054.12 918.487Z" fill="#545D94"/>
<path d="M1093.7 955.297C1093.7 955.297 1101.49 902.074 1101.13 892.775C1101.03 890.152 1117.14 891.127 1116.39 896.195C1114.75 907.183 1122.2 950.009 1120.89 957.851C1119.59 965.694 1093.04 960.228 1093.7 955.297Z" fill="#EEA886"/>
<path d="M1069.32 970.584C1069.32 970.584 1054.79 918.872 1051.34 910.315C1049.83 906.496 1064.69 900.563 1066.7 907.389C1069.86 918.089 1093.4 954.486 1095.32 962.178C1097.24 969.87 1070.67 975.377 1069.32 970.584Z" fill="#EEA886"/>
<path d="M1079.51 1006.5C1079.51 1006.5 1063.85 953.69 1061.44 948.058L1086.16 932.799C1086.16 932.799 1097.6 966.532 1099.21 974.965C1100.81 983.399 1079.51 1006.5 1079.51 1006.5Z" fill="#207CD6"/>
<path d="M1516.65 866.953C1516.65 866.953 1492.8 872.983 1481.44 891.031C1470.09 909.078 1460.29 929.832 1438.96 939.268C1417.64 948.704 1417.51 972.974 1419.17 976.723C1420.84 980.473 1486.33 1054.11 1500.63 1056.95C1514.93 1059.79 1541.68 1057.81 1538.83 1038.9C1535.97 1019.99 1507.91 979.264 1523.72 958.73C1539.53 938.197 1543.43 919.283 1543.43 919.283L1516.65 866.953Z" fill="#2E334D"/>
<path d="M1512.48 955.022C1511.88 954.844 1511.26 954.729 1510.63 954.679C1508.74 954.513 1506.85 954.743 1505.05 955.352C1504.29 955.645 1503.56 956.008 1502.87 956.437C1497.2 959.774 1483.78 968.798 1481.97 969.059C1479.88 969.306 1481.65 938.018 1481.65 938.018C1481.65 938.018 1488.79 925.382 1489.68 917.072C1490.58 908.763 1512.48 955.022 1512.48 955.022Z" fill="#EEA886"/>
<path d="M1344.71 987.725C1344.71 987.725 1318.5 969.348 1287.78 975.075C1257.05 980.803 1253.74 995.156 1243.2 995.787C1232.65 996.419 1197.42 993.425 1168.5 1001.87C1139.57 1010.32 1115.19 1011.2 1111.87 1008.74C1108.55 1006.28 1129.94 958.126 1129.94 951.506L1094.1 942.166C1094.1 942.166 1083.87 984.937 1079.84 994.579C1075.56 1004.89 1067.3 1024.3 1079.04 1041.17C1090.79 1058.03 1123.63 1050.44 1143.5 1053.83C1163.37 1057.22 1252.36 1055.05 1267.9 1054.23C1284.77 1053.32 1335.67 1050.91 1335.67 1050.91L1344.71 987.725Z" fill="#207CD6"/>
<path d="M1559.94 892.486C1559.94 892.486 1561.61 918.377 1555.82 926.137C1554.38 928.201 1552.73 930.115 1550.91 931.851C1549.43 933.12 1548.3 934.753 1547.64 936.59C1545.86 941.575 1544.77 948.58 1543.36 950.077C1541.94 951.574 1537.34 947.55 1535.72 947.55C1534.1 947.55 1518.33 961.148 1514.57 958.359C1510.81 955.571 1487.79 932.263 1489.73 916.221C1491.66 900.178 1498.71 876.32 1524.61 876.471C1550.51 876.623 1557.96 886.045 1559.94 892.486Z" fill="#EEA886"/>
<path d="M1481.66 1016.03C1481.17 1017.1 1471.64 1032.31 1461.2 1041.14C1456.87 1044.81 1452.38 1047.36 1448.33 1047.36C1447.08 1047.36 1445.87 1047.36 1444.71 1047.36C1432.73 1047.68 1423.53 1049.52 1407.36 1050.32C1390.56 1051.15 1349.83 1048.82 1348.62 1048.82C1347.41 1048.82 1335.67 1050.92 1335.67 1050.92C1331.45 1045.81 1342.54 987.972 1344.71 987.739C1346.88 987.505 1360.38 992.56 1373.33 990.486C1386.28 988.412 1391.4 987.176 1410.67 964.582C1429.94 941.988 1449.22 936.274 1457.37 938.073C1465.51 939.872 1481.66 938.073 1481.66 938.073C1481.66 938.073 1482.36 1014.54 1481.66 1016.03Z" fill="#FFC955"/>
<path d="M1549.06 911.029C1549.06 911.029 1553.88 923.528 1556.43 925.258C1556.43 925.258 1565.76 915.397 1559.77 891.086C1553.78 866.775 1531.22 864.495 1516.65 866.953C1498.52 870.03 1480.25 931.398 1481.2 937.373C1482.14 943.347 1502.46 905.659 1520.26 908.694C1538.06 911.729 1538.24 912.718 1549.06 911.029Z" fill="#2E334D"/>
<path d="M1510.63 954.679C1508.74 954.513 1506.85 954.742 1505.05 955.352C1504.29 955.645 1503.56 956.008 1502.87 956.437C1498.75 949.94 1494.84 934.543 1494.71 934.021C1497.5 939.955 1510.63 954.679 1510.63 954.679Z" fill="#A77860"/>
<path d="M1461.2 1041.11C1456.87 1044.78 1452.38 1047.33 1448.33 1047.33C1447.08 1047.33 1445.87 1047.33 1444.71 1047.33L1450.61 999.386L1461.2 1041.11Z" fill="#C29941"/>
<path d="M1554.92 1123.7L1543.36 1134.21C1533.39 1128.87 1508.39 1110.86 1503.53 1106.74C1498.49 1102.44 1464.85 1074.31 1460.24 1067.9C1455.62 1061.48 1449.68 995.224 1450.28 992.189C1450.89 989.153 1479.52 987.656 1482.76 994.675C1482.76 994.675 1484.26 1032.46 1485.03 1038.79C1485.78 1045.19 1488.38 1051.22 1492.51 1056.15C1498.53 1063.51 1511.32 1080.63 1523.69 1094.45C1526.7 1097.78 1551.1 1120.41 1554.92 1123.7Z" fill="#EEA886"/>
<path d="M1485.18 995.554C1485.18 995.554 1486.98 945.229 1470.61 945.847C1449.92 946.644 1446.82 971.943 1449.64 999.413C1449.64 999.468 1480.55 999.771 1485.18 995.554Z" fill="#FFC955"/>
<path d="M1549.36 1118.77C1550.28 1120.17 1551.59 1121.28 1553.12 1121.94C1556.98 1123.25 1562.74 1120.75 1565.48 1125.79C1568.23 1130.83 1554.73 1143.44 1551.09 1144.21C1547.45 1144.98 1541.6 1139.3 1537.04 1128.11C1532.48 1116.92 1549.36 1118.77 1549.36 1118.77Z" fill="#EEA886"/>
<path d="M1564.33 1124.21C1569.18 1127.98 1573.83 1131.99 1578.26 1136.24C1584.4 1142.19 1590.62 1149.98 1589.07 1151.45C1586.91 1153.45 1582.72 1146.76 1576.24 1141.27C1570.28 1136.21 1570.62 1138.16 1570.62 1138.16C1570.62 1138.16 1570.62 1137.6 1575.99 1144.32C1581.84 1151.56 1587.88 1160.13 1586.09 1161.38C1584.95 1162.15 1584.9 1162.35 1582.35 1160C1583.53 1161.62 1583.26 1162.16 1582.62 1162.68C1579.36 1165.43 1569.11 1156.06 1565.04 1152.35C1568.15 1155.22 1570.13 1157.65 1566.97 1158.03C1563.36 1158.45 1549.46 1144.59 1544 1140.09C1538.02 1135.23 1564.33 1124.21 1564.33 1124.21Z" fill="#EEA886"/>
<path d="M1356.49 990.032C1356.49 990.032 1351 1029.63 1353.74 1049.09C1353.74 1049.09 1356.61 1051.24 1362.35 1049.51C1362.35 1049.51 1363.73 1006.28 1367 990.925C1366.94 990.939 1365.18 989.607 1356.49 990.032Z" fill="#E0E0E0"/>
<path d="M1362.07 277.145H1357.8V1019.97H1362.07V277.145Z" fill="#E0E0E0"/>
<path d="M2969.07 1956.81C2987.73 1947.88 3006.33 2007.34 3006.33 2007.34C3038.07 2049.29 3082.43 1993.48 3078.09 2056.18C3070.5 2165.91 3204.45 2090.69 3142.64 2205.24C3080.84 2319.79 3197.18 2270.01 3158.79 2362.38C3120.41 2454.75 3170.17 2564.92 3112.41 2519.64C3112.41 2519.64 3061.6 2408.12 3009.12 2373.61C2956.64 2339.11 3040.53 2298.18 3024.13 2251.37C3000.29 2183.3 2942.88 2185.98 2984.3 2112.83C3025.72 2039.68 2905.58 1987.18 2969.07 1956.81Z" fill="url(#paint5_linear_5_243)"/>
<path d="M3130.67 2477.67C3105.63 2460.06 3076.33 2337.37 3074.59 2264.3C3073.7 2226.86 3062.63 2211.27 3052.86 2197.5C3043.54 2184.35 3035.47 2172.99 3040.17 2146.9C3049.14 2097.06 3025.56 2075.55 3025.31 2075.34L3028.06 2072.23C3029.12 2073.15 3053.67 2095.34 3044.26 2147.65C3039.87 2172.01 3047.11 2182.2 3056.25 2195.11C3065.87 2208.64 3077.82 2225.5 3078.74 2264.19C3080.62 2342.63 3110.57 2458.47 3133.07 2474.33L3130.67 2477.67Z" fill="white"/>
<path d="M3140.03 2486.76C3136.47 2486.73 3132.93 2486.35 3129.44 2485.62C3119.83 2483.67 3113.47 2478.58 3110.64 2470.51C3103.9 2451.29 3119.53 2419.86 3132.22 2404.75C3132.44 2404.49 3153.67 2378.53 3151.45 2342.55C3151.08 2336.52 3150.44 2330.94 3149.89 2326.06C3148.3 2311.83 3147.15 2301.53 3153.26 2294.67C3158.66 2288.61 3169.05 2285.98 3188.05 2285.9C3221.37 2285.74 3234.54 2271.95 3245.13 2260.86C3249.62 2256.15 3253.86 2251.72 3259.03 2248.89C3275.63 2239.84 3293.21 2238.49 3300.85 2245.73C3304.46 2249.16 3307.52 2255.89 3301.52 2268.43C3296.03 2279.89 3288.93 2287.15 3283.21 2292.98C3275.52 2300.83 3270.44 2306.01 3273.09 2316.33C3273.71 2318.76 3274.46 2321.2 3275.14 2323.66C3280.27 2341.23 3286.12 2361.14 3256.03 2374.66C3249.66 2377.53 3243.84 2379.81 3238.71 2381.81C3217.73 2390.06 3205.05 2395.03 3190.75 2425.22C3188.01 2431.05 3185.55 2436.6 3183.19 2441.96C3171.87 2467.44 3163.34 2486.76 3140.03 2486.76ZM3260.89 2252.44C3256.31 2254.96 3252.46 2258.98 3248.01 2263.64C3236.89 2275.29 3223.04 2289.73 3187.97 2289.95C3170.5 2290.04 3160.72 2292.32 3156.24 2297.33C3151.35 2302.82 3152.42 2312.34 3153.9 2325.53C3154.45 2330.5 3155.09 2336.13 3155.47 2342.26C3157.85 2379.95 3136.24 2406.28 3135.34 2407.37C3122.77 2422.33 3108.54 2452.11 3114.49 2469.18C3116.79 2475.79 3122.08 2479.98 3130.2 2481.54C3158.52 2487.27 3166.33 2469.55 3179.29 2440.2C3181.66 2434.82 3184.11 2429.21 3186.91 2423.36C3201.91 2391.69 3215.9 2386.2 3237.09 2377.89C3242.17 2375.88 3247.94 2373.63 3254.23 2370.8C3281 2358.77 3276.21 2342.24 3271.06 2324.75C3270.33 2322.25 3269.6 2319.75 3268.97 2317.27C3265.74 2304.68 3272.1 2298.2 3280.15 2290C3285.93 2284.09 3292.51 2277.39 3297.67 2266.55C3300.42 2260.86 3302.63 2253.14 3297.88 2248.69C3291.63 2242.76 3275.73 2244.4 3260.89 2252.49V2252.44Z" fill="url(#paint6_linear_5_243)"/>
<path d="M3129.9 2510.66L3125.78 2510.46C3125.98 2506.57 3131.27 2415 3167.96 2388.21C3208.29 2358.82 3221.01 2327.23 3227.01 2306.02C3234.14 2281.03 3270.47 2274.35 3272.01 2274.08L3272.72 2278.2C3272.38 2278.2 3237.41 2284.71 3230.98 2307.19C3224.76 2328.99 3211.75 2361.46 3170.34 2391.61C3135.2 2417.2 3129.95 2509.74 3129.9 2510.66Z" fill="url(#paint7_linear_5_243)"/>
<path d="M3213.95 2049.26C3187.86 2040.31 3193.25 2090.66 3182.21 2127.94C3171.17 2165.21 3059.39 2144.18 3106.3 2237.5C3153.22 2330.82 3046.96 2268.71 3078.71 2350.13C3110.46 2431.55 3081.46 2518.64 3115.97 2496.5C3150.49 2474.36 3135.35 2371.8 3171.24 2359.62C3207.13 2347.44 3212.96 2333.22 3177.45 2300.1C3141.93 2266.99 3270.54 2234.09 3238.8 2167.2C3207.06 2100.32 3244.14 2059.58 3213.95 2049.26Z" fill="url(#paint8_linear_5_243)"/>
<path d="M3131.97 2492.56C3128.69 2478.62 3100.63 2355.94 3126.81 2341.1C3149.89 2328.04 3149.32 2277.21 3145.72 2229.2C3142.53 2186.71 3197.1 2166.85 3199.42 2166.02L3200.79 2169.92C3200.26 2170.12 3146.89 2189.57 3149.84 2228.9C3153.53 2278.2 3153.96 2330.54 3128.84 2344.72C3108.95 2355.98 3127.26 2454.6 3136 2491.6L3131.97 2492.56Z" fill="white"/>
<path d="M3191.37 2448.87L3154.07 2590.41H3070.7L3033.39 2448.87H3191.37Z" fill="url(#paint9_linear_5_243)"/>
<path d="M3191.37 2448.87C3191.37 2448.87 3109.24 2464.29 3109.24 2590.34H3070.7L3033.39 2448.87H3191.37Z" fill="url(#paint10_linear_5_243)"/>
<path d="M2973.75 974.553C2957.52 962.549 2947.22 955.723 2947.11 955.654L2953.17 946.493C2953.59 946.767 2963.78 953.511 2980.28 965.722L2973.75 974.553Z" fill="#E0E0E0"/>
<path d="M1231.96 1699.51L1225.09 1690.92C1242.26 1677.28 1259.7 1663.89 1276.91 1651.08L1283.47 1659.92C1266.43 1672.65 1249.09 1685.96 1231.96 1699.51ZM1336.34 1622.19L1330.12 1613.13C1348.18 1600.77 1366.53 1588.58 1384.65 1577.09L1390.54 1586.38C1372.59 1597.79 1354.36 1609.84 1336.41 1622.19H1336.34ZM1446.07 1552.74L1440.57 1543.22C1459.52 1532.24 1478.81 1521.66 1497.86 1511.63L1502.95 1521.37C1484.1 1531.32 1464.96 1541.85 1446.13 1552.74H1446.07ZM2961.94 1512.22L2961.38 1501.24C2982.76 1500.22 3004.01 1497.3 3024.87 1492.5L3027.38 1503.19C3005.89 1508.15 2983.98 1511.18 2961.94 1512.22ZM2896.15 1511.26C2875.79 1509.78 2854.48 1507.31 2831 1503.68L2832.67 1492.82C2855.86 1496.4 2876.89 1498.85 2896.95 1500.3L2896.15 1511.26ZM1561.19 1492.75L1556.54 1482.79C1576.4 1473.55 1596.56 1464.74 1616.49 1456.6L1620.61 1466.77C1600.9 1474.8 1580.91 1483.54 1561.21 1492.71L1561.19 1492.75ZM2766.59 1491.96C2747.47 1488.04 2726.59 1483.42 2702.79 1477.84L2705.3 1467.15C2729.01 1472.64 2749.77 1477.3 2768.8 1481.2L2766.59 1491.96ZM3089.77 1480.98L3084.89 1471.13C3094.48 1466.38 3103.76 1461.05 3112.7 1455.17C3121.9 1449.12 3130.56 1442.81 3138.51 1436.46L3145.38 1445.02C3137.14 1451.61 3128.19 1458.12 3118.7 1464.36C3109.41 1470.45 3099.75 1475.97 3089.79 1480.89L3089.77 1480.98ZM2639.36 1462.57L2613.27 1456.13L2576.08 1446.97L2578.7 1436.3C2591.24 1439.37 2603.65 1442.43 2615.91 1445.47L2642 1451.91L2639.36 1462.57ZM1681.31 1443.78L1677.67 1433.41C1698.27 1426.19 1719.21 1419.43 1739.95 1413.35L1743.04 1423.89C1722.52 1429.81 1701.74 1436.54 1681.33 1443.7L1681.31 1443.78ZM2512.76 1431.74C2490.03 1426.42 2469.27 1421.75 2449.27 1417.47L2451.58 1406.72C2471.63 1411.02 2492.46 1415.71 2515.26 1421.04L2512.76 1431.74ZM1805.74 1407.27L1803.21 1396.57C1824.36 1391.58 1845.92 1387.08 1867.28 1383.22L1869.23 1394.03C1848.09 1397.77 1826.72 1402.23 1805.76 1407.19L1805.74 1407.27ZM2385.51 1404.62C2363.68 1400.5 2342.11 1396.82 2321.44 1393.64L2323.13 1382.78C2343.91 1386 2365.59 1389.65 2387.53 1393.77L2385.51 1404.62ZM3191.48 1397.14L3182.53 1390.76C3194.87 1373.7 3203.69 1354.35 3208.47 1333.83L3219.18 1336.26C3214.08 1358.16 3204.67 1378.83 3191.51 1397.06L3191.48 1397.14ZM2257.07 1384.86C2235.3 1382.3 2213.55 1380.22 2192.44 1378.64L2193.25 1367.65C2214.52 1369.24 2236.43 1371.34 2258.35 1373.91L2257.07 1384.86ZM1933.36 1384.25L1931.98 1373.35C1953.46 1370.6 1975.37 1368.51 1997.12 1366.95L1997.91 1377.94C1976.36 1379.38 1954.66 1381.51 1933.38 1384.17L1933.36 1384.25ZM2127.61 1375.26C2105.9 1374.63 2084.36 1374.52 2062.72 1374.96L2062.5 1363.97C2084.32 1363.53 2106.04 1363.64 2127.93 1364.27L2127.61 1375.26ZM3209.69 1271.16C3205.91 1250.23 3199.34 1229.91 3190.15 1210.73L3200.11 1206.08C3209.71 1226.14 3216.58 1247.39 3220.53 1269.27L3209.69 1271.16ZM3157.79 1155.32C3145.43 1137.68 3132.07 1120.76 3117.78 1104.64L3126.02 1097.39C3140.58 1113.82 3154.2 1131.07 3166.8 1149.06L3157.79 1155.32ZM3072.93 1057.98C3057.82 1043.5 3041.6 1028.93 3024.64 1014.7L3031.71 1006.28C3048.85 1020.68 3065.28 1035.4 3080.54 1050.05L3072.93 1057.98Z" fill="#E0E0E0"/>
<path d="M1156.42 1762.49L1149.2 1754.25C1157.58 1746.92 1165.93 1739.74 1174.26 1732.71L1181.36 1741.1C1173.06 1748.1 1164.75 1755.23 1156.42 1762.49Z" fill="#E0E0E0"/>
<path d="M962.867 1873.5L1091.36 1801.62L1047.21 1798.71L962.867 1873.5Z" fill="#D6D6D6"/>
<path d="M962.867 1873.5L1002.42 1809.89L1035.59 1809.01L962.867 1873.5Z" fill="#E8E8E8"/>
<path d="M1061.82 1818.14L1064.39 1834.34L962.867 1873.5L1061.82 1818.14Z" fill="#C2C2C2"/>
<path d="M2040.85 1839.45H1731C1716.73 1839.45 1705.16 1851.01 1705.16 1865.28V2233.53C1705.16 2247.8 1716.73 2259.37 1731 2259.37H2040.85C2055.12 2259.37 2066.69 2247.8 2066.69 2233.53V1865.28C2066.69 1851.01 2055.12 1839.45 2040.85 1839.45Z" fill="#F5F5F5"/>
<path d="M1924.63 2013.62C1920.58 2002.16 1914.3 1991.61 1906.16 1982.58C1898.01 1973.55 1888.17 1966.21 1877.19 1961C1866.21 1955.78 1854.3 1952.78 1842.16 1952.17C1830.02 1951.56 1817.87 1953.36 1806.43 1957.45C1794.98 1961.55 1784.45 1967.86 1775.45 1976.03C1766.44 1984.21 1759.14 1994.08 1753.96 2005.07C1748.78 2016.07 1745.82 2027.99 1745.25 2040.13C1744.68 2052.28 1746.52 2064.42 1750.65 2075.85C1751.35 2077.8 1752.11 2079.73 1752.93 2081.61C1762.56 2103.48 1780.29 2120.77 1802.4 2129.85C1824.51 2138.92 1849.28 2139.08 1871.5 2130.28C1893.72 2121.48 1911.67 2104.41 1921.57 2082.66C1931.47 2060.9 1932.56 2036.16 1924.61 2013.62H1924.63ZM1860.99 2109.96C1844.45 2115.89 1826.27 2115.31 1810.14 2108.33C1794.01 2101.35 1781.15 2088.5 1774.15 2072.38C1773.54 2071 1772.97 2069.52 1772.45 2068.06C1767.83 2055.16 1767.14 2041.18 1770.47 2027.89C1773.8 2014.6 1781 2002.59 1791.15 1993.39C1801.3 1984.19 1813.95 1978.2 1827.51 1976.19C1841.06 1974.18 1854.91 1976.24 1867.3 1982.1C1879.68 1987.96 1890.05 1997.36 1897.09 2009.11C1904.14 2020.87 1907.54 2034.45 1906.86 2048.13C1906.19 2061.82 1901.47 2075 1893.3 2086C1885.14 2097.01 1873.89 2105.34 1860.99 2109.96Z" fill="#4AAFFF"/>
<path d="M1771.51 2024.09L1749.44 2017.22C1755.18 1998.87 1766.5 1982.77 1781.81 1971.16C1797.12 1959.54 1815.67 1952.98 1834.88 1952.39L1835.57 1975.51C1821.16 1975.95 1807.26 1980.86 1795.78 1989.58C1784.3 1998.29 1775.81 2010.36 1771.51 2024.11V2024.09Z" fill="#1A598C"/>
<path d="M1774.12 2072.38L1752.93 2081.61C1752.11 2079.73 1751.35 2077.8 1750.65 2075.85C1743.86 2056.95 1743.43 2036.35 1749.44 2017.19L1771.51 2024.06C1767.01 2038.42 1767.33 2053.85 1772.42 2068.01C1772.94 2069.52 1773.52 2070.96 1774.12 2072.38Z" fill="#2273B5"/>
<path d="M1767.24 2104.61C1761.37 2097.69 1756.54 2089.94 1752.93 2081.61L1774.12 2072.38C1776.83 2078.63 1780.45 2084.44 1784.86 2089.63L1767.24 2104.61Z" fill="#3788CC"/>
<path d="M2004.75 2070.06C1995.59 2065.75 1985.1 2065.26 1975.57 2068.68C1966.05 2072.1 1958.27 2079.15 1953.94 2088.3C1949.61 2097.45 1949.09 2107.94 1952.48 2117.47C1955.88 2127 1962.91 2134.8 1972.05 2139.16C1972.83 2139.51 1973.61 2139.86 1974.39 2140.17C1983.57 2143.59 1993.7 2143.35 2002.71 2139.51C2011.71 2135.67 2018.9 2128.53 2022.79 2119.55C2026.68 2110.56 2026.98 2100.43 2023.62 2091.24C2020.27 2082.04 2013.51 2074.49 2004.75 2070.13V2070.06ZM2014.29 2116.87C2011.18 2123.43 2005.69 2128.58 1998.94 2131.25C1992.18 2133.93 1984.66 2133.93 1977.9 2131.27C1977.31 2131.04 1976.73 2130.78 1976.14 2130.5C1971.02 2128.08 1966.73 2124.19 1963.82 2119.33C1960.91 2114.47 1959.5 2108.85 1959.78 2103.19C1960.06 2097.53 1962.01 2092.08 1965.39 2087.53C1968.77 2082.98 1973.42 2079.54 1978.75 2077.63C1984.09 2075.72 1989.87 2075.44 1995.37 2076.82C2000.86 2078.2 2005.83 2081.17 2009.63 2085.37C2013.43 2089.57 2015.91 2094.81 2016.74 2100.41C2017.57 2106.02 2016.72 2111.74 2014.29 2116.87Z" fill="#4AAFFF"/>
<path d="M1963.02 2117.94L1954.55 2122.37C1950.86 2115.33 1949.46 2107.31 1950.53 2099.44C1951.61 2091.56 1955.12 2084.21 1960.56 2078.42L1967.53 2084.99C1963.45 2089.33 1960.82 2094.84 1960.01 2100.75C1959.2 2106.66 1960.26 2112.67 1963.02 2117.95V2117.94Z" fill="#1A598C"/>
<path d="M1977.9 2131.27L1974.39 2140.17C1973.61 2139.86 1972.83 2139.51 1972.05 2139.16C1964.53 2135.62 1958.39 2129.71 1954.55 2122.35L1963.02 2117.91C1965.9 2123.43 1970.51 2127.85 1976.14 2130.5C1976.73 2130.78 1977.31 2131.04 1977.9 2131.27Z" fill="#2273B5"/>
<path d="M2022.94 2004.57C2025.17 2000.02 2026.46 1995.08 2026.76 1990.03C2027.06 1984.98 2026.35 1979.92 2024.67 1975.14C2023 1970.36 2020.39 1965.97 2017.01 1962.21C2013.62 1958.45 2009.52 1955.4 2004.95 1953.23C2000.37 1951.07 1995.42 1949.83 1990.36 1949.6C1985.31 1949.37 1980.26 1950.14 1975.5 1951.88C1970.75 1953.61 1966.39 1956.27 1962.67 1959.71C1958.95 1963.14 1955.95 1967.28 1953.85 1971.88C1953.48 1972.65 1953.15 1973.43 1952.83 1974.23C1949.23 1983.45 1949.34 1993.71 1953.15 2002.85C1956.96 2011.99 1964.17 2019.29 1973.25 2023.22C1982.34 2027.16 1992.6 2027.41 2001.86 2023.93C2011.13 2020.45 2018.69 2013.51 2022.94 2004.57ZM1976.14 2014.18C1969.56 2011.08 1964.41 2005.59 1961.74 1998.83C1959.06 1992.07 1959.06 1984.55 1961.73 1977.79C1961.96 1977.19 1962.23 1976.6 1962.5 1976.01C1964.93 1970.89 1968.82 1966.61 1973.68 1963.7C1978.54 1960.79 1984.15 1959.39 1989.81 1959.67C1995.47 1959.95 2000.92 1961.9 2005.47 1965.28C2010.02 1968.66 2013.46 1973.31 2015.37 1978.64C2017.28 1983.98 2017.56 1989.76 2016.18 1995.25C2014.8 2000.75 2011.82 2005.71 2007.62 2009.52C2003.43 2013.32 1998.19 2015.79 1992.59 2016.63C1986.98 2017.46 1981.26 2016.61 1976.14 2014.18Z" fill="#4AAFFF"/>
<path d="M1975.09 1962.84L1970.66 1954.37C1977.7 1950.67 1985.72 1949.27 1993.6 1950.35C2001.48 1951.43 2008.82 1954.94 2014.61 1960.4L2008.04 1967.36C2003.7 1963.27 1998.19 1960.64 1992.28 1959.83C1986.38 1959.02 1980.36 1960.07 1975.08 1962.84H1975.09Z" fill="#4AAFFF"/>
<path d="M1961.73 1977.73L1952.83 1974.23C1953.15 1973.43 1953.48 1972.65 1953.85 1971.88C1957.39 1964.36 1963.29 1958.21 1970.66 1954.37L1975.09 1962.84C1969.58 1965.72 1965.15 1970.33 1962.5 1975.96C1962.23 1976.55 1961.96 1977.14 1961.73 1977.73Z" fill="#2273B5"/>
<path d="M1950.26 1985.15C1950.56 1981.38 1951.42 1977.68 1952.8 1974.16L1961.7 1977.66C1960.67 1980.3 1960.02 1983.08 1959.79 1985.9L1950.26 1985.15Z" fill="#3788CC"/>
<path d="M1976.65 2167.9H1905.28V2166.48H1975.23V2139.51H1976.65V2167.9Z" fill="#E2F3FE"/>
<path d="M1842.26 2167.9H1749.44V2166.48H1840.84V2122.35H1842.26V2167.9Z" fill="#E2F3FE"/>
<path d="M1813.31 2151.71H1749.44V2160.23H1813.31V2151.71Z" fill="#4AAFFF"/>
<path d="M1942.85 2151.71H1905.28V2160.23H1942.85V2151.71Z" fill="#4AAFFF"/>
<path d="M1765.55 1875.49H1734.98V1882.02H1765.55V1875.49Z" fill="#4AAFFF"/>
<path d="M1909.83 1900.09H1862.41V1906.62H1909.83V1900.09Z" fill="#4AAFFF"/>
<path d="M1830.03 1900.09H1801.08V1906.62H1830.03V1900.09Z" fill="#4AAFFF"/>
<path d="M1792.33 1900.09H1734.98V1906.62H1792.33V1900.09Z" fill="#4AAFFF"/>
<path d="M1820.14 1875.49H1774.85V1882.02H1820.14V1875.49Z" fill="#4AAFFF"/>
<path d="M1851.54 1900.09H1839.1V1906.62H1851.54V1900.09Z" fill="#4AAFFF"/>
<path d="M1909.82 1875.86H1875.99V1882.4H1909.82V1875.86Z" fill="#4AAFFF"/>
<path d="M1950.74 1900.09H1921.89V1906.62H1950.74V1900.09Z" fill="#4AAFFF"/>
<path d="M1867.13 1875.86H1831.27V1882.4H1867.13V1875.86Z" fill="#4AAFFF"/>
<path d="M1914.38 2207.45H1857.49C1847.97 2207.45 1840.25 2215.17 1840.25 2224.69V2281.58C1840.25 2291.1 1847.97 2298.81 1857.49 2298.81H1914.38C1923.89 2298.81 1931.61 2291.1 1931.61 2281.58V2224.69C1931.61 2215.17 1923.89 2207.45 1914.38 2207.45Z" fill="white"/>
<path d="M1890.24 2234.95H1881.61V2271.29H1890.24V2234.95Z" fill="#C5CCD1"/>
<path d="M1904.1 2257.44V2248.8H1867.76V2257.44H1904.1Z" fill="#C5CCD1"/>
<path d="M2143.57 2104.49L2084.83 2136.78L2025.84 2043.95L2097.19 2019.15L2143.57 2104.49Z" fill="#292C47"/>
<path d="M2139.85 2101.7L2084.91 2131.91L2029.74 2045.07L2096.48 2021.9L2139.85 2101.7Z" fill="#E2D2CA"/>
<path d="M2159.97 2085.47C2159.97 2085.47 2149.75 2080.58 2145.26 2078.02C2140.77 2075.47 2129.22 2071.95 2128.3 2071.16C2127.38 2070.36 2094.07 2068.27 2092.06 2066.54C2090.04 2064.81 2088.07 2070.66 2096.7 2072.5C2105.32 2074.34 2117.3 2079.01 2117.99 2082.39C2118.67 2085.77 2109.13 2086.51 2108.17 2089.34C2107.2 2092.17 2108.44 2091.5 2109.8 2092.09C2111.16 2092.68 2121.12 2087.17 2125.5 2088.74C2129.88 2090.3 2136.57 2088.13 2139.93 2089.29L2159.6 2095.92L2159.97 2085.47Z" fill="#EEA886"/>
<path d="M2081.97 2125.13C2081.97 2125.13 2073.38 2117.4 2069.23 2114.15C2065.08 2110.89 2057.27 2101.4 2056.11 2100.84C2054.96 2100.27 2040.07 2069.71 2037.64 2068.49C2035.21 2067.27 2039.93 2063.15 2045.08 2070.54C2050.23 2077.93 2059.24 2087.46 2062.68 2086.76C2066.11 2086.06 2063.16 2076.79 2065.42 2074.8C2067.69 2072.8 2067.55 2074.2 2068.65 2075.26C2069.75 2076.32 2068.42 2087.84 2071.61 2091.36C2074.79 2094.88 2075.34 2102.03 2077.73 2104.75C2080.12 2107.47 2091.66 2120.71 2091.66 2120.71L2081.97 2125.13Z" fill="#EEA886"/>
<path d="M2266.96 2538.38C2266.96 2538.38 2268.82 2551.28 2269.05 2553.23C2269.28 2555.18 2289.72 2552.07 2289.72 2552.07L2291.38 2536.72C2291.38 2536.72 2269.52 2536.57 2266.96 2538.38Z" fill="#424773"/>
<path d="M2268.9 2551.58C2268.9 2551.58 2262.41 2559.35 2256.15 2562.74C2249.89 2566.14 2240.04 2567.47 2236.35 2570.99C2233.6 2573.53 2226.61 2584.42 2252.62 2584.2C2278.64 2583.98 2291.17 2585.74 2293.96 2581.56C2296.75 2577.39 2289.92 2550.73 2289.92 2550.73C2289.92 2550.73 2283.72 2552.92 2268.9 2551.58Z" fill="#292C47"/>
<path d="M2120.57 2538.38C2120.57 2538.38 2122.42 2551.28 2122.66 2553.23C2122.89 2555.18 2143.26 2552.07 2143.26 2552.07L2144.9 2536.72C2144.9 2536.72 2123.08 2536.57 2120.57 2538.38Z" fill="#424773"/>
<path d="M2122.39 2551.58C2122.39 2551.58 2115.93 2559.35 2109.66 2562.74C2103.4 2566.14 2080.34 2568.91 2076.7 2572.36C2073.95 2574.89 2069.57 2585.08 2106.17 2584.13C2132.19 2583.46 2144.73 2585.67 2147.51 2581.49C2150.3 2577.32 2143.49 2550.66 2143.49 2550.66C2143.49 2550.66 2137.63 2553.08 2122.39 2551.58Z" fill="#292C47"/>
<path d="M2250.04 2206.97C2250.04 2206.97 2269.27 2237.47 2267.81 2265.05C2266.36 2292.63 2274.78 2322.74 2277.66 2351.58C2280.87 2383.7 2294.03 2459.75 2294.51 2476.93C2294.99 2494.11 2292.47 2548.97 2292.47 2548.97L2266.12 2549.57C2266.12 2549.57 2244 2416.63 2238.27 2403.06C2232.54 2389.49 2204.11 2292.8 2203.17 2281.95C2202.22 2271.1 2250.04 2206.97 2250.04 2206.97Z" fill="#292C47"/>
<path d="M2148.94 2211.1C2148.94 2211.1 2134.47 2286.64 2132.56 2303.58C2130.65 2320.51 2129.38 2385.26 2128.44 2395.82C2127.49 2406.39 2122.06 2533.89 2116.97 2549.56H2150.66C2150.66 2549.56 2176.51 2456.86 2176.51 2413.01C2176.51 2369.15 2196.49 2317.66 2209.39 2288.72C2222.28 2259.78 2251.78 2259.09 2259.72 2205.4C2259.71 2205.4 2159.68 2194.07 2148.94 2211.1Z" fill="#292C47"/>
<path d="M2218 1950.37C2218 1950.37 2192.22 1940.76 2180.33 1960.37C2168.43 1979.98 2169.59 2019.28 2182.58 2024.1C2195.57 2028.92 2215.1 2026.41 2221.75 2014.13C2228.4 2001.85 2234.4 1984.1 2234.11 1972.24C2233.82 1960.37 2224.76 1953.84 2218 1950.37Z" fill="#EEA886"/>
<path d="M2185.38 2025.06C2185.38 2025.06 2186.45 2032.01 2184.68 2035.44C2182.91 2038.88 2218.08 2038.96 2218.08 2038.96C2219.95 2027.32 2222.71 2015.84 2226.32 2004.62C2231.82 1988.83 2185.38 2025.06 2185.38 2025.06Z" fill="#EEA886"/>
<path d="M2226.32 2004.55C2226.32 2004.55 2223.89 2008.56 2213.96 2007.01C2204.03 2005.46 2191.99 1992.28 2187.87 1990.82C2183.75 1989.36 2183.75 1986.95 2183.75 1986.95L2181.15 1990.72L2176.75 1991.01C2176.75 1991.01 2180.76 1979.21 2174.72 1974.41C2168.68 1969.6 2181 1936.24 2212.77 1947.35C2212.77 1947.35 2237.17 1954.08 2236.29 1967.95C2235.41 1981.82 2231.82 1997.65 2226.32 2004.55Z" fill="#3A3F47"/>
<path d="M2182.59 2035.03C2182.59 2035.03 2182.7 2028.48 2185.67 2027.85C2188.63 2027.22 2218.45 2024.36 2222.09 2025.79V2033.43C2222.09 2033.43 2215.07 2037.74 2182.59 2035.03Z" fill="#E2D2CA"/>
<path d="M2184.36 1981.96C2184.91 1979.63 2190.83 1972.98 2193.1 1980.09C2195.36 1987.21 2189.68 1996.81 2186.51 1995.98C2183.33 1995.16 2182.95 1987.8 2184.36 1981.96Z" fill="#EEA886"/>
<path d="M2064.26 2112.44C2064.16 2112.51 2064.13 2112.52 2064.26 2112.44V2112.44Z" fill="#323657"/>
<path d="M2273.33 2279.14C2258.78 2283.04 2243.94 2285.76 2228.94 2287.28C2201.98 2290.26 2134.63 2286.2 2134.18 2283.02C2133.72 2279.83 2148.67 2164.43 2147.82 2158.48C2146.96 2152.54 2146.51 2131.37 2146.51 2131.37C2146.18 2137.17 2140.28 2160.87 2133.13 2173.78C2130.55 2178.45 2121.91 2193.01 2117.74 2189.76C2097.56 2173.65 2066.32 2112.94 2064.34 2112.43C2066 2111.7 2079.15 2105.64 2080.99 2105.04C2082.61 2104.49 2097.16 2119.92 2105.98 2129.46C2109.91 2133.72 2112.7 2136.82 2112.7 2136.82C2115.25 2131.08 2124.52 2094.99 2127.41 2082.49C2133.92 2054.32 2132.9 2053.14 2132.9 2053.14C2152.62 2047.17 2182.55 2035.03 2182.55 2035.03L2222.05 2033.43C2222.05 2033.43 2258.29 2041.41 2272.58 2047.85C2273.95 2048.47 2273.95 2080.19 2277.66 2088.52L2265.82 2113.49C2265.82 2113.49 2258.95 2162.93 2257.58 2184.91C2256.95 2195.05 2273.33 2279.14 2273.33 2279.14Z" fill="#FFC955"/>
<path d="M2279.34 2129.71C2278.31 2133.03 2273.62 2135.85 2270.57 2137.08C2268.57 2137.89 2266.38 2138.11 2264.26 2137.72L2262.7 2137.43L2235.65 2132.4C2235.65 2132.4 2229.71 2064.19 2272.62 2047.85C2273.75 2048.22 2288.81 2099.16 2279.34 2129.71Z" fill="#FFC955"/>
<path d="M2270.57 2137.07C2268.57 2137.87 2266.38 2138.09 2264.26 2137.7L2262.7 2137.41L2265.45 2102.55L2270.57 2137.07Z" fill="#967732"/>
<path d="M2112.73 2136.82L2109.43 2150.83C2109.43 2150.83 2105.83 2136.77 2106.01 2129.46C2109.94 2133.72 2112.73 2136.82 2112.73 2136.82Z" fill="#967732"/>
<path d="M2225.33 1952.75C2225.33 1952.75 2259.12 1948.52 2225.91 2004.94L2225.33 1952.75Z" fill="#3A3F47"/>
<path d="M2053 2038.96L2049.56 2033.05L2076.6 2023.73L2080.04 2029.59L2053 2038.96Z" fill="#292C47"/>
<path d="M1549.39 2027.31H1538.58V2518.78H1549.39V2027.31Z" fill="#706865"/>
<path d="M1306.51 2027.31H1295.7V2518.78H1306.51V2027.31Z" fill="#706865"/>
<path d="M1564.58 1821.99H1273.74C1255.82 1821.99 1241.29 1836.52 1241.29 1854.45V2405.2C1241.29 2423.13 1255.82 2437.66 1273.74 2437.66H1564.58C1582.5 2437.66 1597.03 2423.13 1597.03 2405.2V1854.45C1597.03 1836.52 1582.5 1821.99 1564.58 1821.99Z" fill="#BDAFAA"/>
<path d="M1555.21 1831.91H1283.12C1265.41 1831.91 1251.05 1846.26 1251.05 1863.98V2381.53C1251.05 2399.24 1265.41 2413.6 1283.12 2413.6H1555.21C1572.92 2413.6 1587.28 2399.24 1587.28 2381.53V1863.98C1587.28 1846.26 1572.92 1831.91 1555.21 1831.91Z" fill="white"/>
<path d="M1472.17 1817.33H1366.16V1841.27H1472.17V1817.33Z" fill="#706865"/>
<path d="M1414.05 2104.2L1406.98 2085.71C1399.96 2084.87 1393.06 2083.28 1386.38 2080.99L1371.95 2094.53L1331.59 2065.8L1339.65 2047.74C1335.29 2042.2 1331.54 2036.21 1328.44 2029.88L1308.67 2029.25L1300.43 1980.39L1318.91 1973.32C1319.75 1966.31 1321.33 1959.4 1323.62 1952.72L1310.1 1938.3L1338.83 1897.93L1356.89 1905.99C1362.43 1901.63 1368.41 1897.87 1374.74 1894.77L1375.37 1874.99L1424.23 1866.75L1431.3 1885.22C1438.32 1886.07 1445.22 1887.65 1451.9 1889.95L1466.32 1876.42L1506.69 1905.15L1498.63 1923.2C1502.99 1928.74 1506.75 1934.73 1509.85 1941.06L1529.61 1941.68L1537.85 1990.55L1519.36 1997.62C1518.53 2004.63 1516.95 2011.54 1514.65 2018.22L1528.18 2032.64L1499.45 2073.01L1481.4 2064.95C1475.84 2069.3 1469.83 2073.06 1463.48 2076.16L1462.85 2095.93L1414.05 2104.2ZM1383.84 2068.31L1387.05 2069.55C1394.86 2072.53 1403.05 2074.41 1411.39 2075.13L1414.82 2075.41L1421.11 2091.9L1452.22 2086.65L1452.78 2069.05L1455.93 2067.68C1463.57 2064.29 1470.69 2059.83 1477.09 2054.45L1479.71 2052.23L1495.78 2059.4L1514.08 2033.7L1502.05 2020.87L1503.27 2017.66C1506.26 2009.85 1508.13 2001.65 1508.84 1993.32L1509.15 1989.89L1525.63 1983.6L1520.38 1952.47L1502.79 1951.92L1501.41 1948.78C1498.01 1941.14 1493.56 1934.01 1488.17 1927.61L1485.95 1924.97L1493.13 1908.92L1467.42 1890.62L1454.59 1902.65L1451.38 1901.42C1443.56 1898.46 1435.37 1896.61 1427.04 1895.92L1423.61 1895.62L1417.32 1879.14L1386.21 1884.37L1385.65 1901.98L1382.5 1903.36C1374.86 1906.76 1367.74 1911.22 1361.34 1916.6L1358.72 1918.81L1342.65 1911.64L1324.35 1937.35L1336.38 1950.18L1335.16 1953.39C1332.17 1961.2 1330.29 1969.4 1329.58 1977.73L1329.28 1981.15L1312.8 1987.45L1318.05 2018.56L1335.64 2019.13L1337.02 2022.27C1340.42 2029.91 1344.88 2037.03 1350.25 2043.44L1352.48 2046.06L1345.3 2062.13L1371.01 2080.43L1383.84 2068.31Z" fill="#CFCFCF"/>
<path d="M1387.28 2030.58L1387.15 2030.49C1375.24 2022 1367.18 2009.13 1364.75 1994.71C1362.32 1980.29 1365.7 1965.5 1374.17 1953.57L1383.12 1959.93C1376.33 1969.49 1373.62 1981.35 1375.57 1992.91C1377.52 2004.47 1383.98 2014.79 1393.53 2021.59L1387.28 2030.58ZM1464.19 2017.41L1455.23 2011.06C1460.53 2003.62 1463.38 1994.69 1463.37 1985.55C1463.37 1978.49 1461.68 1971.53 1458.44 1965.26C1455.21 1958.99 1450.52 1953.57 1444.77 1949.48L1451.05 1940.45C1458.23 1945.57 1464.08 1952.33 1468.13 1960.16C1472.17 1968 1474.28 1976.69 1474.29 1985.5C1474.34 1996.93 1470.82 2008.08 1464.22 2017.41H1464.19Z" fill="#CFCFCF"/>
<path d="M1489.27 2215.04L1485.36 2204.81C1482.57 2204.39 1479.81 2203.75 1477.12 2202.92L1469.12 2210.41L1444.49 2192.88L1448.95 2182.88C1447.27 2180.6 1445.77 2178.21 1444.46 2175.71L1433.47 2175.36L1428.44 2145.53L1438.68 2141.62C1439.1 2138.83 1439.73 2136.07 1440.57 2133.37L1433.07 2125.39L1450.61 2100.75L1460.61 2105.22C1462.88 2103.54 1465.28 2102.04 1467.78 2100.73L1468.12 2089.74L1497.95 2084.71L1501.87 2094.94C1504.66 2095.36 1507.41 2095.99 1510.11 2096.83L1518.1 2089.34L1542.74 2106.87L1538.28 2116.87C1539.95 2119.14 1541.45 2121.54 1542.75 2124.05L1553.74 2124.39L1558.77 2154.21L1548.52 2158.13C1548.11 2160.92 1547.48 2163.67 1546.64 2166.37L1554.14 2174.35L1536.6 2198.99L1526.6 2194.52C1524.33 2196.2 1521.93 2197.7 1519.43 2199.01L1519.08 2210L1489.27 2215.04ZM1474.52 2190.32L1477.74 2191.56C1481.6 2193.03 1485.65 2193.95 1489.77 2194.3L1493.2 2194.59L1496.32 2202.74L1508.4 2200.7L1508.68 2191.98L1511.82 2190.61C1515.6 2188.93 1519.13 2186.72 1522.29 2184.06L1524.91 2181.85L1532.88 2185.4L1539.98 2175.42L1534.02 2169.06L1535.24 2165.84C1536.72 2161.98 1537.64 2157.93 1537.99 2153.81L1538.29 2150.38L1546.43 2147.26L1544.4 2135.19L1535.68 2134.91L1534.31 2131.77C1532.62 2127.99 1530.42 2124.46 1527.76 2121.29L1525.55 2118.66L1529.09 2110.7L1519.12 2103.6L1512.76 2109.57L1509.54 2108.34C1505.68 2106.87 1501.63 2105.94 1497.51 2105.59L1494.08 2105.3L1490.96 2097.14L1478.88 2099.19L1478.6 2107.9L1475.46 2109.27C1471.68 2110.96 1468.16 2113.17 1464.99 2115.82L1462.35 2118.05L1454.4 2114.49L1447.3 2124.47L1453.26 2130.82L1452.03 2134.05C1450.55 2137.91 1449.63 2141.96 1449.28 2146.08L1448.98 2149.51L1440.83 2152.62L1442.87 2164.7L1451.59 2164.98L1452.96 2168.12C1454.64 2171.9 1456.85 2175.43 1459.51 2178.59L1461.72 2181.23L1458.18 2189.18L1468.19 2196.23L1474.52 2190.32ZM1493.59 2181.46C1486.5 2181.46 1479.63 2179.07 1474.06 2174.69C1468.5 2170.3 1464.57 2164.18 1462.91 2157.29C1461.24 2150.41 1461.94 2143.16 1464.89 2136.72C1467.84 2130.28 1472.86 2125.02 1479.16 2121.78C1485.46 2118.54 1492.66 2117.51 1499.62 2118.86C1506.57 2120.2 1512.87 2123.85 1517.5 2129.21C1522.14 2134.56 1524.83 2141.32 1525.16 2148.4C1525.49 2155.47 1523.44 2162.45 1519.32 2168.22C1516.41 2172.33 1512.55 2175.67 1508.07 2177.97C1503.59 2180.26 1498.62 2181.45 1493.59 2181.42V2181.46ZM1493.68 2129.38C1492.52 2129.38 1491.36 2129.48 1490.22 2129.67C1485.02 2130.55 1480.36 2133.41 1477.21 2137.65C1474.07 2141.88 1472.68 2147.17 1473.34 2152.41C1474 2157.64 1476.66 2162.42 1480.76 2165.74C1484.86 2169.07 1490.09 2170.68 1495.34 2170.24C1500.6 2169.8 1505.49 2167.35 1508.98 2163.39C1512.48 2159.44 1514.31 2154.28 1514.09 2149.01C1513.88 2143.74 1511.63 2138.75 1507.83 2135.09C1504.03 2131.44 1498.96 2129.39 1493.68 2129.38Z" fill="#CFCFCF"/>
<path d="M1150.42 2552.25C1150.42 2552.25 1160.63 2562.96 1171.02 2565.22C1181.42 2567.47 1188.64 2570.33 1188.73 2576.48C1188.81 2582.63 1158.9 2586.7 1147.03 2580.49C1129.33 2571.23 1127.51 2574.02 1125.55 2569.39C1123.58 2564.76 1127.91 2552.39 1127.79 2550.92C1127.58 2549.09 1150.42 2552.25 1150.42 2552.25Z" fill="#202338"/>
<path d="M1149.27 2547.11C1149.76 2548.8 1150.15 2550.52 1150.42 2552.25C1150.22 2552.35 1127.07 2555 1127.76 2550.88C1128.32 2547.61 1129.13 2544.01 1129.13 2544.01L1149.27 2547.11Z" fill="#2F6B8C"/>
<path d="M1035.05 2555.04C1035.05 2555.04 1042.57 2565.49 1052.62 2567.9C1062.67 2570.3 1068.95 2574.76 1069.43 2580.78C1069.91 2586.8 1046.08 2594.51 1029.33 2584.08C1018.34 2577.21 1014.22 2577.58 1011.99 2573.18C1009.77 2568.79 1013.15 2556.51 1012.93 2555.08C1012.65 2553.34 1035.05 2555.04 1035.05 2555.04Z" fill="#202338"/>
<path d="M1034.75 2549.88C1034.95 2551.59 1035.05 2553.31 1035.05 2555.04C1034.88 2555.16 1012.79 2559.06 1012.93 2555.04C1013.11 2552.63 1013.57 2550.25 1014.3 2547.95L1034.75 2549.88Z" fill="#2F6B8C"/>
<path d="M1125.91 2245.38C1125.91 2245.38 1136.63 2323.3 1141.01 2349.65C1146.14 2380.44 1147.88 2405.96 1149.25 2421.82C1151.04 2441.88 1150.05 2544.49 1151.3 2550.36C1152.55 2556.22 1125.95 2553.17 1125.95 2553.17C1125.95 2553.17 1106.42 2419.41 1101.07 2398.05C1096.09 2378.16 1082.38 2296.2 1077.84 2301.63C1073.29 2307.05 1058.61 2400.42 1055.2 2416.11C1051.8 2431.8 1038.31 2555.23 1038.31 2555.23C1038.31 2555.23 1015.69 2560.15 1009.47 2555.23C1009.47 2555.23 1010.84 2445.16 1013 2415.77C1013.81 2404.56 1005.91 2281.63 1024.85 2232.06C1034.88 2205.84 1125.91 2245.38 1125.91 2245.38Z" fill="#323657"/>
<path d="M1126.84 2249.11L1128.05 2260.81C1128.05 2260.81 1095.37 2274.05 1015.81 2274.05V2260.66L1126.84 2249.11Z" fill="#D9AB48"/>
<path d="M1218.49 2101.87C1218.49 2101.87 1223.24 2112.37 1226.07 2113.03C1228.9 2113.69 1232.25 2117.15 1234.67 2118.28C1237.08 2119.41 1244.69 2119.94 1246.74 2121.93C1247.58 2122.76 1250.78 2129.76 1252.65 2131.23C1254.51 2132.7 1258.68 2135.23 1257.38 2136.81C1256.09 2138.39 1251.78 2137.14 1251.78 2137.14C1252.22 2137.52 1252.55 2138.03 1252.71 2138.6C1252.88 2139.16 1252.88 2139.76 1252.71 2140.33C1251.34 2143.72 1249.07 2143.87 1249.07 2143.87C1249.07 2143.87 1249.79 2146.42 1248.87 2147.67C1248.41 2148.43 1247.8 2149.08 1247.07 2149.57C1246.34 2150.07 1245.51 2150.4 1244.64 2150.54C1244.42 2151.91 1243.72 2153.15 1242.67 2154.05C1241.97 2154.61 1241.14 2154.99 1240.25 2155.13C1239.36 2155.28 1238.45 2155.19 1237.61 2154.88C1237.61 2154.88 1235.34 2158 1233.25 2157.38C1231.17 2156.77 1229.96 2155.21 1228.46 2154.31C1226.96 2153.4 1216.57 2141.38 1212.73 2130.16C1210.16 2122.94 1206.63 2116.09 1202.24 2109.81L1218.49 2101.87Z" fill="#EEA886"/>
<path d="M1216.33 2155.02C1216.33 2155.02 1179.35 2171.85 1166.2 2168.61C1160.13 2167.12 1152.12 2158.73 1144.53 2148.87C1142.02 2145.63 1139.56 2142.22 1137.22 2138.84C1127.88 2125.37 1120.58 2112.47 1120.58 2112.47C1120.58 2112.47 1093.01 2080.15 1115.08 2065.77C1115.08 2065.77 1123.1 2062.76 1130.48 2070.67C1137.85 2078.59 1146.52 2095.11 1148.46 2099.33C1150.39 2103.54 1177.46 2142.6 1178.88 2143.48C1180.29 2144.36 1192.11 2141.25 1201.6 2140.46C1217.07 2139.16 1213.96 2138.51 1213.96 2138.51L1216.33 2155.02Z" fill="#FFC955"/>
<path d="M1094.44 2058.51C1094.44 2058.51 1122.83 2064.38 1126.19 2067.36C1129.85 2070.54 1136.29 2101.7 1136.67 2110.29C1137.06 2118.87 1133.25 2155.12 1129.6 2168.59C1125.95 2182.07 1134.42 2239.41 1127.64 2248.86C1127.64 2248.86 1069.13 2267.62 1012.94 2260.31C1012.94 2260.31 1025 2206.2 1022.76 2187.74C1019.88 2164.09 1012.94 2109.6 1012.94 2109.6C1012.94 2109.6 1020.45 2072.91 1025.45 2068.68C1030.45 2064.45 1065.28 2057.56 1065.28 2057.56L1094.44 2058.51Z" fill="#FFC955"/>
<path d="M1031.24 2132.55C1031.24 2132.55 1025.88 2167.44 1026.25 2169.64C1026.62 2171.83 1001.98 2162.66 1031.24 2132.55Z" fill="#B58F3C"/>
<path d="M994.402 2272.33L969.742 2231.4C965.565 2224.47 956.56 2222.23 949.627 2226.41L887.843 2263.64C880.911 2267.82 878.677 2276.82 882.854 2283.76L907.513 2324.69C911.69 2331.62 920.696 2333.85 927.628 2329.67L989.412 2292.45C996.345 2288.27 998.578 2279.26 994.402 2272.33Z" fill="#C4B4AF"/>
<path d="M1383.33 2058.32L1340.68 1987.55L918.854 2241.72L961.496 2312.5L1383.33 2058.32Z" fill="#EB4747"/>
<path d="M1340.69 1987.52L918.862 2241.7L933.074 2265.29L1354.9 2011.11L1340.69 1987.52Z" fill="#2273B5"/>
<path d="M1369.2 2034.79L1354.99 2011.2L933.162 2265.38L947.373 2288.97L1369.2 2034.79Z" fill="#3788CC"/>
<path d="M1383.27 2058.29L1369.06 2034.7L947.232 2288.88L961.444 2312.46L1383.27 2058.29Z" fill="#4AAFFF"/>
<path d="M1383.31 2058.31L1340.68 1987.55L1436.4 1968.24L1461.02 1963.27L1445.12 1982.72L1383.31 2058.31Z" fill="#EDDAD3"/>
<path d="M1354.9 2011.13C1353.35 2012.07 1351.63 2012.69 1349.84 2012.96C1348.06 2013.23 1346.23 2013.14 1344.48 2012.71C1342.72 2012.27 1341.07 2011.5 1339.62 2010.42C1338.16 2009.35 1336.93 2008 1336 2006.45C1335.07 2004.9 1334.45 2003.18 1334.18 2001.4C1333.91 1999.61 1333.99 1997.79 1334.43 1996.03C1334.86 1994.28 1335.64 1992.62 1336.71 1991.17C1337.78 1989.71 1339.13 1988.48 1340.68 1987.55L1354.9 2011.13Z" fill="#DECCC6"/>
<path d="M1369.1 2034.73C1365.97 2036.61 1362.22 2037.18 1358.68 2036.3C1355.13 2035.42 1352.08 2033.16 1350.2 2030.03C1348.32 2026.9 1347.75 2023.16 1348.63 2019.61C1349.52 2016.07 1351.77 2013.02 1354.9 2011.13L1369.1 2034.73Z" fill="#E3D1CA"/>
<path d="M1383.31 2058.31C1380.19 2060.2 1376.44 2060.76 1372.89 2059.89C1369.35 2059.01 1366.3 2056.76 1364.41 2053.63C1362.53 2050.5 1361.96 2046.75 1362.84 2043.21C1363.72 2039.67 1365.97 2036.62 1369.1 2034.73L1383.31 2058.31Z" fill="#EDDAD3"/>
<path d="M930.276 2234.82L904.36 2250.43L918.572 2274.02L944.488 2258.41L930.276 2234.82Z" fill="#B39696"/>
<path d="M958.644 2282.01L944.433 2258.42L918.505 2274.04L932.717 2297.63L958.644 2282.01Z" fill="#DBB8B8"/>
<path d="M972.852 2305.58L958.641 2282L932.725 2297.61L946.936 2321.2L972.852 2305.58Z" fill="#F2CBCB"/>
<path d="M1354.88 2011.13L1461.02 1963.27L1340.68 1987.55L1354.88 2011.13Z" fill="#DECCC6"/>
<path d="M1369.1 2034.73L1461.02 1963.27L1354.88 2011.13L1369.1 2034.73Z" fill="#E3D1CA"/>
<path d="M1369.1 2034.73L1461.02 1963.27L1383.31 2058.31L1369.1 2034.73Z" fill="#EDDAD3"/>
<path d="M1445.12 1982.72L1436.4 1968.24L1461.02 1963.27L1445.12 1982.72Z" fill="#4AAFFF"/>
<path d="M1089.39 2249.79C1088.11 2249.69 1086.85 2249.4 1085.66 2248.91C1085.66 2248.91 1083.76 2247.54 1082.34 2246.69C1081.98 2246.46 1081.6 2246.25 1081.21 2246.06C1078.99 2245.3 1076.9 2244.19 1075.03 2242.76C1072.64 2240.77 1064.56 2229.52 1064.56 2229.52L1069.39 2223.41L1073.11 2217.05C1073.11 2217.05 1091.96 2219.97 1094.4 2221.57C1094.63 2221.73 1094.87 2221.9 1095.06 2222.06C1097 2223.63 1097.81 2225.59 1098.71 2226.53C1099.04 2226.87 1102.16 2230.52 1101.91 2231.94C1101.83 2232.73 1101.55 2233.49 1101.09 2234.14C1100.63 2234.79 1100.02 2235.31 1099.3 2235.66C1099.3 2235.66 1098.47 2239.48 1096.4 2241.15C1096.18 2242.2 1095.73 2243.18 1095.07 2244.01C1094.41 2244.85 1093.56 2245.53 1092.6 2245.99C1092.6 2245.99 1091.53 2249.46 1089.39 2249.79Z" fill="#EEA886"/>
<path d="M1041.06 2067.9C1044.78 2069.27 1048.72 2078.35 1045.78 2096.02C1042.64 2114.96 1036.39 2123.05 1033.87 2127.48C1031.36 2131.92 1017.53 2159.21 1020.01 2162.81C1022.5 2166.41 1045.97 2189.57 1047.33 2191.45C1048.69 2193.33 1074.91 2217.06 1074.91 2217.06L1061.66 2235.71C1061.66 2235.71 1005.04 2191.5 1000.64 2187.08C996.227 2182.66 983.015 2173.34 987.904 2157.97C992.862 2142.3 1001.78 2105.6 1003.37 2102.73C1004.96 2099.86 1016.47 2058.37 1041.06 2067.9Z" fill="#FFC955"/>
<path d="M1251.19 2135.79C1251.19 2135.79 1242.11 2125.68 1237.59 2125.86C1233.07 2126.04 1236.14 2129.87 1236.14 2129.87C1236.14 2129.87 1233.16 2126.04 1229.93 2128.07C1226.7 2130.11 1230.55 2134.39 1230.55 2134.39C1230.14 2134.08 1229.67 2133.85 1229.18 2133.72C1228.68 2133.6 1228.16 2133.57 1227.65 2133.66C1227.14 2133.74 1226.66 2133.92 1226.23 2134.2C1225.79 2134.48 1225.42 2134.84 1225.14 2135.27C1222.75 2138.46 1226.72 2141.3 1226.72 2141.3C1226.72 2141.3 1220.73 2140.41 1222 2145.3C1224.16 2153.54 1233.07 2157.51 1233.07 2157.51C1233.07 2157.51 1235.63 2158.51 1237.72 2155.28C1237.72 2155.28 1243.35 2157.4 1244.9 2150.9C1244.9 2150.9 1251.67 2149.34 1249.6 2144.03C1249.61 2144.03 1256.41 2141.44 1251.19 2135.79Z" fill="#EEA886"/>
<path d="M1107.28 2061.39C1107.28 2061.39 1108.99 2053.63 1084.69 2051.78C1060.39 2049.92 1043.94 2055.43 1043.49 2062.41C1043.03 2069.38 1105.07 2086.79 1105.07 2086.79L1107.28 2061.39Z" fill="#FFC955"/>
<path d="M1082.71 1970.74C1082.71 1970.74 1116.84 1958.1 1114.71 2003.48C1112.58 2048.86 1104.58 2053.46 1082.12 2047.13C1059.67 2040.8 1057.77 2012.18 1054.79 1998.44C1051.81 1984.71 1071.55 1972.72 1082.71 1970.74Z" fill="#EEA886"/>
<path d="M1100.11 2065.74C1100.11 2065.74 1091.87 2069.36 1065.3 2057.61C1065.3 2057.61 1066.04 2039.36 1060.82 2022.29C1055.6 2005.21 1096.53 2045.03 1096.53 2045.03C1096.1 2045.35 1096.02 2047.05 1096.27 2049.43C1096.53 2051.8 1096.96 2054.16 1097.57 2056.47C1099.06 2062.13 1098.74 2061.12 1100.11 2065.74Z" fill="#EEA886"/>
<path d="M1059.6 2020.89C1059.6 2020.89 1059.5 2008.76 1064.54 2007.65C1069.58 2006.53 1072.18 2013.54 1072.18 2013.54L1076.3 2013.32C1076.3 2013.32 1072.67 2001.04 1077.48 1998.21C1082.29 1995.38 1111.03 1997.87 1114.64 1993.73C1118.26 1989.6 1113.01 1965.04 1105.17 1962.62C1097.33 1960.2 1075.91 1955.33 1062.3 1967.44C1062.3 1967.44 1050.61 1972.48 1050.15 1982.13C1049.68 1991.77 1055.49 2014.31 1059.6 2020.89Z" fill="#163342"/>
<path d="M1097.56 2056.42C1071.09 2052.01 1067.15 2036.9 1067.15 2036.68C1077.44 2049.95 1096.32 2049.37 1096.32 2049.37C1096.56 2051.75 1096.97 2054.1 1097.56 2056.42Z" fill="#B07C63"/>
<path d="M1070.24 2002.56C1068.74 1998.57 1060.23 1999.07 1061.09 2005.42C1061.96 2011.77 1069 2021.52 1071.83 2019.69C1074.66 2017.86 1072.33 2008.06 1070.24 2002.56Z" fill="#EEA886"/>
<path d="M2217.42 727.955C2217.42 727.955 2231.5 751.799 2237.43 755.7C2245.49 760.988 2240.45 766.344 2236.62 766.344C2232.79 766.344 2213.27 767.718 2208.92 762.856C2204.57 757.993 2202.46 743.297 2198.45 739.506C2194.44 735.715 2190.31 720.442 2200.4 716.734C2209.33 713.368 2217.42 727.955 2217.42 727.955Z" fill="#E8E8E8"/>
<path d="M2211.32 717.407C2211.32 717.407 2227.45 745.357 2230.22 749.478C2233 753.598 2224.99 753.598 2220.03 751.648C2215.07 749.698 2202.59 729.672 2200.8 725.991C2199.56 723.024 2199.42 719.71 2200.42 716.651L2211.32 717.407Z" fill="#EBA684"/>
<path d="M2194.99 732.446L2198.72 761.084L2200.69 761.18L2200.08 740.564L2194.99 732.446Z" fill="#E8E8E8"/>
<path d="M2077.87 727.955C2077.87 727.955 2091.95 751.799 2097.88 755.7C2105.95 760.988 2100.9 766.344 2097.07 766.344C2093.24 766.344 2073.72 767.718 2069.37 762.856C2065.01 757.993 2062.91 743.297 2058.9 739.506C2054.89 735.715 2050.66 720.044 2060.86 716.733C2069.83 713.739 2077.87 727.955 2077.87 727.955Z" fill="#E8E8E8"/>
<path d="M2072.62 717.475C2072.62 717.475 2087.89 745.357 2090.67 749.478C2093.44 753.598 2085.44 753.598 2080.48 751.648C2075.52 749.698 2063.03 729.672 2061.25 725.991C2060.02 723.021 2059.89 719.709 2060.88 716.651L2072.62 717.475Z" fill="#EBA684"/>
<path d="M2055.45 732.446L2059.18 761.084L2061.14 761.18L2060.52 740.564L2055.45 732.446Z" fill="#E8E8E8"/>
<path d="M2015.43 510.791L2142.78 568.821C2142.78 568.821 2156.99 573.436 2158.58 589.218C2163.56 638.485 2200.4 716.651 2200.4 716.651C2212.23 722.434 2211.32 717.407 2211.32 717.407C2203.88 693.494 2194.84 594.904 2191.57 555.334C2190.89 546.928 2190.46 541.187 2190.36 539.346C2190.36 538.096 2188.99 536.462 2186.57 534.553C2169.1 520.378 2097.21 491.04 2097.21 491.04C2043.22 489.612 2015.43 510.791 2015.43 510.791Z" fill="#EBA684"/>
<path d="M1991.47 535.665C1995.41 570.085 2044.55 566.143 2044.55 566.143H2104.09C2104.09 566.143 2088.44 600.961 2082.4 630.313C2076 661.478 2060.89 716.61 2060.89 716.61C2060.89 716.61 2061.88 718.478 2072.65 717.434C2072.65 717.434 2119.35 624.256 2137.3 600.838C2141.14 595.797 2152.17 568.437 2154.07 552.12C2154.71 546.626 2154.31 542.381 2152.27 540.665C2148.05 537.432 2143.66 534.429 2139.12 531.668C2120.47 519.911 2088.07 501.795 2070.03 497.743C2045.85 492.249 2007.62 482.126 2007.62 482.126C2007.62 482.126 1987.48 501.328 1991.47 535.665Z" fill="#EBA684"/>
<path d="M2031.95 270.579C2031.95 270.579 2023.04 253.658 2027.39 235.638C2031.75 217.617 2048.45 199.666 2072.94 207.907C2097.43 216.148 2117.22 235.171 2102.53 257.174C2087.85 279.178 2115.82 289.094 2108.7 299.56C2101.59 310.026 2104.26 320.959 2107.33 323.39C2110.39 325.822 2120.07 334.502 2119 344.776C2117.93 355.05 2071.51 314.834 2071.51 314.834C2071.51 314.834 2046.17 263.987 2031.95 270.579Z" fill="#464240"/>
<path d="M2106.59 486.851C2106.59 486.851 2102.89 504.775 2007.78 482.153C2007.78 482.098 2039.67 471.564 2106.59 486.851Z" fill="#EB4747"/>
<path d="M2006.7 487.181L2002.29 495.628L2106.59 498.663C2101.09 480.244 2102.88 455.302 2103.84 436.375C2105.01 413.259 2117.78 397.175 2116.42 373.798C2123.29 374.911 2124.48 375.172 2131.38 376.174C2120.84 346.15 2117.23 331.288 2084.5 319.723C2073.86 315.974 2066.85 315.218 2055.32 316.166C2017.42 319.298 2005.98 319.751 1987.37 354.088C2016.52 358.731 2011.71 369.197 2020.55 398.191C2024.87 412.325 2029.36 428.093 2027.05 443.009C2024.77 457.691 2006.7 473.858 2006.7 487.181Z" fill="#F2F2F2"/>
<path d="M2067.2 327.003C2051.68 324.077 2054.97 315.452 2054.97 315.452C2054.97 315.452 2055.7 310.576 2055.98 304.464C2055.98 302.884 2056.1 301.222 2056.09 299.547C2056.09 296.995 2055.95 294.445 2055.66 291.91C2054.38 281.499 2083.81 287.707 2083.81 287.707C2083.81 287.707 2082.11 308.777 2086.18 315.095C2090.24 321.413 2082.7 329.928 2067.2 327.003Z" fill="#EEA886"/>
<path d="M2037.6 315.397C2037.6 315.397 2068.89 351.52 2080.45 359.898C2080.45 359.898 2093.74 347.88 2085.55 316.18C2085.55 316.18 2070.45 308.612 2037.6 315.397Z" fill="#EEA886"/>
<path d="M2038.45 228.441C2038.45 228.441 2022.2 259.743 2038.31 289.396C2054.42 319.05 2086.09 276.486 2088.14 271.541C2090.19 266.596 2101.05 238.302 2079.46 229.718C2057.87 221.134 2043.05 219.939 2038.45 228.441Z" fill="#EEA886"/>
<path d="M2043.85 239.552C2043.85 239.552 2032.67 254.235 2031.3 265.086C2029.02 251.129 2031.91 236.822 2039.43 224.842C2052.02 205.132 2084.03 223.908 2088.32 231.792C2092.6 239.676 2105.17 246.612 2084.06 280.469C2084.12 280.469 2046.16 254.098 2043.85 239.552Z" fill="#464240"/>
<path d="M2069.82 292.555C2069.82 292.555 2067.07 298.722 2055.98 304.45C2055.98 302.87 2056.11 301.181 2056.1 299.492C2061.27 298.61 2066.05 296.193 2069.82 292.555Z" fill="#A77860"/>
<path d="M1905.6 459.01C1905.6 459.01 1897.88 462.444 1894.21 460.878C1890.64 459.65 1886.88 459.023 1883.1 459.024C1880.71 459.024 1873.23 456.345 1873.36 459.271C1873.5 462.196 1885.51 464.229 1887.96 465.136C1890.42 466.042 1880.6 471.454 1879.72 473.857C1878.84 476.261 1889.89 492.001 1896.2 487.51C1902.52 483.019 1905.82 474.077 1907.11 473.5C1908.73 472.572 1910.3 471.545 1911.79 470.424L1905.6 459.01Z" fill="#DE9D7D"/>
<path d="M1880.88 472.484C1880.88 472.484 1862.76 487.51 1862.49 489.543C1862.21 491.576 1863.15 492.509 1864.9 491.177C1866.66 489.845 1882.87 477.181 1882.87 477.181C1882.87 477.181 1864.73 498.622 1864.11 500.215C1863.75 501.135 1865.48 503.072 1866.51 502.454C1867.54 501.836 1886.82 481.645 1886.82 481.645C1886.82 481.645 1869.92 501.698 1869.82 503.195C1869.84 503.574 1869.96 503.94 1870.17 504.251C1870.39 504.562 1870.69 504.804 1871.04 504.949C1871.39 505.094 1871.78 505.135 1872.15 505.067C1872.52 505 1872.87 504.827 1873.15 504.569C1874.52 503.195 1891.34 485.477 1891.34 485.477C1891.34 485.477 1880.03 500.874 1880.73 502.22C1881.15 503.058 1882.58 504.789 1885.37 500.723C1888.16 496.657 1895.81 487.785 1895.81 487.785L1880.88 472.484Z" fill="#DE9D7D"/>
<path d="M2097.85 566.184H2044.51C2044.51 566.184 1995.38 570.126 1991.47 535.665C1987.55 501.204 2007.62 482.099 2007.62 482.099C2007.62 482.099 2033.57 488.966 2056.24 494.46C2069.71 491.666 2083.47 490.468 2097.23 490.889C2097.23 490.889 2193.29 522.631 2190.41 539.346C2190.38 539.442 2150.19 517.961 2097.85 566.184Z" fill="#202338"/>
<path d="M2063.13 506.574L2164.82 505.091L2113.48 531.16L2063.13 506.574Z" fill="#5E5853"/>
<path d="M2094.72 493.595C2078.21 498.95 2060.47 499.242 2043.79 494.432L2042.49 483.966L2100.17 487.18L2094.72 493.595Z" fill="#F2F2F2"/>
<path d="M2113.48 531.16L2063.13 511.656V506.574L2117.45 526.174L2113.48 531.16Z" fill="#91887F"/>
<path d="M2094.36 498.429C2094.3 499.29 2094.46 500.151 2094.83 500.931C2095.2 501.712 2095.76 502.385 2096.46 502.886C2097.16 503.388 2097.98 503.701 2098.84 503.796C2099.69 503.891 2100.56 503.765 2101.35 503.429L2107.26 500.902C2108.12 500.534 2108.84 499.887 2109.29 499.066C2109.74 498.245 2109.91 497.295 2109.76 496.369C2107.3 480.986 2102.03 421.101 2109.76 410.828C2112.14 407.798 2114.04 404.415 2115.38 400.801C2120.47 413.918 2126.8 430.826 2129.32 439.918L2177.39 503.827L2193.48 507.948C2173.39 459.504 2157.24 433.847 2157.24 433.847C2154.09 425.4 2145.08 399.84 2137.09 377.081C2132.05 362.7 2127.48 349.446 2124.94 342.331C2123.67 338.721 2121.18 335.669 2117.9 333.706C2110.46 329.269 2098.06 322.251 2086.82 316.798H2086.69L2085.6 316.276C2106.98 348.636 2098.65 440.001 2094.43 498.416C2094.38 498.347 2094.36 498.388 2094.36 498.429Z" fill="#4E568A"/>
<path d="M2014.99 318.927C2008.13 319.998 1991.16 336.48 1982.15 353.113C1971.85 372.109 1961.37 393.741 1953.53 400.842C1939.08 413.932 1898.68 460.177 1896.75 459.051C1896.01 458.625 1907.84 472.786 1909.33 473.528C1910.09 473.858 1975.77 416.94 1982.13 408.273C1988.11 400.032 2004.1 365.557 2008.89 366.312C2013.5 376.659 2017.41 387.299 2020.6 398.164C2020.68 398.466 2020.77 398.768 2020.87 399.07C2024.66 411.94 2024.32 425.895 2022.24 441.649C2020.69 453.489 2011.85 472.855 2006.52 482.277C2006.22 483.072 2006.09 483.917 2006.13 484.763C2006.16 485.61 2006.37 486.441 2006.72 487.208C2007.03 488.09 2007.66 488.823 2008.48 489.254L2027.71 496.397L2032.24 498.072C2033.63 498.589 2035.12 498.784 2036.6 498.645C2038.08 498.506 2039.51 498.036 2040.78 497.269C2042.05 496.502 2043.13 495.459 2043.94 494.216C2044.75 492.974 2045.28 491.564 2045.47 490.092C2049.75 457.128 2055.18 423.409 2059.51 410.718C2078.47 355.022 2052.09 313.199 2052.09 313.199C2052.09 313.199 2021.01 316.688 2014.99 318.927Z" fill="#4E568A"/>
<path d="M2113.48 531.16L2143.72 448.571L2241.24 450.165L2212.41 526.27L2113.48 531.16Z" fill="#6E6760"/>
<path d="M2174.93 485.107C2171.95 491.054 2172.85 497.537 2176.93 499.569C2181.01 501.602 2186.74 498.457 2189.72 492.496C2192.7 486.535 2191.79 480.134 2187.7 478.033C2183.61 475.932 2177.89 479.159 2174.93 485.107Z" fill="#807066"/>
<path d="M2072.13 259.591C2072.13 259.591 2078.38 269.302 2072.61 277.694C2066.84 286.086 2074.06 294.314 2075.35 303.186C2076.65 312.059 2051.26 335.656 2079.47 347.523C2107.68 359.39 2116.56 339.776 2109.44 328.967C2102.33 318.158 2097.15 309.408 2096.53 294.011C2095.91 278.614 2090.79 254.647 2072.13 259.591Z" fill="#464240"/>
<path d="M1862.97 156.593H1993.18V250.98V270.854L1973.31 250.98H1862.97V156.593Z" fill="#FFC955"/>
<defs>
<linearGradient id="paint0_linear_5_243" x1="1357.7" y1="1000.14" x2="1854.92" y2="1732.19" gradientUnits="userSpaceOnUse">
<stop stop-color="#40D5E6"/>
<stop offset="1" stop-color="#5577FF"/>
</linearGradient>
<linearGradient id="paint1_linear_5_243" x1="1386.84" y1="556.79" x2="1936.01" y2="1473.22" gradientUnits="userSpaceOnUse">
<stop stop-color="#40D5E6"/>
<stop offset="1" stop-color="#5577FF"/>
</linearGradient>
<linearGradient id="paint2_linear_5_243" x1="1235.44" y1="815.983" x2="1871.87" y2="1757.86" gradientUnits="userSpaceOnUse">
<stop stop-color="#40D5E6"/>
<stop offset="1" stop-color="#5577FF"/>
</linearGradient>
<linearGradient id="paint3_linear_5_243" x1="1814.36" y1="424.178" x2="2250.79" y2="1046.04" gradientUnits="userSpaceOnUse">
<stop stop-color="#40D5E6"/>
<stop offset="1" stop-color="#5577FF"/>
</linearGradient>
<linearGradient id="paint4_linear_5_243" x1="2414" y1="828.083" x2="2824.96" y2="1482.67" gradientUnits="userSpaceOnUse">
<stop stop-color="#40D5E6"/>
<stop offset="1" stop-color="#5577FF"/>
</linearGradient>
<linearGradient id="paint5_linear_5_243" x1="2950.14" y1="2243.02" x2="3166.72" y2="2243.02" gradientUnits="userSpaceOnUse">
<stop stop-color="#40D5E6"/>
<stop offset="1" stop-color="#5577FF"/>
</linearGradient>
<linearGradient id="paint6_linear_5_243" x1="3109.02" y1="2363.89" x2="3304.89" y2="2363.89" gradientUnits="userSpaceOnUse">
<stop stop-color="#40D5E6"/>
<stop offset="1" stop-color="#5577FF"/>
</linearGradient>
<linearGradient id="paint7_linear_5_243" x1="3125.76" y1="2392.36" x2="3272.76" y2="2392.36" gradientUnits="userSpaceOnUse">
<stop stop-color="#40D5E6"/>
<stop offset="1" stop-color="#5577FF"/>
</linearGradient>
<linearGradient id="paint8_linear_5_243" x1="3072.68" y1="2274.06" x2="3243.88" y2="2274.06" gradientUnits="userSpaceOnUse">
<stop stop-color="#40D5E6"/>
<stop offset="1" stop-color="#5577FF"/>
</linearGradient>
<linearGradient id="paint9_linear_5_243" x1="3033.39" y1="2519.64" x2="3191.37" y2="2519.64" gradientUnits="userSpaceOnUse">
<stop stop-color="#FF9340"/>
<stop offset="1" stop-color="#FFCE45"/>
</linearGradient>
<linearGradient id="paint10_linear_5_243" x1="3033.39" y1="2519.64" x2="3191.37" y2="2519.64" gradientUnits="userSpaceOnUse">
<stop stop-color="#C97332"/>
<stop offset="1" stop-color="#FFCE45"/>
</linearGradient>
</defs>
</svg>
