<svg width="2492" height="1855" viewBox="0 0 2492 1855" fill="none" xmlns="http://www.w3.org/2000/svg">
<path d="M2492 1632.59H0V1633.83H2492V1632.59Z" fill="#EBEBEB"/>
<path d="M1188.19 1410.22H225.775C218.227 1410.22 210.989 1407.22 205.652 1401.88C200.315 1396.54 197.316 1389.3 197.316 1381.75V28.4686C197.382 20.9616 200.409 13.7843 205.739 8.49922C211.069 3.21411 218.27 0.24898 225.775 0.249268H1188.19C1191.92 0.249268 1195.62 0.985625 1199.08 2.41631C1202.53 3.84699 1205.67 5.94399 1208.31 8.58755C1210.95 11.2311 1213.05 14.3695 1214.48 17.8235C1215.91 21.2774 1216.64 24.9794 1216.64 28.7179V1381.75C1216.64 1385.49 1215.91 1389.19 1214.48 1392.65C1213.05 1396.1 1210.95 1399.24 1208.31 1401.88C1205.67 1404.53 1202.53 1406.62 1199.08 1408.05C1195.62 1409.48 1191.92 1410.22 1188.19 1410.22ZM225.775 1.24642C218.562 1.2596 211.648 4.13188 206.547 9.23418C201.447 14.3365 198.576 21.2529 198.562 28.4686V1381.75C198.576 1388.97 201.447 1395.88 206.547 1400.99C211.648 1406.09 218.562 1408.96 225.775 1408.97H1188.19C1195.4 1408.96 1202.31 1406.09 1207.41 1400.99C1212.51 1395.88 1215.38 1388.97 1215.4 1381.75V28.4686C1215.38 21.2529 1212.51 14.3365 1207.41 9.23418C1202.31 4.13188 1195.4 1.2596 1188.19 1.24642H225.775Z" fill="#EBEBEB"/>
<path d="M2266.22 1410.22H1303.81C1296.27 1410.22 1289.03 1407.22 1283.69 1401.88C1278.35 1396.54 1275.36 1389.3 1275.36 1381.75V28.4686C1275.42 20.9616 1278.45 13.7843 1283.78 8.49922C1289.11 3.21411 1296.31 0.24898 1303.81 0.249268H2266.22C2273.77 0.249268 2281.01 3.24864 2286.35 8.58755C2291.68 13.9265 2294.68 21.1676 2294.68 28.7179V1381.75C2294.68 1389.3 2291.68 1396.54 2286.35 1401.88C2281.01 1407.22 2273.77 1410.22 2266.22 1410.22ZM1303.81 1.24642C1296.6 1.2596 1289.69 4.13188 1284.59 9.23418C1279.49 14.3365 1276.61 21.2529 1276.6 28.4686V1381.75C1276.61 1388.97 1279.49 1395.88 1284.59 1400.99C1289.69 1406.09 1296.6 1408.96 1303.81 1408.97H2266.22C2273.44 1408.96 2280.35 1406.09 2285.45 1400.99C2290.55 1395.88 2293.42 1388.97 2293.44 1381.75V28.4686C2293.42 21.2529 2290.55 14.3365 2285.45 9.23418C2280.35 4.13188 2273.44 1.2596 2266.22 1.24642H1303.81Z" fill="#EBEBEB"/>
<path d="M2492 1632.59H0V1633.83H2492V1632.59Z" fill="#EBEBEB"/>
<path d="M2242.3 1712.81H2077.23V1714.05H2242.3V1712.81Z" fill="#EBEBEB"/>
<path d="M1650.8 1726.37H1607.49V1727.61H1650.8V1726.37Z" fill="#EBEBEB"/>
<path d="M2072.25 1666.54H1976.6V1667.79H2072.25V1666.54Z" fill="#EBEBEB"/>
<path d="M476.72 1674.91H261.461V1676.16H476.72V1674.91Z" fill="#EBEBEB"/>
<path d="M1122.15 1695.95H655.246V1697.2H1122.15V1695.95Z" fill="#EBEBEB"/>
<path d="M769.38 517.172C830.633 517.172 1002.48 542.101 1002.48 449.915C1002.48 371.489 918.501 377.272 918.501 377.272C918.501 377.272 920.894 309.316 846.084 300.242C769.38 290.969 757.568 364.209 757.568 364.209C757.568 364.209 624.395 317.443 644.63 434.808C644.63 434.808 570.817 421.795 570.817 474.694C571.017 533.725 710.02 517.023 769.38 517.172Z" fill="#F0F0F0"/>
<path d="M692.178 1215.33C816.778 1215.68 1165.26 1272.81 1165.26 1061.37C1165.26 881.88 994.856 894.893 994.856 894.893C994.856 894.893 999.84 739.188 847.928 718.497C692.178 697.258 668.504 865.477 668.504 865.477C668.504 865.477 398.122 758.383 439.24 1027.17C439.24 1027.17 289.371 997.251 289.371 1118.3C289.57 1253.52 571.665 1214.98 692.178 1215.33Z" fill="#F5F5F5"/>
<path d="M1156.74 1234.02C1087.96 1234.02 895.026 1265.83 895.026 1148.87C895.026 1049.45 989.324 1056.78 989.324 1056.78C989.324 1056.78 986.582 970.627 1070.61 959.21C1156.74 947.443 1169.74 1040.53 1169.74 1040.53C1169.74 1040.53 1319.26 981.247 1296.59 1129.97C1296.59 1129.97 1379.47 1113.42 1379.47 1180.38C1379.47 1255.16 1223.42 1233.82 1156.74 1234.02Z" fill="#F0F0F0"/>
<path d="M1540.8 743.925C1609.43 743.925 1801.87 770.399 1801.87 672.977C1801.87 590.214 1707.82 596.296 1707.82 596.296C1707.82 596.296 1710.51 524.551 1626.73 515.029C1540.8 505.057 1527.8 582.735 1527.8 582.735C1527.8 582.735 1378.62 533.376 1401.35 657.222C1401.35 657.222 1318.62 643.462 1318.62 699.202C1318.62 761.524 1474.32 743.775 1540.8 743.925Z" fill="#F0F0F0"/>
<path d="M1336.16 1631.99L1436.44 981.595L1734.68 604.922L1836.35 176.147C1836.35 176.147 2082.86 414.366 2089.69 420.449C2096.52 426.531 2150.79 1069.79 2158.32 1079.62C2165.85 1089.44 2236.67 1201.82 2236.67 1201.82L2269.61 1630.29L1336.16 1631.99Z" fill="#FAFAFA"/>
<path d="M1336.16 1631.99L1479.1 1069.94L1681.6 876.845L1719.53 1121.3L1770.57 843.241L1828.48 938.02L1815.87 611.154L1825.94 506.603L1859.93 576.004L1836.35 175.897L2008.2 179.886L2043.99 368.746L2089.69 420.449L2158.32 1079.62L2236.67 1201.57L2269.61 1630.04L1336.16 1631.99Z" fill="#EBEBEB"/>
<path d="M1840.84 178.091L1942.91 508.497L2003.77 556.859C2003.77 556.859 2035.81 691.125 2035.47 682.55C2035.12 673.974 2031.78 523.504 2031.78 523.504L2047.53 400.755L2007.65 182.08L1840.84 178.091Z" fill="#F5F5F5"/>
<path d="M2158.32 1079.62L2182.14 1190.65L2236.67 1201.57L2158.32 1079.62Z" fill="#F5F5F5"/>
<path d="M1774.6 1408.43C1883.65 1408.72 2189.27 1458.83 2189.27 1273.46C2189.27 1116.01 2039.75 1127.58 2039.75 1127.58C2039.75 1127.58 2044.09 991.118 1910.96 973.02C1774.45 954.423 1753.87 1101.85 1753.87 1101.85C1753.87 1101.85 1516.93 1007.97 1552.96 1243.6C1552.96 1243.6 1421.64 1217.37 1421.64 1323.37C1421.79 1441.93 1669.04 1408.13 1774.6 1408.43Z" fill="#F5F5F5"/>
<path d="M552.676 1674.91H521.127V1676.16H552.676V1674.91Z" fill="#EBEBEB"/>
<path d="M1256.67 1855C1790.37 1855 2223.01 1829.73 2223.01 1798.56C2223.01 1767.39 1790.37 1742.12 1256.67 1742.12C722.967 1742.12 290.318 1767.39 290.318 1798.56C290.318 1829.73 722.967 1855 1256.67 1855Z" fill="#F5F5F5"/>
<path d="M2010.3 200.078C2010.3 223.205 2001.11 245.385 1984.76 261.739C1968.42 278.092 1946.24 287.279 1923.13 287.279C1921.18 287.279 1919.24 287.279 1917.29 287.279C1895.25 285.785 1874.59 275.969 1859.5 259.818C1844.41 243.666 1836.02 222.385 1836.02 200.278C1836.02 178.171 1844.41 156.889 1859.5 140.738C1874.59 124.586 1895.25 114.771 1917.29 113.276C1919.24 113.276 1921.18 113.276 1923.13 113.276C1946.18 113.276 1968.29 122.409 1984.62 138.676C2000.96 154.943 2010.19 177.02 2010.3 200.078Z" fill="#0AAFF7"/>
<path opacity="0.2" d="M1998.58 200.078C1997.52 215.93 1991.84 231.123 1982.25 243.791C1972.67 256.459 1959.59 266.049 1944.63 271.382C1929.67 276.714 1913.48 277.558 1898.05 273.808C1882.61 270.058 1868.61 261.879 1857.76 250.275C1846.92 238.672 1839.69 224.15 1836.99 208.495C1834.28 192.841 1836.2 176.735 1842.52 162.16C1848.84 147.584 1859.28 135.173 1872.55 126.453C1885.83 117.733 1901.36 113.084 1917.24 113.077C1939.3 114.556 1959.98 124.366 1975.08 140.519C1990.18 156.672 1998.58 177.962 1998.58 200.078Z" fill="white"/>
<path opacity="0.4" d="M1977.33 225.061C1991.11 191.786 1975.31 153.638 1942.05 139.855C1908.79 126.072 1870.65 141.874 1856.88 175.148C1843.1 208.423 1858.89 246.571 1892.16 260.354C1925.42 274.137 1963.55 258.336 1977.33 225.061Z" fill="white"/>
<g opacity="0.7">
<path d="M1947.1 213.939C1949.64 228.397 1939.72 238.02 1921.88 239.565L1921.58 251.481H1910.72L1911.01 239.565C1901.69 238.864 1892.67 235.996 1884.65 231.189L1889.63 217.728C1896.22 221.99 1903.71 224.638 1911.51 225.456L1911.96 207.108C1901.35 204.067 1889.58 200.078 1887.04 187.165C1884.55 172.706 1894.62 162.984 1912.86 161.688L1913.16 149.722H1923.97L1923.82 161.588C1931.17 162.193 1938.31 164.298 1944.81 167.771L1940.57 181.182C1935.33 178.09 1929.48 176.168 1923.42 175.548L1923.03 194.694C1933.49 197.585 1944.91 201.474 1947.1 213.939ZM1912.21 191.602L1912.61 175.997C1906.63 177.194 1903.74 180.534 1904.39 184.672C1905.03 188.81 1908.02 190.007 1912.21 191.602ZM1930.05 216.781C1929.51 213.64 1926.66 211.795 1922.63 210.249L1922.28 225.207C1927.91 223.91 1930.75 220.919 1930.05 216.781Z" fill="white"/>
</g>
<path d="M1489.52 1000.94H1194.61V1798.81H1489.52V1000.94Z" fill="#0AAFF7"/>
<path opacity="0.2" d="M1277.9 1000.14H1194.56V1798.96H1277.9V1000.14Z" fill="black"/>
<path d="M1194.27 1320.03H899.362V1798.81H1194.27V1320.03Z" fill="#0AAFF7"/>
<path opacity="0.2" d="M987.978 1320.03H899.362V1798.31H987.978V1320.03Z" fill="black"/>
<path d="M899.113 1421.69H604.21V1798.81H899.113V1421.69Z" fill="#0AAFF7"/>
<path opacity="0.2" d="M691.928 1421.69H604.21V1798.31H691.928V1421.69Z" fill="black"/>
<path d="M604.11 1523.35H309.207V1798.81H604.11V1523.35Z" fill="#0AAFF7"/>
<path opacity="0.2" d="M392.589 1523.1H309.257V1798.31H392.589V1523.1Z" fill="black"/>
<path d="M1111.03 384.551C1097.03 401.503 1082.57 418.105 1068.17 434.409L1057.26 446.773L1047.29 457.692C1043.2 462.6 1040.57 468.561 1039.71 474.893L1036.42 507.101C1035.33 518.02 1034.23 528.939 1032.98 539.808C1030.54 561.645 1028 583.483 1025.11 605.271C1024.64 608.709 1022.92 611.852 1020.26 614.085C1017.61 616.319 1014.22 617.484 1010.75 617.354C1007.29 617.223 1003.99 615.806 1001.52 613.378C999.038 610.951 997.552 607.687 997.348 604.224C996.102 582.286 995.255 560.349 994.507 538.461C994.058 527.493 993.859 516.524 993.56 505.605L992.812 472.151C993.183 456.502 998.082 441.296 1006.92 428.376L1017.73 413.768L1027.7 400.705C1040.91 383.355 1054.17 365.805 1067.57 349.053C1072.2 343.287 1078.93 339.597 1086.27 338.793C1093.62 337.989 1100.98 340.137 1106.75 344.765C1112.51 349.393 1116.2 356.122 1117 363.471C1117.81 370.82 1115.66 378.188 1111.03 383.953V384.551Z" fill="#0AAFF7"/>
<path d="M994.059 606.966L975.817 637.927L1017.78 642.165L1025.16 610.755C1025.37 609.873 1025.4 608.957 1025.25 608.063C1025.09 607.17 1024.76 606.317 1024.26 605.556C1023.77 604.796 1023.12 604.144 1022.37 603.641C1021.62 603.137 1020.77 602.793 1019.88 602.628C1015.5 601.608 1010.96 601.467 1006.53 602.211C1002.1 602.956 997.862 604.572 994.059 606.966Z" fill="#CB7A63"/>
<path d="M975.817 637.927L977.761 648.846C978.21 651.465 979.573 653.84 981.609 655.547C983.644 657.255 986.219 658.184 988.876 658.169H1002.53C1004.58 658.162 1006.58 657.603 1008.34 656.55C1010.09 655.497 1011.53 653.989 1012.5 652.187L1017.83 642.215L975.817 637.927Z" fill="#CB7A63"/>
<path d="M991.068 583.782L1031.44 585.128L1028.85 609.259L994.756 606.617L991.068 583.782Z" fill="#0AAFF7"/>
<path opacity="0.3" d="M991.068 583.782L1031.44 585.128L1028.85 609.259L994.756 606.617L991.068 583.782Z" fill="white"/>
<path d="M1031.69 837.058L1025.06 847.03L1020.08 836.709L1032.19 680.157C1034.08 655.228 1025.71 634.836 994.757 634.088C965.8 633.39 948.256 653.184 946.213 678.013L933.553 834.266L926.625 844.238L921.891 833.967L934.65 677.764C936.992 648.896 949.602 625.712 995.355 626.809C1041.11 627.906 1046.04 651.738 1043.8 680.506L1031.69 837.058Z" fill="#263238"/>
<path d="M903.5 731.46H895.525C887.465 731.418 879.668 734.324 873.601 739.631C867.533 744.939 863.614 752.282 862.581 760.278L847.629 873.056L899.562 874.9L903.5 731.46Z" fill="#263238"/>
<path opacity="0.2" d="M903.5 731.46H895.525C887.465 731.418 879.668 734.324 873.601 739.631C867.533 744.939 863.614 752.282 862.581 760.278L847.629 873.056L899.562 874.9L903.5 731.46Z" fill="white"/>
<path d="M1050.13 838.355L1038.42 838.056L1039.56 681.503C1039.56 656.574 1029.89 636.183 998.893 635.385C969.886 634.687 953.738 654.48 953.439 679.309L951.944 835.613L940.231 835.264L942.076 679.06C942.424 650.143 953.638 627.009 999.242 628.106C1044.85 629.202 1051.62 653.034 1051.42 681.802L1050.13 838.355Z" fill="#263238"/>
<path d="M1105.15 880.983L874.393 874.103L876.586 757.735C876.598 754.233 877.307 750.769 878.673 747.545C880.038 744.32 882.031 741.4 884.536 738.954C887.041 736.508 890.008 734.586 893.264 733.299C896.52 732.013 899.999 731.387 903.499 731.46L1071.56 735.848C1080.79 736.185 1089.52 740.107 1095.91 746.782C1102.29 753.457 1105.82 762.358 1105.75 771.596L1105.15 880.983Z" fill="#263238"/>
<path opacity="0.4" d="M1079.58 880.235L899.761 874.851C892.948 874.54 886.527 871.575 881.871 866.591C877.214 861.606 874.691 854.998 874.841 848.177L876.685 757.735C876.698 754.233 877.407 750.769 878.772 747.545C880.137 744.32 882.131 741.4 884.636 738.954C887.141 736.508 890.108 734.586 893.364 733.299C896.62 732.013 900.099 731.387 903.599 731.46L1071.66 735.848C1080.89 736.185 1089.62 740.107 1096.01 746.782C1102.39 753.457 1105.92 762.358 1105.85 771.596L1105.35 854.908C1105.41 858.287 1104.78 861.643 1103.49 864.771C1102.21 867.899 1100.31 870.733 1097.9 873.102C1095.49 875.471 1092.62 877.325 1089.47 878.552C1086.33 879.778 1082.96 880.351 1079.58 880.235Z" fill="white"/>
<g opacity="0.3">
<path d="M1050.13 838.355L1044.2 848.326L1038.42 837.856L1039.56 681.304C1039.56 656.375 1029.89 635.983 998.893 635.185C969.886 634.487 953.738 654.281 953.439 679.11L951.944 835.613L945.714 845.584L940.231 835.314L942.076 679.11C942.424 650.192 953.638 627.059 999.242 628.155C1044.85 629.252 1051.62 653.084 1051.42 681.852L1050.13 838.355Z" fill="white"/>
</g>
<path d="M955.632 775.185L936.394 774.686L936.493 767.407L955.731 767.956L955.632 775.185Z" fill="#263238"/>
<path d="M955.134 822.151L935.846 821.602L935.945 814.373L955.233 814.872L955.134 822.151Z" fill="#263238"/>
<path d="M1054.51 777.877L1035.18 777.329L1035.23 770.1L1054.56 770.598L1054.51 777.877Z" fill="#263238"/>
<path d="M1054.17 824.943L1034.83 824.394L1034.88 817.115L1054.22 817.664L1054.17 824.943Z" fill="#263238"/>
<path d="M1017.68 781.019L976.415 779.872L976.565 764.366L1017.83 765.463L1017.68 781.019Z" fill="white"/>
<path d="M1195.86 209.651C1197.46 209.352 1199.15 210.997 1199.65 213.44C1200.15 215.883 1199.35 218.077 1197.75 218.426C1196.16 218.775 1194.47 217.08 1193.97 214.687C1193.47 212.293 1194.27 209.9 1195.86 209.651Z" fill="#263238"/>
<path d="M1196.16 211.645C1197.84 210.734 1199.16 209.273 1199.9 207.507C1198.54 208.77 1196.77 209.482 1194.91 209.501C1195.27 209.741 1195.57 210.059 1195.78 210.43C1196 210.802 1196.13 211.217 1196.16 211.645Z" fill="#263238"/>
<path d="M1199.35 236.026C1201.41 236.113 1203.47 235.743 1205.38 234.941C1207.28 234.14 1208.98 232.927 1210.36 231.389C1204.27 226.088 1198.92 219.983 1194.47 213.241L1199.35 236.026Z" fill="#B74D3C"/>
<path d="M1182.5 205.662C1183.65 204.241 1185.11 203.111 1186.77 202.366C1188.44 201.62 1190.25 201.281 1192.07 201.375H1192.57C1192.77 201.375 1192.96 201.336 1193.14 201.26C1193.32 201.184 1193.48 201.073 1193.61 200.934C1193.75 200.794 1193.85 200.629 1193.92 200.448C1193.99 200.266 1194.02 200.073 1194.02 199.879C1194 199.491 1193.84 199.123 1193.56 198.853C1193.28 198.584 1192.91 198.433 1192.52 198.433C1190.25 198.248 1187.96 198.603 1185.84 199.469C1183.73 200.335 1181.85 201.689 1180.36 203.419C1180.14 203.689 1180.02 204.021 1180.01 204.366C1180.02 204.759 1180.19 205.132 1180.46 205.41C1180.74 205.688 1181.11 205.849 1181.51 205.862C1181.85 205.918 1182.21 205.847 1182.5 205.662Z" fill="#263238"/>
<path d="M1167.35 349.751C1125.89 350.2 1119.51 327.614 1119.51 327.614C1131.87 315.549 1132.46 293.412 1129.82 273.668C1133.16 278.332 1137.34 282.338 1142.13 285.484C1152.1 292.016 1173.58 281.546 1173.58 281.546C1173.58 281.546 1173.58 285.185 1173.88 290.52C1174.53 303.433 1177.37 326.118 1189.13 329.658C1189.13 329.658 1213.06 349.252 1167.35 349.751Z" fill="#CB7A63"/>
<path d="M1174.18 284.886C1173.78 286.781 1173.33 288.725 1173.03 290.719C1172.87 290.759 1172.7 290.759 1172.54 290.719C1167.38 291.984 1162.01 292.154 1156.78 291.218C1151.56 290.282 1146.58 288.261 1142.18 285.285C1137.35 282.167 1133.16 278.156 1129.82 273.469C1129.18 268.483 1128.28 263.497 1127.38 259.11L1172.54 284.038L1174.18 284.886Z" fill="#CB7A63"/>
<path d="M1203.89 251.033C1203.76 258.164 1201.83 265.148 1198.26 271.324C1194.7 277.5 1189.62 282.665 1183.5 286.332C1180.43 288.282 1177.06 289.729 1173.53 290.62C1173.37 290.66 1173.2 290.66 1173.03 290.62C1167.88 291.884 1162.51 292.054 1157.28 291.118C1152.05 290.182 1147.08 288.161 1142.68 285.185C1137.85 282.067 1133.65 278.057 1130.32 273.369C1122.2 262.201 1118.81 247.343 1112.98 226.403C1111 219.633 1110.79 212.47 1112.36 205.596C1113.94 198.721 1117.24 192.362 1121.96 187.122C1126.67 181.882 1132.65 177.936 1139.32 175.657C1146 173.379 1153.14 172.844 1160.08 174.103C1191.18 179.986 1204.53 223.013 1203.89 251.033Z" fill="#CB7A63"/>
<path opacity="0.2" d="M1181.21 287.18C1178.99 288.736 1176.51 289.868 1173.88 290.52C1173.58 285.185 1173.63 281.546 1173.58 281.546L1174.18 272.272C1174.18 272.272 1179.06 287.18 1181.21 287.18Z" fill="black"/>
<path d="M1193.02 194.694C1189.63 200.078 1179.02 204.665 1179.36 203.369C1181.21 198.932 1180.86 190.356 1175.33 192.35C1176.87 195.791 1181.46 221.368 1179.36 224.509C1178.22 226.204 1177.17 246.645 1168.45 264.744C1161.52 279.152 1161.52 283.59 1161.52 283.59L1133.21 289.074C1122.6 287.728 1112.73 274.117 1111.88 272.721C1108.14 266.339 1096.93 257.764 1090.95 253.526C1088.38 251.543 1086.44 248.859 1085.37 245.798C1083.42 240.363 1087.41 220.869 1088.26 211.546C1089.5 198.333 1096.43 186.068 1115.67 178.191C1127.53 173.205 1137.5 162.635 1149.66 158.248C1155.63 155.855 1162.08 154.941 1168.48 155.584C1174.87 156.226 1181.02 158.406 1186.39 161.937C1191.43 165.677 1201.49 181.033 1193.02 194.694Z" fill="#263238"/>
<path d="M1178.22 213.091C1186.94 215.684 1191.48 228.547 1191.87 236.674C1192.27 245.698 1186.29 251.631 1178.42 245.349C1172.49 240.705 1168.25 234.241 1166.36 226.952C1164.26 218.127 1169.5 210.548 1178.22 213.091Z" fill="#CB7A63"/>
<path d="M1188.73 243.155C1188.72 244.165 1188.31 245.128 1187.59 245.838C1186.87 246.547 1185.91 246.944 1184.9 246.944C1183.89 246.944 1182.93 246.545 1182.22 245.835C1181.51 245.124 1181.11 244.16 1181.11 243.155C1181.11 242.146 1181.51 241.177 1182.21 240.458C1182.92 239.74 1183.89 239.329 1184.9 239.316C1185.91 239.329 1186.88 239.738 1187.6 240.455C1188.31 241.172 1188.72 242.141 1188.73 243.155Z" fill="#0AAFF7"/>
<path opacity="0.3" d="M1188.73 243.155C1188.72 244.165 1188.31 245.128 1187.59 245.838C1186.87 246.547 1185.91 246.944 1184.9 246.944C1183.89 246.944 1182.93 246.545 1182.22 245.835C1181.51 245.124 1181.11 244.16 1181.11 243.155C1181.11 242.146 1181.51 241.177 1182.21 240.458C1182.92 239.74 1183.89 239.329 1184.9 239.316C1185.91 239.329 1186.88 239.738 1187.6 240.455C1188.31 241.172 1188.72 242.141 1188.73 243.155Z" fill="white"/>
<path d="M1107.64 342.571C1107.64 342.571 1114.07 322.628 1123.79 316.396C1133.51 310.164 1176.17 316.396 1182.85 319.288C1189.53 322.18 1196.16 337.287 1196.16 337.287L1107.64 342.571Z" fill="#0AAFF7"/>
<path opacity="0.3" d="M1107.64 342.571C1107.64 342.571 1114.07 322.628 1123.79 316.396C1133.51 310.164 1176.17 316.396 1182.85 319.288C1189.53 322.18 1196.16 337.287 1196.16 337.287L1107.64 342.571Z" fill="white"/>
<path d="M1205.03 334.295C1199.74 333.078 1194.38 332.179 1188.98 331.603C1166.1 330.505 1143.16 330.755 1120.3 332.351C1112.08 333.04 1103.92 334.425 1095.93 336.489C1088.03 338.384 1081.05 343.031 1076.26 349.599C1071.47 356.167 1069.16 364.227 1069.77 372.336C1073.16 419.003 1086.91 446.425 1088.95 477.037C1091.23 516.63 1088.73 556.352 1081.53 595.349L1112.93 600.335C1155.66 599.923 1197.86 590.902 1237.03 573.811C1237.03 573.811 1228.91 499.822 1236.73 473.148C1258.11 400.257 1244.21 388.74 1240.02 367.899C1238.29 359.406 1234.01 351.642 1227.76 345.639C1221.51 339.637 1213.58 335.68 1205.03 334.295Z" fill="#0AAFF7"/>
<path opacity="0.1" d="M1236.78 472.899C1234.11 485.024 1232.97 497.435 1233.39 509.844C1233.39 539.758 1237.08 573.611 1237.08 573.611C1197.92 590.727 1155.71 599.749 1112.98 600.136L1081.58 595.15C1088.75 556.114 1091.24 516.364 1089 476.738C1086.91 446.026 1073.16 418.654 1069.77 372.037C1069.16 363.927 1071.47 355.868 1076.26 349.3C1081.05 342.732 1088.03 338.085 1095.93 336.19C1103.92 334.126 1112.08 332.741 1120.3 332.052C1143.16 330.489 1166.09 330.223 1188.98 331.254C1194.38 331.87 1199.74 332.785 1205.03 333.996C1213.57 335.399 1221.47 339.364 1227.7 345.366C1233.94 351.367 1238.2 359.121 1239.92 367.6C1241.42 375.079 1244.21 381.41 1246.1 389.737C1249.13 404.774 1248.98 420.282 1245.65 435.257C1243.4 447.96 1240.44 460.527 1236.78 472.899Z" fill="white"/>
<path d="M1214.05 331.852C1225.52 333.447 1236.88 335.741 1248.24 337.635C1259.61 339.53 1270.97 342.123 1282.28 344.566L1278.2 344.217C1283.18 344.217 1287.72 344.815 1290.51 345.014C1291.85 345.014 1292.8 345.014 1292.45 345.314C1292.1 345.613 1291.7 345.613 1290.96 346.111C1289.69 346.796 1288.54 347.689 1287.57 348.754C1285.58 350.662 1284.31 353.198 1283.98 355.933C1283.98 357.08 1284.33 356.781 1284.38 355.933C1284.45 352.979 1284.13 350.029 1283.43 347.158L1283.93 348.604C1278.18 331.985 1272.78 315.249 1267.73 298.398C1262.75 281.496 1258.21 264.445 1254.92 246.895C1254.38 244.049 1254.86 241.104 1256.26 238.57C1257.66 236.036 1259.9 234.072 1262.6 233.019C1265.3 231.966 1268.28 231.889 1271.03 232.802C1273.78 233.716 1276.12 235.561 1277.65 238.02C1287.12 252.977 1295.29 268.782 1303.22 284.537C1311.14 300.292 1318.17 316.247 1325.4 332.351L1325.94 333.846C1328.25 339.512 1329.92 345.414 1330.93 351.446C1331.61 355.924 1331.61 360.479 1330.93 364.957C1329.8 372.144 1326.43 378.792 1321.31 383.953C1318.66 386.556 1315.64 388.742 1312.34 390.435C1309.82 391.716 1307.18 392.735 1304.46 393.476C1300.71 394.502 1296.87 395.186 1293 395.52C1286.77 396.118 1282.18 396.118 1278.05 396.368H1277.4L1273.96 395.969C1262.45 394.772 1250.93 393.376 1239.47 391.93C1228.01 390.484 1216.54 388.889 1205.13 386.945C1198.36 385.262 1192.46 381.096 1188.61 375.271C1184.76 369.447 1183.23 362.388 1184.33 355.492C1185.44 348.596 1189.09 342.366 1194.56 338.034C1200.04 333.703 1206.94 331.585 1213.9 332.101L1214.05 331.852Z" fill="#0AAFF7"/>
<g opacity="0.1">
<path d="M1214.05 331.852C1225.52 333.447 1236.88 335.741 1248.24 337.635C1259.61 339.53 1270.97 342.123 1282.28 344.566L1278.2 344.217C1283.18 344.217 1287.72 344.815 1290.51 345.014C1291.85 345.014 1292.8 345.014 1292.45 345.314C1292.1 345.613 1291.7 345.613 1290.96 346.111C1289.69 346.796 1288.54 347.689 1287.57 348.754C1285.58 350.662 1284.31 353.198 1283.98 355.933C1283.98 357.08 1284.33 356.781 1284.38 355.933C1284.45 352.979 1284.13 350.029 1283.43 347.158L1283.93 348.604C1278.18 331.985 1272.78 315.249 1267.73 298.398C1262.75 281.496 1258.21 264.445 1254.92 246.895C1254.38 244.049 1254.86 241.104 1256.26 238.57C1257.66 236.036 1259.9 234.072 1262.6 233.019C1265.3 231.966 1268.28 231.889 1271.03 232.802C1273.78 233.716 1276.12 235.561 1277.65 238.02C1287.12 252.977 1295.29 268.782 1303.22 284.537C1311.14 300.292 1318.17 316.247 1325.4 332.351L1325.94 333.846C1328.25 339.512 1329.92 345.414 1330.93 351.446C1331.61 355.924 1331.61 360.479 1330.93 364.957C1329.8 372.144 1326.43 378.792 1321.31 383.953C1318.66 386.556 1315.64 388.742 1312.34 390.435C1309.82 391.716 1307.18 392.735 1304.46 393.476C1300.71 394.502 1296.87 395.186 1293 395.52C1286.77 396.118 1282.18 396.118 1278.05 396.368H1277.4L1273.96 395.969C1262.45 394.772 1250.93 393.376 1239.47 391.93C1228.01 390.484 1216.54 388.889 1205.13 386.945C1198.36 385.262 1192.46 381.096 1188.61 375.271C1184.76 369.447 1183.23 362.388 1184.33 355.492C1185.44 348.596 1189.09 342.366 1194.56 338.034C1200.04 333.703 1206.94 331.585 1213.9 332.101L1214.05 331.852Z" fill="white"/>
</g>
<path d="M1420.14 224.459L1569.56 219.922L1567.27 173.056L1418.15 182.927L1420.14 224.459Z" fill="#0AAFF7"/>
<path d="M1307.2 226.303L1428.07 222.365L1426.22 183.974L1305.61 191.802L1307.2 226.303Z" fill="#0AAFF7"/>
<path d="M1412.07 223.362L1419.99 224.21L1418.05 183.177L1410.22 184.772L1412.07 223.362Z" fill="#263238"/>
<path opacity="0.2" d="M1412.07 223.362L1419.99 224.21L1418.05 183.177L1410.22 184.772L1412.07 223.362Z" fill="black"/>
<path d="M1420.04 224.509L1428.12 224.259L1426.12 182.379L1418.05 182.927L1420.04 224.509Z" fill="#263238"/>
<path d="M1288.46 220.62L1300.43 226.154L1298.88 192.55L1287.47 199.231L1288.46 220.62Z" fill="#263238"/>
<path d="M1227.06 220.171L1262.6 218.326L1261.85 202.571L1226.31 204.715L1227.06 220.171Z" fill="#263238"/>
<path opacity="0.2" d="M1227.06 220.171L1262.6 218.326L1261.85 202.571L1226.31 204.715L1227.06 220.171Z" fill="black"/>
<path d="M1257.71 221.517L1297.24 220.021L1296.24 197.935L1256.72 200.278L1257.71 221.517Z" fill="#263238"/>
<path opacity="0.2" d="M1288.46 220.62L1300.43 226.154L1298.88 192.55L1287.47 199.231L1288.46 220.62Z" fill="black"/>
<path d="M1300.67 226.503L1307.2 226.303L1305.61 191.802L1299.03 192.201L1300.67 226.503Z" fill="#263238"/>
<path d="M1564.48 220.071L1587.95 219.224L1585.61 172.208L1562.19 173.405L1564.48 220.071Z" fill="#263238"/>
<path d="M1574.94 223.412L1604.85 222.564L1605.6 220.47C1608.75 211.705 1610.08 202.382 1609.48 193.084C1608.87 183.786 1606.37 174.711 1602.11 166.425L1572.2 168.469L1572.85 170.014C1579.95 186.981 1580.7 205.941 1574.94 223.412Z" fill="#0AAFF7"/>
<g opacity="0.4">
<path d="M1543.05 178.291L1555.11 177.543L1555.36 182.528L1543.1 183.276C1542.87 181.623 1542.85 179.948 1543.05 178.291Z" fill="white"/>
<path d="M1535.72 178.839C1535.53 180.496 1535.53 182.168 1535.72 183.825L1430.91 189.708L1430.41 185.221L1535.72 178.839Z" fill="white"/>
</g>
<g opacity="0.4">
<path d="M1308.15 194.494L1308.35 198.682L1406.93 192.849L1406.68 188.262L1308.15 194.494Z" fill="white"/>
</g>
<g opacity="0.4">
<path d="M1574.84 170.064L1575.14 175.299L1598.52 173.754L1598.27 168.419L1574.84 170.064Z" fill="white"/>
</g>
<path opacity="0.3" d="M1601.76 215.634C1601.56 217.423 1601.56 219.229 1601.76 221.019L1577.59 221.816L1577.29 216.831L1601.76 215.634Z" fill="black"/>
<path opacity="0.3" d="M1558.45 212.742C1558.24 214.398 1558.24 216.073 1558.45 217.728L1430.41 222.514L1430.16 217.828L1558.45 212.742Z" fill="black"/>
<path opacity="0.3" d="M1405.74 217.229C1405.59 218.755 1405.59 220.291 1405.74 221.816L1310.39 225.157V220.969L1405.74 217.229Z" fill="black"/>
<path d="M1219.09 205.313L1219.38 220.271C1219.49 221.523 1220.05 222.691 1220.98 223.541C1221.9 224.391 1223.11 224.862 1224.37 224.858H1236.58L1236.08 200.228L1223.87 200.677C1222.64 200.723 1221.47 201.222 1220.59 202.078C1219.71 202.934 1219.17 204.086 1219.09 205.313Z" fill="#0AAFF7"/>
<path d="M1282.23 247.094L1286.87 219.024C1286.99 217.864 1286.99 216.694 1286.87 215.534L1285.52 200.577C1285.41 199.565 1285 198.609 1284.36 197.821C1283.71 197.034 1282.85 196.45 1281.89 196.14H1259.46C1258.09 195.663 1256.6 195.717 1255.27 196.289C1253.94 196.861 1252.87 197.911 1252.28 199.231L1248.24 217.628C1247.92 218.989 1247.92 220.406 1248.24 221.767L1254.92 247.094C1255.28 248.19 1255.94 249.166 1256.82 249.913C1257.7 250.661 1258.77 251.152 1259.91 251.332H1274.56C1276.14 251.766 1277.82 251.566 1279.26 250.775C1280.69 249.983 1281.76 248.662 1282.23 247.094Z" fill="#CE7A63"/>
<path d="M1295.39 258.91L1257.26 272.322L1250.93 248.889L1283.68 238.917L1295.39 258.91Z" fill="#0AAFF7"/>
<path opacity="0.3" d="M1295.39 258.91L1257.26 272.322L1250.93 248.889L1283.68 238.917L1295.39 258.91Z" fill="white"/>
<path opacity="0.2" d="M1246 435.356L1216.79 380.214L1246.7 389.836C1249.65 404.891 1249.41 420.399 1246 435.356Z" fill="black"/>
<path d="M1396.37 893.049L1390.29 967.935L1424.38 968.583L1433.75 891.453L1396.37 893.049Z" fill="#CE7A63"/>
<path d="M1429.76 958.362L1390.93 959.16C1390.2 959.195 1389.49 959.481 1388.94 959.97C1388.39 960.46 1388.02 961.124 1387.89 961.852L1381.22 995.955C1380.88 997.355 1381.1 998.831 1381.84 1000.07C1382.57 1001.31 1383.76 1002.21 1385.15 1002.59H1386.25C1400.25 1002.04 1412.71 1000.99 1430.16 1000.64C1450.74 1000.24 1445.56 1002.98 1469.78 1002.88C1484.33 1002.88 1486.83 984.936 1480.65 984.188C1452.29 980.898 1449.3 971.824 1438.23 961.154C1435.88 959.151 1432.84 958.149 1429.76 958.362Z" fill="#263238"/>
<path d="M1024.26 1213.98L1010.46 1282.78L1047.09 1293.95L1064.78 1223.7L1024.26 1213.98Z" fill="#CE7A63"/>
<path d="M1220.28 576.603C1220.28 576.603 1168.15 881.083 1139.79 970.477C1119.86 1034.24 1065.53 1243 1065.53 1243L1016.74 1232.33C1016.74 1232.33 1011.25 1090.23 1038.52 1016.89C1047.84 991.966 1060 969.281 1063.44 953.775C1077.49 887.514 1048.48 767.308 1061.34 677.664C1065.27 649.148 1072.57 621.199 1083.07 594.402L1220.28 576.603Z" fill="#263238"/>
<path d="M1139.79 970.677C1119.86 1034.44 1065.53 1243.2 1065.53 1243.2L1016.74 1232.33C1016.74 1232.33 1011.25 1090.24 1038.52 1016.89C1047.84 991.966 1060 969.281 1063.44 953.775C1077.49 887.514 1048.48 767.308 1061.34 677.664C1065.27 649.148 1072.57 621.199 1083.07 594.402" fill="#263238"/>
<path opacity="0.2" d="M1156.34 670.734L1182.6 773.839L1201.79 675.221L1156.34 670.734Z" fill="black"/>
<path d="M1436.14 928.996L1388.19 930.541C1388.19 930.541 1391.73 867.771 1391.73 775.983C1391.86 762.325 1393.63 748.732 1397.01 735.499C1401.14 718.612 1407.14 702.24 1414.91 686.688L1401 687.386C1373.89 688.782 1205.83 697.358 1202.54 697.358C1200.05 697.108 1184.75 699.152 1157.38 685.791C1106.5 660.862 1106 591.061 1106 591.061L1237.03 573.611C1237.03 573.611 1239.17 574.01 1270.72 574.558C1366.36 576.204 1483.89 579.893 1504.52 612.749C1533.53 658.967 1436.14 928.996 1436.14 928.996Z" fill="#263238"/>
<path d="M1048.93 1276.2L1008.76 1276.7C1008.02 1276.71 1007.31 1276.99 1006.76 1277.48C1006.21 1277.98 1005.86 1278.66 1005.77 1279.39L1000.79 1313.8C1000.58 1315.27 1000.92 1316.78 1001.75 1318.02C1002.58 1319.26 1003.83 1320.15 1005.27 1320.53H1006.42C1020.92 1320.08 1033.73 1319.08 1051.77 1318.83C1073.11 1318.58 1067.87 1321.33 1092.89 1321.33C1107.84 1321.33 1109.59 1303.33 1103.16 1302.53C1073.6 1299.09 1069.97 1289.86 1057.95 1279.05C1055.41 1277 1052.19 1275.99 1048.93 1276.2Z" fill="#263238"/>
<path opacity="0.2" d="M1397.02 735.748C1401.14 718.862 1407.14 702.49 1414.91 686.937L1401 687.635C1400.59 687.472 1400.15 687.387 1399.71 687.386L1434.6 684.445L1397.02 735.748Z" fill="black"/>
<path d="M481.156 363.013C514.93 363.013 542.309 335.624 542.309 301.838C542.309 268.051 514.93 240.662 481.156 240.662C447.381 240.662 420.002 268.051 420.002 301.838C420.002 335.624 447.381 363.013 481.156 363.013Z" fill="#0AAFF7"/>
<path opacity="0.6" d="M481.156 363.013C514.93 363.013 542.309 335.624 542.309 301.838C542.309 268.051 514.93 240.662 481.156 240.662C447.381 240.662 420.002 268.051 420.002 301.838C420.002 335.624 447.381 363.013 481.156 363.013Z" fill="white"/>
<path d="M481.254 217.379C478.844 217.366 476.537 216.399 474.837 214.689C473.138 212.979 472.184 210.666 472.184 208.255V168.369C472.354 166.072 473.386 163.924 475.073 162.357C476.76 160.79 478.977 159.919 481.279 159.919C483.582 159.919 485.799 160.79 487.486 162.357C489.173 163.924 490.205 166.072 490.375 168.369V208.255C490.375 210.675 489.414 212.995 487.704 214.707C485.993 216.418 483.673 217.379 481.254 217.379Z" fill="#0AAFF7"/>
<path d="M481.254 443.981C478.853 443.968 476.553 443.008 474.855 441.309C473.157 439.61 472.197 437.31 472.184 434.907V394.722C472.354 392.425 473.386 390.278 475.073 388.71C476.76 387.143 478.977 386.272 481.279 386.272C483.582 386.272 485.799 387.143 487.486 388.71C489.173 390.278 490.205 392.425 490.375 394.722V434.907C490.362 437.318 489.395 439.626 487.686 441.327C485.977 443.027 483.665 443.981 481.254 443.981Z" fill="#0AAFF7"/>
<path d="M415.466 244.551C414.27 244.551 413.085 244.313 411.981 243.851C410.877 243.389 409.876 242.712 409.037 241.859L391.692 224.608C390.848 223.764 390.178 222.761 389.721 221.657C389.264 220.554 389.029 219.371 389.029 218.176C389.029 216.982 389.264 215.799 389.721 214.696C390.178 213.592 390.848 212.589 391.692 211.745C392.537 210.9 393.539 210.23 394.642 209.773C395.745 209.316 396.928 209.081 398.122 209.081C399.316 209.081 400.498 209.316 401.601 209.773C402.704 210.23 403.707 210.9 404.551 211.745L421.895 229.095C423.594 230.805 424.547 233.117 424.547 235.527C424.547 237.937 423.594 240.249 421.895 241.959C421.048 242.793 420.043 243.452 418.94 243.897C417.836 244.342 416.656 244.564 415.466 244.551Z" fill="#0AAFF7"/>
<path d="M563.192 392.479C560.787 392.465 558.482 391.518 556.762 389.836L540.614 373.633C538.909 371.927 537.951 369.613 537.951 367.201C537.951 364.789 538.909 362.475 540.614 360.769C542.319 359.064 544.632 358.105 547.044 358.105C549.455 358.105 551.768 359.064 553.473 360.769L569.621 376.973C570.896 378.242 571.765 379.862 572.117 381.626C572.47 383.39 572.29 385.219 571.601 386.881C570.912 388.543 569.745 389.963 568.247 390.959C566.75 391.956 564.99 392.485 563.192 392.479Z" fill="#0AAFF7"/>
<path d="M388.204 310.463H348.332C347.081 310.556 345.824 310.389 344.64 309.974C343.456 309.559 342.371 308.904 341.451 308.05C340.532 307.196 339.799 306.161 339.297 305.011C338.796 303.86 338.537 302.619 338.537 301.364C338.537 300.109 338.796 298.867 339.297 297.717C339.799 296.567 340.532 295.532 341.451 294.678C342.371 293.824 343.456 293.169 344.64 292.754C345.824 292.339 347.081 292.172 348.332 292.265H388.204C389.455 292.172 390.711 292.339 391.895 292.754C393.079 293.169 394.165 293.824 395.084 294.678C396.003 295.532 396.736 296.567 397.238 297.717C397.739 298.867 397.998 300.109 397.998 301.364C397.998 302.619 397.739 303.86 397.238 305.011C396.736 306.161 396.003 307.196 395.084 308.05C394.165 308.904 393.079 309.559 391.895 309.974C390.711 310.389 389.455 310.556 388.204 310.463Z" fill="#0AAFF7"/>
<path d="M614.477 310.463H574.356C573.105 310.556 571.848 310.389 570.664 309.974C569.48 309.559 568.395 308.904 567.476 308.05C566.556 307.196 565.823 306.161 565.322 305.011C564.82 303.86 564.562 302.619 564.562 301.364C564.562 300.109 564.82 298.867 565.322 297.717C565.823 296.567 566.556 295.532 567.476 294.678C568.395 293.824 569.48 293.169 570.664 292.754C571.848 292.339 573.105 292.172 574.356 292.265H614.477C615.728 292.172 616.985 292.339 618.169 292.754C619.353 293.169 620.438 293.824 621.357 294.678C622.277 295.532 623.01 296.567 623.511 297.717C624.013 298.867 624.272 300.109 624.272 301.364C624.272 302.619 624.013 303.86 623.511 305.011C623.01 306.161 622.277 307.196 621.357 308.05C620.438 308.904 619.353 309.559 618.169 309.974C616.985 310.389 615.728 310.556 614.477 310.463Z" fill="#0AAFF7"/>
<path d="M400.165 391.631C397.776 391.685 395.464 390.788 393.735 389.138C392.037 387.429 391.084 385.117 391.084 382.707C391.084 380.297 392.037 377.984 393.735 376.275L409.036 360.969C410.742 359.263 413.054 358.305 415.466 358.305C417.877 358.305 420.19 359.263 421.895 360.969C423.6 362.675 424.558 364.988 424.558 367.4C424.558 369.813 423.6 372.126 421.895 373.832L406.594 389.138C404.866 390.788 402.553 391.685 400.165 391.631Z" fill="#0AAFF7"/>
<path d="M547.094 244.551C545.896 244.557 544.71 244.322 543.605 243.859C542.501 243.397 541.5 242.716 540.664 241.859C538.966 240.149 538.013 237.837 538.013 235.427C538.013 233.017 538.966 230.705 540.664 228.996L557.062 212.593C558.767 210.887 561.079 209.928 563.491 209.928C565.902 209.928 568.215 210.887 569.92 212.593C571.625 214.298 572.583 216.612 572.583 219.024C572.583 221.436 571.625 223.75 569.92 225.456L553.523 241.859C551.821 243.572 549.508 244.541 547.094 244.551Z" fill="#0AAFF7"/>
<g opacity="0.6">
<path d="M481.254 217.379C478.844 217.366 476.537 216.399 474.837 214.689C473.138 212.979 472.184 210.666 472.184 208.255V168.369C472.354 166.072 473.386 163.924 475.073 162.357C476.76 160.79 478.977 159.919 481.279 159.919C483.582 159.919 485.799 160.79 487.486 162.357C489.173 163.924 490.205 166.072 490.375 168.369V208.255C490.375 210.675 489.414 212.995 487.704 214.707C485.993 216.418 483.673 217.379 481.254 217.379Z" fill="white"/>
<path d="M481.254 443.981C478.853 443.968 476.553 443.008 474.855 441.309C473.157 439.61 472.197 437.31 472.184 434.907V394.722C472.354 392.425 473.386 390.278 475.073 388.71C476.76 387.143 478.977 386.272 481.279 386.272C483.582 386.272 485.799 387.143 487.486 388.71C489.173 390.278 490.205 392.425 490.375 394.722V434.907C490.362 437.318 489.395 439.626 487.686 441.327C485.977 443.027 483.665 443.981 481.254 443.981Z" fill="white"/>
<path d="M415.466 244.551C414.27 244.551 413.085 244.313 411.981 243.851C410.877 243.389 409.876 242.712 409.037 241.859L391.692 224.608C390.848 223.764 390.178 222.761 389.721 221.657C389.264 220.554 389.029 219.371 389.029 218.176C389.029 216.982 389.264 215.799 389.721 214.696C390.178 213.592 390.848 212.589 391.692 211.745C392.537 210.9 393.539 210.23 394.642 209.773C395.745 209.316 396.928 209.081 398.122 209.081C399.316 209.081 400.498 209.316 401.601 209.773C402.704 210.23 403.707 210.9 404.551 211.745L421.895 229.095C423.594 230.805 424.547 233.117 424.547 235.527C424.547 237.937 423.594 240.249 421.895 241.959C421.048 242.793 420.043 243.452 418.94 243.897C417.836 244.342 416.656 244.564 415.466 244.551Z" fill="white"/>
<path d="M563.192 392.479C560.787 392.465 558.482 391.518 556.762 389.836L540.614 373.633C538.909 371.927 537.951 369.613 537.951 367.201C537.951 364.789 538.909 362.475 540.614 360.769C542.319 359.064 544.632 358.105 547.044 358.105C549.455 358.105 551.768 359.064 553.473 360.769L569.621 376.973C570.896 378.242 571.765 379.862 572.117 381.626C572.47 383.39 572.29 385.219 571.601 386.881C570.912 388.543 569.745 389.963 568.247 390.959C566.75 391.956 564.99 392.485 563.192 392.479Z" fill="white"/>
<path d="M388.204 310.463H348.332C347.081 310.556 345.824 310.389 344.64 309.974C343.456 309.559 342.371 308.904 341.451 308.05C340.532 307.196 339.799 306.161 339.297 305.011C338.796 303.86 338.537 302.619 338.537 301.364C338.537 300.109 338.796 298.867 339.297 297.717C339.799 296.567 340.532 295.532 341.451 294.678C342.371 293.824 343.456 293.169 344.64 292.754C345.824 292.339 347.081 292.172 348.332 292.265H388.204C389.455 292.172 390.711 292.339 391.895 292.754C393.079 293.169 394.165 293.824 395.084 294.678C396.003 295.532 396.736 296.567 397.238 297.717C397.739 298.867 397.998 300.109 397.998 301.364C397.998 302.619 397.739 303.86 397.238 305.011C396.736 306.161 396.003 307.196 395.084 308.05C394.165 308.904 393.079 309.559 391.895 309.974C390.711 310.389 389.455 310.556 388.204 310.463Z" fill="white"/>
<path d="M614.477 310.463H574.356C573.105 310.556 571.848 310.389 570.664 309.974C569.48 309.559 568.395 308.904 567.476 308.05C566.556 307.196 565.823 306.161 565.322 305.011C564.82 303.86 564.562 302.619 564.562 301.364C564.562 300.109 564.82 298.867 565.322 297.717C565.823 296.567 566.556 295.532 567.476 294.678C568.395 293.824 569.48 293.169 570.664 292.754C571.848 292.339 573.105 292.172 574.356 292.265H614.477C615.728 292.172 616.985 292.339 618.169 292.754C619.353 293.169 620.438 293.824 621.357 294.678C622.277 295.532 623.01 296.567 623.511 297.717C624.013 298.867 624.272 300.109 624.272 301.364C624.272 302.619 624.013 303.86 623.511 305.011C623.01 306.161 622.277 307.196 621.357 308.05C620.438 308.904 619.353 309.559 618.169 309.974C616.985 310.389 615.728 310.556 614.477 310.463Z" fill="white"/>
<path d="M400.165 391.631C397.776 391.685 395.464 390.788 393.735 389.138C392.037 387.429 391.084 385.117 391.084 382.707C391.084 380.297 392.037 377.984 393.735 376.275L409.036 360.969C410.742 359.263 413.054 358.305 415.466 358.305C417.877 358.305 420.19 359.263 421.895 360.969C423.6 362.675 424.558 364.988 424.558 367.4C424.558 369.813 423.6 372.126 421.895 373.832L406.594 389.138C404.866 390.788 402.553 391.685 400.165 391.631Z" fill="white"/>
<path d="M547.094 244.551C545.896 244.557 544.71 244.322 543.605 243.859C542.501 243.397 541.5 242.716 540.664 241.859C538.966 240.149 538.013 237.837 538.013 235.427C538.013 233.017 538.966 230.705 540.664 228.996L557.062 212.593C558.767 210.887 561.079 209.928 563.491 209.928C565.902 209.928 568.215 210.887 569.92 212.593C571.625 214.298 572.583 216.612 572.583 219.024C572.583 221.436 571.625 223.75 569.92 225.456L553.523 241.859C551.821 243.572 549.508 244.541 547.094 244.551Z" fill="white"/>
</g>
</svg>
