<svg width="54" height="54" viewBox="0 0 54 54" fill="none" xmlns="http://www.w3.org/2000/svg">
<path d="M12.5998 0V18M41.3998 0V18M10.7998 27H21.5998M43.1998 27H32.3998M10.7998 37.8H21.5998M32.3998 37.8H43.1998M5.3998 9H48.5998C49.5546 9 50.4703 9.37928 51.1454 10.0544C51.8205 10.7295 52.1998 11.6452 52.1998 12.6V48.6C52.1998 49.5548 51.8205 50.4705 51.1454 51.1456C50.4703 51.8207 49.5546 52.2 48.5998 52.2H5.3998C4.44503 52.2 3.52935 51.8207 2.85422 51.1456C2.17909 50.4705 1.7998 49.5548 1.7998 48.6V12.6C1.7998 11.6452 2.17909 10.7295 2.85422 10.0544C3.52935 9.37928 4.44503 9 5.3998 9Z" stroke="#0AAFF7" stroke-width="3.5"/>
</svg>
