<svg width="59" height="59" viewBox="0 0 59 59" fill="none" xmlns="http://www.w3.org/2000/svg">
<g clip-path="url(#clip0_43_7)">
<path d="M13.7668 0V19.6667M45.2335 0V19.6667M11.8001 29.5H23.6001M47.2001 29.5H35.4001M11.8001 41.3H23.6001M35.4001 41.3H47.2001M5.90013 9.83333H53.1001C54.1433 9.83333 55.1438 10.2477 55.8814 10.9854C56.6191 11.723 57.0335 12.7235 57.0335 13.7667V53.1C57.0335 54.1432 56.6191 55.1436 55.8814 55.8813C55.1438 56.6189 54.1433 57.0333 53.1001 57.0333H5.90013C4.85695 57.0333 3.85649 56.6189 3.11884 55.8813C2.3812 55.1436 1.9668 54.1432 1.9668 53.1V13.7667C1.9668 12.7235 2.3812 11.723 3.11884 10.9854C3.85649 10.2477 4.85695 9.83333 5.90013 9.83333Z" stroke="#0AAFF7" stroke-width="4"/>
</g>
<defs>
<clipPath id="clip0_43_7">
<rect width="59" height="59" fill="white"/>
</clipPath>
</defs>
</svg>
