<svg width="62" height="66" viewBox="0 0 62 66" fill="none" xmlns="http://www.w3.org/2000/svg">
<path d="M47.5034 35.3041H47.6034V35.2041V14.5791C47.6034 13.4586 47.1583 12.3839 46.3659 11.5916C45.5736 10.7992 44.499 10.3541 43.3784 10.3541H39.3522C39.3266 9.26979 38.8847 8.23532 38.1159 7.46658C37.3236 6.67423 36.249 6.2291 35.1284 6.2291H24.1284C23.0079 6.2291 21.9332 6.67423 21.1409 7.46658C20.3722 8.23532 19.9302 9.26979 19.9046 10.3541H15.8784C14.7579 10.3541 13.6832 10.7992 12.8909 11.5916C12.0986 12.3839 11.6534 13.4586 11.6534 14.5791V53.0791C11.6534 54.1996 12.0986 55.2743 12.8909 56.0666C13.6832 56.859 14.7579 57.3041 15.8784 57.3041H32.3784H32.4784V57.2041V54.4541V54.3541H32.3784H15.8784C15.5403 54.3541 15.216 54.2198 14.9769 53.9807C14.7377 53.7416 14.6034 53.4173 14.6034 53.0791V33.8291V14.5791C14.6034 14.2409 14.7377 13.9166 14.9769 13.6775C15.216 13.4384 15.5403 13.3041 15.8784 13.3041H19.9046C19.9302 14.3884 20.3722 15.4229 21.1409 16.1916C21.9332 16.984 23.0079 17.4291 24.1284 17.4291H35.1284C36.249 17.4291 37.3236 16.984 38.1159 16.1916C38.8847 15.4229 39.3266 14.3884 39.3522 13.3041H43.3784C43.7166 13.3041 44.0409 13.4384 44.28 13.6775C44.5191 13.9166 44.6534 14.2409 44.6534 14.5791V35.2041V35.3041H44.7534H47.5034ZM28.2534 22.7291H28.1534V22.8291V26.8541H24.1284H24.0284V26.9541V29.7041V29.8041H24.1284H28.1534V33.8291V33.9291H28.2534H31.0034H31.1034V33.8291V29.8041H35.1284H35.2284V29.7041V26.9541V26.8541H35.1284H31.1034V22.8291V22.7291H31.0034H28.2534ZM41.102 51.2305L38.4227 48.5512L40.2255 46.7484L41.9327 48.4556L42.0034 48.5263L42.0741 48.4556L46.5313 43.9984L48.3341 45.8012L42.9048 51.2305C42.6657 51.4695 42.3415 51.6038 42.0034 51.6038C41.6653 51.6038 41.3411 51.4695 41.102 51.2305ZM23.2269 9.55254C23.466 9.31343 23.7903 9.1791 24.1284 9.1791H35.1284C35.4666 9.1791 35.7909 9.31343 36.03 9.55254C36.2691 9.79165 36.4034 10.1159 36.4034 10.4541V13.2041C36.4034 13.5423 36.2691 13.8666 36.03 14.1057C35.7909 14.3448 35.4666 14.4791 35.1284 14.4791H24.1284C23.7903 14.4791 23.466 14.3448 23.2269 14.1057C22.9877 13.8666 22.8534 13.5423 22.8534 13.2041V10.4541C22.8534 10.1159 22.9877 9.79165 23.2269 9.55254ZM35.1284 37.8541C34.7372 37.8541 34.3621 38.0095 34.0854 38.2861C33.8088 38.5627 33.6534 38.9379 33.6534 39.3291V48.664C33.6535 50.2649 34.0488 51.841 34.8042 53.2525C35.5596 54.664 36.6518 55.8671 37.9838 56.7552L42.5598 59.8077C42.8022 59.9694 43.087 60.0557 43.3784 60.0557C43.6698 60.0557 43.9547 59.9694 44.197 59.8077L48.773 56.7552C50.1048 55.8673 51.1969 54.6643 51.9523 53.2531C52.7077 51.8419 53.1031 50.266 53.1034 48.6654V39.3291C53.1034 38.9379 52.948 38.5627 52.6714 38.2861C52.3948 38.0095 52.0196 37.8541 51.6284 37.8541H35.1284Z" fill="#0AAFF7" stroke="#0AAFF7" stroke-width="0.2"/>
</svg>
