<svg width="70" height="75" viewBox="0 0 70 75" fill="none" xmlns="http://www.w3.org/2000/svg">
<path d="M53.6329 40.0463H53.9329V39.7463V16.46C53.9329 15.1453 53.4106 13.8844 52.481 12.9547C51.5513 12.025 50.2904 11.5028 48.9757 11.5028H44.6093C44.5363 10.2975 44.0252 9.15616 43.1665 8.29746C42.2368 7.36779 40.9759 6.84551 39.6611 6.84551H27.2418C25.927 6.84551 24.6661 7.36779 23.7365 8.29746C22.8778 9.15616 22.3666 10.2975 22.2936 11.5028H17.9273C16.6125 11.5028 15.3516 12.025 14.422 12.9547C13.4923 13.8844 12.97 15.1453 12.97 16.46V59.9278C12.97 61.2425 13.4923 62.5034 14.422 63.4331C15.3516 64.3627 16.6125 64.885 17.9273 64.885H36.5563H36.8563V64.585V61.4802V61.1802H36.5563H17.9273C17.5951 61.1802 17.2766 61.0482 17.0417 60.8134C16.8068 60.5785 16.6749 60.2599 16.6749 59.9278V38.1939V16.46C16.6749 16.1279 16.8068 15.8093 17.0417 15.5744C17.2766 15.3396 17.5951 15.2076 17.9273 15.2076H22.2936C22.3666 16.4129 22.8778 17.5542 23.7365 18.4129C24.6661 19.3426 25.927 19.8649 27.2418 19.8649H39.6611C40.9759 19.8649 42.2368 19.3426 43.1665 18.4129C44.0252 17.5542 44.5363 16.4129 44.6093 15.2076H48.9757C49.3078 15.2076 49.6264 15.3396 49.8613 15.5744C50.0961 15.8093 50.2281 16.1279 50.2281 16.46V39.7463V40.0463H50.5281H53.6329ZM31.8991 25.4745H31.5991V25.7745V30.1318H27.2418H26.9418V30.4318V33.5366V33.8366H27.2418H31.5991V38.1939V38.4939H31.8991H35.0039H35.3039V38.1939V33.8366H39.6611H39.9611V33.5366V30.4318V30.1318H39.6611H35.3039V25.7745V25.4745H35.0039H31.8991ZM46.5378 57.7083L43.6451 54.8156L45.416 53.0448L47.2111 54.8399L47.4232 55.0521L47.6354 54.8399L52.5354 49.9399L54.3062 51.7108L48.3087 57.7083C48.3087 57.7083 48.3087 57.7083 48.3087 57.7084C48.0738 57.9431 47.7553 58.075 47.4232 58.075C47.0912 58.075 46.7727 57.9431 46.5378 57.7084C46.5378 57.7083 46.5378 57.7083 46.5378 57.7083ZM26.3562 10.9172C26.5911 10.6823 26.9096 10.5503 27.2418 10.5503H39.6611C39.9933 10.5503 40.3119 10.6823 40.5467 10.9172C40.7816 11.152 40.9136 11.4706 40.9136 11.8028V14.9076C40.9136 15.2398 40.7816 15.5583 40.5467 15.7932C40.3119 16.0281 39.9933 16.16 39.6611 16.16H27.2418C26.9096 16.16 26.5911 16.0281 26.3562 15.7932C26.1213 15.5583 25.9894 15.2398 25.9894 14.9076V11.8028C25.9894 11.4706 26.1213 11.152 26.3562 10.9172ZM39.6611 42.5512C39.1699 42.5512 38.6987 42.7463 38.3513 43.0937C38.0039 43.4411 37.8087 43.9123 37.8087 44.4036V54.9429C37.8088 56.7812 38.2627 58.5911 39.1301 60.2118C39.9975 61.8326 41.2516 63.2141 42.7811 64.2338C42.7812 64.2338 42.7812 64.2338 42.7812 64.2338L47.9476 67.6802C48.252 67.8833 48.6097 67.9916 48.9757 67.9916C49.3416 67.9916 49.6993 67.8833 50.0038 67.6802L55.1701 64.2338C55.1701 64.2338 55.1702 64.2338 55.1702 64.2338C56.6995 63.2142 57.9534 61.833 58.8208 60.2125C59.6882 58.5921 60.1423 56.7826 60.1426 54.9446V44.4036C60.1426 43.9123 59.9474 43.4411 59.6 43.0937C59.2526 42.7463 58.7815 42.5512 58.2902 42.5512H39.6611Z" fill="#0AAFF7" stroke="#0AAFF7" stroke-width="0.6"/>
</svg>
