<svg width="61" height="61" viewBox="0 0 61 61" fill="none" xmlns="http://www.w3.org/2000/svg">
<path d="M1.90391 19.8838V21.7338H3.75391H57.1289H58.9789V19.8838V17.9775C58.9789 14.959 57.7798 12.0642 55.6454 9.92978C53.511 7.79538 50.6161 6.59629 47.5977 6.59629H13.2852C10.2667 6.59629 7.3718 7.79538 5.2374 9.92978C3.103 12.0642 1.90391 14.959 1.90391 17.9775V19.8838ZM58.9789 23.6963V21.8463H57.1289H3.75391H1.90391V23.6963V37.04C1.90391 40.0585 3.103 42.9534 5.2374 45.0878C7.3718 47.2222 10.2667 48.4213 13.2852 48.4213H47.5977C50.6161 48.4213 53.511 47.2222 55.6454 45.0878C57.7798 42.9534 58.9789 40.0585 58.9789 37.04V23.6963ZM39.9727 36.9838H47.5977C47.6126 36.9838 47.6269 36.9897 47.6374 37.0003C47.648 37.0108 47.6539 37.0251 47.6539 37.04C47.6539 37.055 47.648 37.0693 47.6374 37.0798C47.6269 37.0904 47.6126 37.0963 47.5977 37.0963H39.9727C39.9577 37.0963 39.9434 37.0904 39.9329 37.0798C39.9223 37.0693 39.9164 37.055 39.9164 37.04C39.9164 37.0251 39.9223 37.0108 39.9329 37.0003C39.9434 36.9897 39.9577 36.9838 39.9727 36.9838Z" stroke="#0AAFF7" stroke-width="3.7"/>
</svg>
