<svg width="61" height="61" viewBox="0 0 61 61" fill="none" xmlns="http://www.w3.org/2000/svg">
<path d="M2.00391 19.8838V21.6338H3.75391H57.1289H58.8789V19.8838V17.9775C58.8789 14.9856 57.6903 12.1161 55.5747 10.0005C53.4591 7.88485 50.5896 6.69629 47.5977 6.69629H13.2852C10.2932 6.69629 7.42375 7.88485 5.30811 10.0005C3.19246 12.1161 2.00391 14.9856 2.00391 17.9775V19.8838ZM58.8789 23.6963V21.9463H57.1289H3.75391H2.00391V23.6963V37.04C2.00391 40.032 3.19246 42.9014 5.30811 45.0171C7.42375 47.1327 10.2932 48.3213 13.2852 48.3213H47.5977C50.5896 48.3213 53.4591 47.1327 55.5747 45.0171C57.6903 42.9014 58.8789 40.032 58.8789 37.04V23.6963ZM39.9727 36.8838H47.5977C47.6391 36.8838 47.6788 36.9003 47.7082 36.9296C47.7374 36.9588 47.7539 36.9986 47.7539 37.04C47.7539 37.0815 47.7374 37.1212 47.7081 37.1505C47.6788 37.1798 47.6391 37.1963 47.5977 37.1963H39.9727C39.9312 37.1963 39.8915 37.1798 39.8622 37.1505L38.6247 38.388L39.8622 37.1505C39.8329 37.1212 39.8164 37.0815 39.8164 37.04C39.8164 36.9986 39.8329 36.9589 39.8622 36.9296L38.6247 35.6921L39.8622 36.9296C39.8915 36.9003 39.9312 36.8838 39.9727 36.8838Z" stroke="#0AAFF7" stroke-width="3.5"/>
</svg>
