<svg width="68" height="68" viewBox="0 0 68 68" fill="none" xmlns="http://www.w3.org/2000/svg">
<path d="M55.7281 18.4676C55.5894 18.0413 55.3195 17.6698 54.9569 17.4062C54.5943 17.1426 54.1577 17.0004 53.7094 17H48.875V9.5625C48.875 8.38711 47.9254 7.4375 46.75 7.4375H21.25C20.0746 7.4375 19.125 8.38711 19.125 9.5625V17H14.2906C13.8421 16.9994 13.405 17.1412 13.0422 17.4049C12.6794 17.6687 12.4097 18.0407 12.2719 18.4676L7.4375 33.3359V58.4375C7.4375 59.6129 8.38711 60.5625 9.5625 60.5625H58.4375C59.6129 60.5625 60.5625 59.6129 60.5625 58.4375V33.3359L55.7281 18.4676ZM23.9062 12.2188H44.0938V17H23.9062V12.2188ZM55.7812 55.7812H12.2188V34.093L16.223 21.7812H51.777L55.7812 34.093V55.7812ZM43.2969 37.9844H36.125V30.8125C36.125 30.5203 35.8859 30.2812 35.5938 30.2812H32.4062C32.1141 30.2812 31.875 30.5203 31.875 30.8125V37.9844H24.7031C24.4109 37.9844 24.1719 38.2234 24.1719 38.5156V41.7031C24.1719 41.9953 24.4109 42.2344 24.7031 42.2344H31.875V49.4062C31.875 49.6984 32.1141 49.9375 32.4062 49.9375H35.5938C35.8859 49.9375 36.125 49.6984 36.125 49.4062V42.2344H43.2969C43.5891 42.2344 43.8281 41.9953 43.8281 41.7031V38.5156C43.8281 38.2234 43.5891 37.9844 43.2969 37.9844Z" fill="#09ADF4"/>
</svg>
