<svg width="59" height="59" viewBox="0 0 59 59" fill="none" xmlns="http://www.w3.org/2000/svg">
<path d="M24.584 13.1104H39.334V16.3881H24.584V13.1104Z" fill="#09ADF4"/>
<path d="M24.584 19.668H39.334V22.9457H24.584V19.668Z" fill="#09ADF4"/>
<path d="M24.584 26.2227H39.334V29.5004H24.584V26.2227Z" fill="#09ADF4"/>
<path d="M24.584 32.7773H39.334V36.0551H24.584V32.7773Z" fill="#09ADF4"/>
<path d="M24.584 39.332H39.334V42.6098H24.584V39.332Z" fill="#09ADF4"/>
<path d="M18.0278 13.1104H21.3056V16.3881H18.0278V13.1104Z" fill="#09ADF4"/>
<path d="M18.0278 19.668H21.3056V22.9457H18.0278V19.668Z" fill="#09ADF4"/>
<path d="M18.0278 26.2227H21.3056V29.5004H18.0278V26.2227Z" fill="#09ADF4"/>
<path d="M18.0278 32.7773H21.3056V36.0551H18.0278V32.7773Z" fill="#09ADF4"/>
<path d="M18.0278 39.332H21.3056V42.6098H18.0278V39.332Z" fill="#09ADF4"/>
<path d="M45.8895 3.27734H13.1118C12.2424 3.27734 11.4087 3.62268 10.794 4.23738C10.1793 4.85209 9.83398 5.6858 9.83398 6.55512V52.444C9.83398 53.3133 10.1793 54.1471 10.794 54.7618C11.4087 55.3765 12.2424 55.7218 13.1118 55.7218H45.8895C46.7589 55.7218 47.5926 55.3765 48.2073 54.7618C48.822 54.1471 49.1673 53.3133 49.1673 52.444V6.55512C49.1673 5.6858 48.822 4.85209 48.2073 4.23738C47.5926 3.62268 46.7589 3.27734 45.8895 3.27734ZM45.8895 52.444H13.1118V6.55512H45.8895V52.444Z" fill="#09ADF4"/>
</svg>
