<svg width="63" height="63" viewBox="0 0 63 63" fill="none" xmlns="http://www.w3.org/2000/svg">
<path d="M26.2505 13.999H42.0005V17.499H26.2505V13.999Z" fill="#09ADF4"/>
<path d="M26.2505 21.001H42.0005V24.501H26.2505V21.001Z" fill="#09ADF4"/>
<path d="M26.2505 28H42.0005V31.5H26.2505V28Z" fill="#09ADF4"/>
<path d="M26.2505 35H42.0005V38.5H26.2505V35Z" fill="#09ADF4"/>
<path d="M26.2505 41.999H42.0005V45.499H26.2505V41.999Z" fill="#09ADF4"/>
<path d="M19.25 13.999H22.75V17.499H19.25V13.999Z" fill="#09ADF4"/>
<path d="M19.25 21.001H22.75V24.501H19.25V21.001Z" fill="#09ADF4"/>
<path d="M19.25 28H22.75V31.5H19.25V28Z" fill="#09ADF4"/>
<path d="M19.25 35H22.75V38.5H19.25V35Z" fill="#09ADF4"/>
<path d="M19.25 41.999H22.75V45.499H19.25V41.999Z" fill="#09ADF4"/>
<path d="M49.0005 3.3H14.0005C13.0192 3.3 12.0781 3.68982 11.3842 4.3837C10.6903 5.07759 10.3005 6.0187 10.3005 7V56C10.3005 56.9813 10.6903 57.9224 11.3842 58.6163C12.0781 59.3102 13.0192 59.7 14.0005 59.7H49.0005C49.9818 59.7 50.9229 59.3102 51.6168 58.6163C52.3107 57.9224 52.7005 56.9813 52.7005 56V7C52.7005 6.0187 52.3107 5.07759 51.6168 4.3837C50.9229 3.68982 49.9818 3.3 49.0005 3.3ZM48.8005 55.8H14.2005V7.2H48.8005V55.8Z" fill="#09ADF4" stroke="#09ADF4" stroke-width="0.4"/>
</svg>
