<svg width="54" height="54" viewBox="0 0 54 54" fill="none" xmlns="http://www.w3.org/2000/svg">
<path d="M20.2568 13.5001C20.2568 11.7117 20.9672 9.99649 22.2318 8.73189C23.4964 7.46728 25.2116 6.75684 27 6.75684C28.7884 6.75684 30.5036 7.46728 31.7682 8.73189C33.0328 9.99649 33.7432 11.7117 33.7432 13.5001C33.7432 15.2885 33.0328 17.0037 31.7682 18.2683C30.5036 19.5329 28.7884 20.2433 27 20.2433C25.2116 20.2433 23.4964 19.5329 22.2318 18.2683C20.9672 17.0037 20.2568 15.2885 20.2568 13.5001ZM27 10.1318C26.5577 10.1318 26.1197 10.219 25.711 10.3882C25.3024 10.5575 24.9311 10.8056 24.6183 11.1184C24.3055 11.4311 24.0574 11.8025 23.8881 12.2111C23.7189 12.6198 23.6318 13.0578 23.6318 13.5001C23.6318 13.9424 23.7189 14.3804 23.8881 14.7891C24.0574 15.1977 24.3055 15.569 24.6183 15.8818C24.9311 16.1946 25.3024 16.4427 25.711 16.6119C26.1197 16.7812 26.5577 16.8683 27 16.8683C27.8933 16.8683 28.75 16.5135 29.3817 15.8818C30.0134 15.2501 30.3682 14.3934 30.3682 13.5001C30.3682 12.6068 30.0134 11.75 29.3817 11.1184C28.75 10.4867 27.8933 10.1318 27 10.1318ZM37.125 15.1876C37.125 14.5228 37.2559 13.8645 37.5104 13.2503C37.7648 12.636 38.1377 12.078 38.6078 11.6079C39.0779 11.1378 39.636 10.7649 40.2502 10.5104C40.8644 10.256 41.5227 10.1251 42.1875 10.1251C42.8523 10.1251 43.5106 10.256 44.1248 10.5104C44.739 10.7649 45.2971 11.1378 45.7672 11.6079C46.2373 12.078 46.6102 12.636 46.8646 13.2503C47.1191 13.8645 47.25 14.5228 47.25 15.1876C47.25 16.5302 46.7166 17.8179 45.7672 18.7673C44.8178 19.7167 43.5302 20.2501 42.1875 20.2501C40.8448 20.2501 39.5572 19.7167 38.6078 18.7673C37.6584 17.8179 37.125 16.5302 37.125 15.1876ZM42.1875 13.5001C41.7399 13.5001 41.3107 13.6779 40.9943 13.9943C40.6778 14.3108 40.5 14.74 40.5 15.1876C40.5 15.6351 40.6778 16.0644 40.9943 16.3808C41.3107 16.6973 41.7399 16.8751 42.1875 16.8751C42.6351 16.8751 43.0643 16.6973 43.3807 16.3808C43.6972 16.0644 43.875 15.6351 43.875 15.1876C43.875 14.74 43.6972 14.3108 43.3807 13.9943C43.0643 13.6779 42.6351 13.5001 42.1875 13.5001ZM11.8125 10.1251C10.4698 10.1251 9.18218 10.6585 8.23277 11.6079C7.28337 12.5573 6.75 13.8449 6.75 15.1876C6.75 16.5302 7.28337 17.8179 8.23277 18.7673C9.18218 19.7167 10.4698 20.2501 11.8125 20.2501C13.1552 20.2501 14.4428 19.7167 15.3922 18.7673C16.3416 17.8179 16.875 16.5302 16.875 15.1876C16.875 13.8449 16.3416 12.5573 15.3922 11.6079C14.4428 10.6585 13.1552 10.1251 11.8125 10.1251ZM10.125 15.1876C10.125 14.74 10.3028 14.3108 10.6193 13.9943C10.9357 13.6779 11.3649 13.5001 11.8125 13.5001C12.2601 13.5001 12.6893 13.6779 13.0057 13.9943C13.3222 14.3108 13.5 14.74 13.5 15.1876C13.5 15.6351 13.3222 16.0644 13.0057 16.3808C12.6893 16.6973 12.2601 16.8751 11.8125 16.8751C11.3649 16.8751 10.9357 16.6973 10.6193 16.3808C10.3028 16.0644 10.125 15.6351 10.125 15.1876ZM14.4045 23.6251C13.8105 24.6506 13.4985 25.815 13.5 27.0001H6.75V35.4376C6.74973 36.2771 6.95822 37.1035 7.35671 37.8423C7.75521 38.5812 8.33119 39.2094 9.03281 39.6703C9.73443 40.1313 10.5397 40.4105 11.376 40.4829C12.2124 40.5553 13.0536 40.4185 13.824 40.085C14.0738 41.2021 14.4653 42.2686 14.9715 43.2642C13.6906 43.7814 12.3022 43.9762 10.9284 43.8314C9.55464 43.6867 8.23739 43.2069 7.09237 42.4341C5.94735 41.6613 5.00958 40.6192 4.36142 39.3993C3.71326 38.1794 3.37454 36.819 3.375 35.4376V27.0001C3.375 26.105 3.73058 25.2465 4.36351 24.6136C4.99645 23.9807 5.85489 23.6251 6.75 23.6251H14.4045ZM39.0285 43.2642C40.3094 43.7814 41.6978 43.9762 43.0716 43.8314C44.4454 43.6867 45.7626 43.2069 46.9076 42.4341C48.0527 41.6613 48.9904 40.6192 49.6386 39.3993C50.2867 38.1794 50.6255 36.819 50.625 35.4376V27.0001C50.625 26.105 50.2694 25.2465 49.6365 24.6136C49.0036 23.9807 48.1451 23.6251 47.25 23.6251H39.5955C40.1693 24.6173 40.5 25.7682 40.5 27.0001H47.25V35.4376C47.2503 36.2771 47.0418 37.1035 46.6433 37.8423C46.2448 38.5812 45.6688 39.2094 44.9672 39.6703C44.2656 40.1313 43.4603 40.4105 42.624 40.4829C41.7876 40.5553 40.9464 40.4185 40.176 40.085C39.9229 41.2021 39.5347 42.2686 39.0285 43.2642ZM20.25 23.6217C19.3549 23.6217 18.4965 23.9773 17.8635 24.6102C17.2306 25.2432 16.875 26.1016 16.875 26.9967V37.1251C16.875 39.8104 17.9417 42.3857 19.8405 44.2845C21.7393 46.1833 24.3147 47.2501 27 47.2501C29.6853 47.2501 32.2607 46.1833 34.1595 44.2845C36.0583 42.3857 37.125 39.8104 37.125 37.1251V27.0001C37.125 26.105 36.7694 25.2465 36.1365 24.6136C35.5036 23.9807 34.6451 23.6251 33.75 23.6251H20.25V23.6217ZM20.25 26.9967H33.75V37.1251C33.75 38.9153 33.0388 40.6322 31.773 41.8981C30.5071 43.1639 28.7902 43.8751 27 43.8751C25.2098 43.8751 23.4929 43.1639 22.227 41.8981C20.9612 40.6322 20.25 38.9153 20.25 37.1251V27.0001V26.9967Z" fill="#0AAFF7"/>
</svg>
