<svg width="54" height="54" viewBox="0 0 54 54" fill="none" xmlns="http://www.w3.org/2000/svg">
<path d="M9.00903 24.3998L8.97621 24.6283H9.207H11.25C11.7937 24.6283 12.3151 24.8442 12.6996 25.2287C13.084 25.6131 13.3 26.1346 13.3 26.6783V38.25C13.3 38.7937 13.084 39.3151 12.6996 39.6996C12.3151 40.084 11.7937 40.3 11.25 40.3H9C6.61449 40.3 4.7 38.5016 4.7 36.3217V27C4.7 14.704 14.704 4.7 27 4.7C39.296 4.7 49.3 14.704 49.3 27V36.3217C49.3 38.5016 47.3855 40.3 45 40.3H44.8V40.5C44.8 45.353 40.853 49.3 36 49.3H22.7V42.95H31.3V45V45.2H31.5H36C38.5922 45.2 40.7 43.0922 40.7 40.5V26.6783C40.7 26.1346 40.916 25.6131 41.3004 25.2287C41.6849 24.8442 42.2063 24.6283 42.75 24.6283H44.793H45.0238L44.991 24.3998C43.7261 15.5957 36.1508 8.8 27 8.8C17.8492 8.8 10.2739 15.5957 9.00903 24.3998Z" fill="#0AAFF7" stroke="white" stroke-width="0.4"/>
</svg>
